<?xml version="1.0" encoding="UTF-8" standalone="no"?>
<!DOCTYPE svg PUBLIC "-//W3C//DTD SVG 1.1//EN"
 "http://www.w3.org/Graphics/SVG/1.1/DTD/svg11.dtd">
<!-- Generated by graphviz version 2.43.0 (0)
 -->
<!-- Title: Ogre::StringInterface Pages: 1 -->
<svg width="939pt" height="970pt"
 viewBox="0.00 0.00 939.00 969.50" xmlns="http://www.w3.org/2000/svg" xmlns:xlink="http://www.w3.org/1999/xlink">
<g id="graph0" class="graph" transform="scale(1 1) rotate(0) translate(4 965.5)">
<title>Ogre::StringInterface</title>
<!-- Node1 -->
<g id="node1" class="node">
<title>Node1</title>
<g id="a_node1"><a xlink:title="Class defining the common interface which classes can use to present a reflection&#45;style,...">
<polygon fill="#bfbfbf" stroke="black" points="0,-494.5 0,-513.5 118,-513.5 118,-494.5 0,-494.5"/>
<text text-anchor="middle" x="59" y="-501.5" font-family="Helvetica,sans-Serif" font-size="10.00">Ogre::StringInterface</text>
</a>
</g>
</g>
<!-- Node2 -->
<g id="node2" class="node">
<title>Node2</title>
<g id="a_node2"><a xlink:href="class_ogre_1_1_external_texture_source.html" target="_top" xlink:title="IMPORTANT: Plugins must override default dictionary name! Base class that texture plugins derive from...">
<polygon fill="none" stroke="black" points="158.5,-854.5 158.5,-873.5 313.5,-873.5 313.5,-854.5 158.5,-854.5"/>
<text text-anchor="middle" x="236" y="-861.5" font-family="Helvetica,sans-Serif" font-size="10.00">Ogre::ExternalTextureSource</text>
</a>
</g>
</g>
<!-- Node1&#45;&gt;Node2 -->
<g id="edge1" class="edge">
<title>Node1&#45;&gt;Node2</title>
<path fill="none" stroke="midnightblue" d="M62.79,-523.84C72.43,-589.65 106.41,-799.21 154,-845 157.96,-848.81 162.52,-851.9 167.43,-854.41"/>
<polygon fill="midnightblue" stroke="midnightblue" points="66.21,-523 61.32,-513.6 59.28,-524 66.21,-523"/>
</g>
<!-- Node3 -->
<g id="node3" class="node">
<title>Node3</title>
<g id="a_node3"><a xlink:href="class_ogre_1_1_overlay_element.html" target="_top" xlink:title="Abstract definition of a 2D element to be displayed in an Overlay.">
<polygon fill="none" stroke="black" points="173.5,-816.5 173.5,-835.5 298.5,-835.5 298.5,-816.5 173.5,-816.5"/>
<text text-anchor="middle" x="236" y="-823.5" font-family="Helvetica,sans-Serif" font-size="10.00">Ogre::OverlayElement</text>
</a>
</g>
</g>
<!-- Node1&#45;&gt;Node3 -->
<g id="edge2" class="edge">
<title>Node1&#45;&gt;Node3</title>
<path fill="none" stroke="midnightblue" d="M67.94,-523.08C83.14,-559.05 118.06,-639.03 154,-703 178.67,-746.92 213.34,-796.08 228.01,-816.41"/>
<polygon fill="midnightblue" stroke="midnightblue" points="71.13,-521.63 64.03,-513.77 64.68,-524.34 71.13,-521.63"/>
</g>
<!-- Node8 -->
<g id="node8" class="node">
<title>Node8</title>
<g id="a_node8"><a xlink:href="class_ogre_1_1_particle_affector.html" target="_top" xlink:title="Abstract class defining the interface to be implemented by particle affectors.">
<polygon fill="none" stroke="black" points="175.5,-674.5 175.5,-693.5 296.5,-693.5 296.5,-674.5 175.5,-674.5"/>
<text text-anchor="middle" x="236" y="-681.5" font-family="Helvetica,sans-Serif" font-size="10.00">Ogre::ParticleAffector</text>
</a>
</g>
</g>
<!-- Node1&#45;&gt;Node8 -->
<g id="edge7" class="edge">
<title>Node1&#45;&gt;Node8</title>
<path fill="none" stroke="midnightblue" d="M76.74,-521.21C112.88,-558.39 197.23,-645.15 225.54,-674.27"/>
<polygon fill="midnightblue" stroke="midnightblue" points="78.89,-518.41 69.41,-513.68 73.87,-523.29 78.89,-518.41"/>
</g>
<!-- Node18 -->
<g id="node18" class="node">
<title>Node18</title>
<g id="a_node18"><a xlink:href="class_ogre_1_1_particle_emitter.html" target="_top" xlink:title="Abstract class defining the interface to be implemented by particle emitters.">
<polygon fill="none" stroke="black" points="176.5,-494.5 176.5,-513.5 295.5,-513.5 295.5,-494.5 176.5,-494.5"/>
<text text-anchor="middle" x="236" y="-501.5" font-family="Helvetica,sans-Serif" font-size="10.00">Ogre::ParticleEmitter</text>
</a>
</g>
</g>
<!-- Node1&#45;&gt;Node18 -->
<g id="edge17" class="edge">
<title>Node1&#45;&gt;Node18</title>
<path fill="none" stroke="midnightblue" d="M128.52,-504C144.34,-504 161.03,-504 176.39,-504"/>
<polygon fill="midnightblue" stroke="midnightblue" points="128.27,-500.5 118.27,-504 128.27,-507.5 128.27,-500.5"/>
</g>
<!-- Node26 -->
<g id="node26" class="node">
<title>Node26</title>
<g id="a_node26"><a xlink:href="class_ogre_1_1_particle_system.html" target="_top" xlink:title="Class defining particle system based special effects.">
<polygon fill="none" stroke="black" points="176.5,-456.5 176.5,-475.5 295.5,-475.5 295.5,-456.5 176.5,-456.5"/>
<text text-anchor="middle" x="236" y="-463.5" font-family="Helvetica,sans-Serif" font-size="10.00">Ogre::ParticleSystem</text>
</a>
</g>
</g>
<!-- Node1&#45;&gt;Node26 -->
<g id="edge25" class="edge">
<title>Node1&#45;&gt;Node26</title>
<path fill="none" stroke="midnightblue" d="M114.12,-492.25C138.87,-486.87 167.8,-480.59 191.16,-475.52"/>
<polygon fill="midnightblue" stroke="midnightblue" points="113.19,-488.87 104.16,-494.41 114.67,-495.71 113.19,-488.87"/>
</g>
<!-- Node27 -->
<g id="node27" class="node">
<title>Node27</title>
<g id="a_node27"><a xlink:href="class_ogre_1_1_particle_system_renderer.html" target="_top" xlink:title="Abstract class defining the interface required to be implemented by classes which provide rendering c...">
<polygon fill="none" stroke="black" points="154,-418.5 154,-437.5 318,-437.5 318,-418.5 154,-418.5"/>
<text text-anchor="middle" x="236" y="-425.5" font-family="Helvetica,sans-Serif" font-size="10.00">Ogre::ParticleSystemRenderer</text>
</a>
</g>
</g>
<!-- Node1&#45;&gt;Node27 -->
<g id="edge26" class="edge">
<title>Node1&#45;&gt;Node27</title>
<path fill="none" stroke="midnightblue" d="M81.23,-488.44C99.64,-475.63 127.43,-457.85 154,-447 163.23,-443.23 173.36,-440.11 183.25,-437.57"/>
<polygon fill="midnightblue" stroke="midnightblue" points="79.12,-485.64 72.99,-494.28 83.17,-491.35 79.12,-485.64"/>
</g>
<!-- Node29 -->
<g id="node29" class="node">
<title>Node29</title>
<g id="a_node29"><a xlink:href="class_ogre_1_1_resource.html" target="_top" xlink:title="Abstract class representing a loadable resource.">
<polygon fill="none" stroke="black" points="190.5,-266.5 190.5,-285.5 281.5,-285.5 281.5,-266.5 190.5,-266.5"/>
<text text-anchor="middle" x="236" y="-273.5" font-family="Helvetica,sans-Serif" font-size="10.00">Ogre::Resource</text>
</a>
</g>
</g>
<!-- Node1&#45;&gt;Node29 -->
<g id="edge28" class="edge">
<title>Node1&#45;&gt;Node29</title>
<path fill="none" stroke="midnightblue" d="M73.48,-486.44C108.39,-440.95 200.94,-320.38 227.67,-285.55"/>
<polygon fill="midnightblue" stroke="midnightblue" points="70.61,-484.43 67.3,-494.49 76.16,-488.69 70.61,-484.43"/>
</g>
<!-- Node4 -->
<g id="node4" class="node">
<title>Node4</title>
<g id="a_node4"><a xlink:href="class_ogre_1_1_overlay_container.html" target="_top" xlink:title="A 2D element which contains other OverlayElement instances.">
<polygon fill="none" stroke="black" points="373.5,-936.5 373.5,-955.5 504.5,-955.5 504.5,-936.5 373.5,-936.5"/>
<text text-anchor="middle" x="439" y="-943.5" font-family="Helvetica,sans-Serif" font-size="10.00">Ogre::OverlayContainer</text>
</a>
</g>
</g>
<!-- Node3&#45;&gt;Node4 -->
<g id="edge3" class="edge">
<title>Node3&#45;&gt;Node4</title>
<path fill="none" stroke="midnightblue" d="M307.95,-838.24C311.52,-840.18 314.9,-842.42 318,-845 348.6,-870.45 323.3,-901.67 354,-927 359.65,-931.66 366.22,-935.24 373.14,-937.97"/>
<polygon fill="midnightblue" stroke="midnightblue" points="309.29,-835 298.74,-833.98 306.35,-841.35 309.29,-835"/>
</g>
<!-- Node7 -->
<g id="node7" class="node">
<title>Node7</title>
<g id="a_node7"><a xlink:href="class_ogre_1_1_text_area_overlay_element.html" target="_top" xlink:title="This class implements an overlay element which contains simple unformatted text.">
<polygon fill="none" stroke="black" points="355.5,-898.5 355.5,-917.5 522.5,-917.5 522.5,-898.5 355.5,-898.5"/>
<text text-anchor="middle" x="439" y="-905.5" font-family="Helvetica,sans-Serif" font-size="10.00">Ogre::TextAreaOverlayElement</text>
</a>
</g>
</g>
<!-- Node3&#45;&gt;Node7 -->
<g id="edge6" class="edge">
<title>Node3&#45;&gt;Node7</title>
<path fill="none" stroke="midnightblue" d="M307.18,-839.29C310.95,-840.97 314.58,-842.87 318,-845 339.44,-858.37 332.51,-875.71 354,-889 360.23,-892.85 367.15,-895.93 374.28,-898.38"/>
<polygon fill="midnightblue" stroke="midnightblue" points="308.2,-835.93 297.61,-835.54 305.64,-842.45 308.2,-835.93"/>
</g>
<!-- Node5 -->
<g id="node5" class="node">
<title>Node5</title>
<g id="a_node5"><a xlink:href="class_ogre_1_1_panel_overlay_element.html" target="_top" xlink:title="OverlayElement representing a flat, single&#45;material (or transparent) panel which can contain other el...">
<polygon fill="none" stroke="black" points="561.5,-936.5 561.5,-955.5 713.5,-955.5 713.5,-936.5 561.5,-936.5"/>
<text text-anchor="middle" x="637.5" y="-943.5" font-family="Helvetica,sans-Serif" font-size="10.00">Ogre::PanelOverlayElement</text>
</a>
</g>
</g>
<!-- Node4&#45;&gt;Node5 -->
<g id="edge4" class="edge">
<title>Node4&#45;&gt;Node5</title>
<path fill="none" stroke="midnightblue" d="M514.97,-946C530.14,-946 546.09,-946 561.27,-946"/>
<polygon fill="midnightblue" stroke="midnightblue" points="514.61,-942.5 504.61,-946 514.61,-949.5 514.61,-942.5"/>
</g>
<!-- Node6 -->
<g id="node6" class="node">
<title>Node6</title>
<g id="a_node6"><a xlink:href="class_ogre_1_1_border_panel_overlay_element.html" target="_top" xlink:title="A specialisation of the PanelOverlayElement to provide a panel with a border.">
<polygon fill="none" stroke="black" points="769.5,-931 769.5,-961 912.5,-961 912.5,-931 769.5,-931"/>
<text text-anchor="start" x="777.5" y="-949" font-family="Helvetica,sans-Serif" font-size="10.00">Ogre::BorderPanelOverlay</text>
<text text-anchor="middle" x="841" y="-938" font-family="Helvetica,sans-Serif" font-size="10.00">Element</text>
</a>
</g>
</g>
<!-- Node5&#45;&gt;Node6 -->
<g id="edge5" class="edge">
<title>Node5&#45;&gt;Node6</title>
<path fill="none" stroke="midnightblue" d="M723.9,-946C739.01,-946 754.59,-946 769.25,-946"/>
<polygon fill="midnightblue" stroke="midnightblue" points="723.53,-942.5 713.53,-946 723.53,-949.5 723.53,-942.5"/>
</g>
<!-- Node9 -->
<g id="node9" class="node">
<title>Node9</title>
<g id="a_node9"><a xlink:href="class_ogre_1_1_colour_fader_affector.html" target="_top" xlink:title="This plugin subclass of ParticleAffector allows you to alter the colour of particles.">
<polygon fill="none" stroke="black" points="367.5,-860.5 367.5,-879.5 510.5,-879.5 510.5,-860.5 367.5,-860.5"/>
<text text-anchor="middle" x="439" y="-867.5" font-family="Helvetica,sans-Serif" font-size="10.00">Ogre::ColourFaderAffector</text>
</a>
</g>
</g>
<!-- Node8&#45;&gt;Node9 -->
<g id="edge8" class="edge">
<title>Node8&#45;&gt;Node9</title>
<path fill="none" stroke="midnightblue" d="M248.71,-702.24C275.32,-743.48 339.21,-841.07 354,-851 359.71,-854.83 366.08,-857.9 372.69,-860.36"/>
<polygon fill="midnightblue" stroke="midnightblue" points="251.56,-700.21 243.21,-693.7 245.68,-704 251.56,-700.21"/>
</g>
<!-- Node10 -->
<g id="node10" class="node">
<title>Node10</title>
<g id="a_node10"><a xlink:href="class_ogre_1_1_colour_fader_affector2.html" target="_top" xlink:title="This plugin subclass of ParticleAffector allows you to alter the colour of particles.">
<polygon fill="none" stroke="black" points="364.5,-822.5 364.5,-841.5 513.5,-841.5 513.5,-822.5 364.5,-822.5"/>
<text text-anchor="middle" x="439" y="-829.5" font-family="Helvetica,sans-Serif" font-size="10.00">Ogre::ColourFaderAffector2</text>
</a>
</g>
</g>
<!-- Node8&#45;&gt;Node10 -->
<g id="edge9" class="edge">
<title>Node8&#45;&gt;Node10</title>
<path fill="none" stroke="midnightblue" d="M248.1,-702.13C266.45,-730.48 305.9,-784.93 354,-813 360.71,-816.92 368.17,-820.03 375.78,-822.5"/>
<polygon fill="midnightblue" stroke="midnightblue" points="251.01,-700.18 242.71,-693.6 245.09,-703.92 251.01,-700.18"/>
</g>
<!-- Node11 -->
<g id="node11" class="node">
<title>Node11</title>
<g id="a_node11"><a xlink:href="class_ogre_1_1_colour_image_affector.html" target="_top" xlink:title=" ">
<polygon fill="none" stroke="black" points="366,-784.5 366,-803.5 512,-803.5 512,-784.5 366,-784.5"/>
<text text-anchor="middle" x="439" y="-791.5" font-family="Helvetica,sans-Serif" font-size="10.00">Ogre::ColourImageAffector</text>
</a>
</g>
</g>
<!-- Node8&#45;&gt;Node11 -->
<g id="edge10" class="edge">
<title>Node8&#45;&gt;Node11</title>
<path fill="none" stroke="midnightblue" d="M253.59,-700.84C274.92,-721.49 313.98,-756.08 354,-775 362.11,-778.84 371.03,-781.92 379.94,-784.39"/>
<polygon fill="midnightblue" stroke="midnightblue" points="255.9,-698.2 246.32,-693.67 250.98,-703.19 255.9,-698.2"/>
</g>
<!-- Node12 -->
<g id="node12" class="node">
<title>Node12</title>
<g id="a_node12"><a xlink:href="class_ogre_1_1_colour_interpolator_affector.html" target="_top" xlink:title=" ">
<polygon fill="none" stroke="black" points="372,-735 372,-765 506,-765 506,-735 372,-735"/>
<text text-anchor="start" x="380" y="-753" font-family="Helvetica,sans-Serif" font-size="10.00">Ogre::ColourInterpolator</text>
<text text-anchor="middle" x="439" y="-742" font-family="Helvetica,sans-Serif" font-size="10.00">Affector</text>
</a>
</g>
</g>
<!-- Node8&#45;&gt;Node12 -->
<g id="edge11" class="edge">
<title>Node8&#45;&gt;Node12</title>
<path fill="none" stroke="midnightblue" d="M273.07,-697.14C296.12,-705.41 326.71,-716.16 354,-725 364.28,-728.33 375.32,-731.73 385.9,-734.92"/>
<polygon fill="midnightblue" stroke="midnightblue" points="273.96,-693.74 263.36,-693.64 271.59,-700.33 273.96,-693.74"/>
</g>
<!-- Node13 -->
<g id="node13" class="node">
<title>Node13</title>
<g id="a_node13"><a xlink:href="class_ogre_1_1_deflector_plane_affector.html" target="_top" xlink:title="This class defines a ParticleAffector which deflects particles.">
<polygon fill="none" stroke="black" points="361,-696.5 361,-715.5 517,-715.5 517,-696.5 361,-696.5"/>
<text text-anchor="middle" x="439" y="-703.5" font-family="Helvetica,sans-Serif" font-size="10.00">Ogre::DeflectorPlaneAffector</text>
</a>
</g>
</g>
<!-- Node8&#45;&gt;Node13 -->
<g id="edge12" class="edge">
<title>Node8&#45;&gt;Node13</title>
<path fill="none" stroke="midnightblue" d="M306.87,-691.65C324.33,-693.56 343.15,-695.62 360.94,-697.57"/>
<polygon fill="midnightblue" stroke="midnightblue" points="307.08,-688.15 296.76,-690.54 306.32,-695.11 307.08,-688.15"/>
</g>
<!-- Node14 -->
<g id="node14" class="node">
<title>Node14</title>
<g id="a_node14"><a xlink:href="class_ogre_1_1_direction_randomiser_affector.html" target="_top" xlink:title="This class defines a ParticleAffector which applies randomness to the movement of the particles.">
<polygon fill="none" stroke="black" points="364.5,-647 364.5,-677 513.5,-677 513.5,-647 364.5,-647"/>
<text text-anchor="start" x="372.5" y="-665" font-family="Helvetica,sans-Serif" font-size="10.00">Ogre::DirectionRandomiser</text>
<text text-anchor="middle" x="439" y="-654" font-family="Helvetica,sans-Serif" font-size="10.00">Affector</text>
</a>
</g>
</g>
<!-- Node8&#45;&gt;Node14 -->
<g id="edge13" class="edge">
<title>Node8&#45;&gt;Node14</title>
<path fill="none" stroke="midnightblue" d="M306.88,-676.35C325.42,-674.32 345.49,-672.13 364.23,-670.07"/>
<polygon fill="midnightblue" stroke="midnightblue" points="306.32,-672.89 296.76,-677.46 307.08,-679.85 306.32,-672.89"/>
</g>
<!-- Node15 -->
<g id="node15" class="node">
<title>Node15</title>
<g id="a_node15"><a xlink:href="class_ogre_1_1_linear_force_affector.html" target="_top" xlink:title="This class defines a ParticleAffector which applies a linear force to particles in a system.">
<polygon fill="none" stroke="black" points="369,-608.5 369,-627.5 509,-627.5 509,-608.5 369,-608.5"/>
<text text-anchor="middle" x="439" y="-615.5" font-family="Helvetica,sans-Serif" font-size="10.00">Ogre::LinearForceAffector</text>
</a>
</g>
</g>
<!-- Node8&#45;&gt;Node15 -->
<g id="edge14" class="edge">
<title>Node8&#45;&gt;Node15</title>
<path fill="none" stroke="midnightblue" d="M268.04,-670.41C291.38,-660.54 324.3,-647.32 354,-638 366.44,-634.09 380.13,-630.53 392.78,-627.53"/>
<polygon fill="midnightblue" stroke="midnightblue" points="266.49,-667.27 258.67,-674.42 269.24,-673.71 266.49,-667.27"/>
</g>
<!-- Node16 -->
<g id="node16" class="node">
<title>Node16</title>
<g id="a_node16"><a xlink:href="class_ogre_1_1_rotation_affector.html" target="_top" xlink:title="This plugin subclass of ParticleAffector allows you to alter the rotation of particles.">
<polygon fill="none" stroke="black" points="376.5,-570.5 376.5,-589.5 501.5,-589.5 501.5,-570.5 376.5,-570.5"/>
<text text-anchor="middle" x="439" y="-577.5" font-family="Helvetica,sans-Serif" font-size="10.00">Ogre::RotationAffector</text>
</a>
</g>
</g>
<!-- Node8&#45;&gt;Node16 -->
<g id="edge15" class="edge">
<title>Node8&#45;&gt;Node16</title>
<path fill="none" stroke="midnightblue" d="M254.48,-667.72C276.17,-648.41 315.06,-616.64 354,-599 362.44,-595.17 371.72,-592.09 380.94,-589.61"/>
<polygon fill="midnightblue" stroke="midnightblue" points="252.11,-665.14 247.05,-674.45 256.81,-670.33 252.11,-665.14"/>
</g>
<!-- Node17 -->
<g id="node17" class="node">
<title>Node17</title>
<g id="a_node17"><a xlink:href="class_ogre_1_1_scale_affector.html" target="_top" xlink:title="This plugin subclass of ParticleAffector allows you to alter the scale of particles.">
<polygon fill="none" stroke="black" points="384,-532.5 384,-551.5 494,-551.5 494,-532.5 384,-532.5"/>
<text text-anchor="middle" x="439" y="-539.5" font-family="Helvetica,sans-Serif" font-size="10.00">Ogre::ScaleAffector</text>
</a>
</g>
</g>
<!-- Node8&#45;&gt;Node17 -->
<g id="edge16" class="edge">
<title>Node8&#45;&gt;Node17</title>
<path fill="none" stroke="midnightblue" d="M249.11,-665.56C268.08,-638.25 307.46,-587.43 354,-561 363.1,-555.83 373.51,-552.07 383.82,-549.33"/>
<polygon fill="midnightblue" stroke="midnightblue" points="245.99,-663.92 243.28,-674.17 251.79,-667.85 245.99,-663.92"/>
</g>
<!-- Node19 -->
<g id="node19" class="node">
<title>Node19</title>
<g id="a_node19"><a xlink:href="class_ogre_1_1_area_emitter.html" target="_top" xlink:title="Particle emitter which emits particles randomly from points inside an area (box, sphere,...">
<polygon fill="none" stroke="black" points="387,-494.5 387,-513.5 491,-513.5 491,-494.5 387,-494.5"/>
<text text-anchor="middle" x="439" y="-501.5" font-family="Helvetica,sans-Serif" font-size="10.00">Ogre::AreaEmitter</text>
</a>
</g>
</g>
<!-- Node18&#45;&gt;Node19 -->
<g id="edge18" class="edge">
<title>Node18&#45;&gt;Node19</title>
<path fill="none" stroke="midnightblue" d="M305.68,-504C332.25,-504 362.13,-504 386.76,-504"/>
<polygon fill="midnightblue" stroke="midnightblue" points="305.68,-500.5 295.68,-504 305.68,-507.5 305.68,-500.5"/>
</g>
<!-- Node25 -->
<g id="node25" class="node">
<title>Node25</title>
<g id="a_node25"><a xlink:href="class_ogre_1_1_point_emitter.html" target="_top" xlink:title="Particle emitter which emits particles from a single point.">
<polygon fill="none" stroke="black" points="385.5,-456.5 385.5,-475.5 492.5,-475.5 492.5,-456.5 385.5,-456.5"/>
<text text-anchor="middle" x="439" y="-463.5" font-family="Helvetica,sans-Serif" font-size="10.00">Ogre::PointEmitter</text>
</a>
</g>
</g>
<!-- Node18&#45;&gt;Node25 -->
<g id="edge24" class="edge">
<title>Node18&#45;&gt;Node25</title>
<path fill="none" stroke="midnightblue" d="M297.4,-492.58C326.16,-487.14 360.16,-480.72 387.52,-475.54"/>
<polygon fill="midnightblue" stroke="midnightblue" points="296.64,-489.16 287.46,-494.46 297.94,-496.04 296.64,-489.16"/>
</g>
<!-- Node20 -->
<g id="node20" class="node">
<title>Node20</title>
<g id="a_node20"><a xlink:href="class_ogre_1_1_box_emitter.html" target="_top" xlink:title="Particle emitter which emits particles randomly from points inside a box.">
<polygon fill="none" stroke="black" points="587,-551.5 587,-570.5 688,-570.5 688,-551.5 587,-551.5"/>
<text text-anchor="middle" x="637.5" y="-558.5" font-family="Helvetica,sans-Serif" font-size="10.00">Ogre::BoxEmitter</text>
</a>
</g>
</g>
<!-- Node19&#45;&gt;Node20 -->
<g id="edge19" class="edge">
<title>Node19&#45;&gt;Node20</title>
<path fill="none" stroke="midnightblue" d="M501.1,-515.83C508.9,-517.92 516.7,-520.3 524,-523 540.97,-529.27 543.1,-535.55 560,-542 569.59,-545.66 580.13,-548.8 590.23,-551.42"/>
<polygon fill="midnightblue" stroke="midnightblue" points="501.82,-512.4 491.27,-513.34 500.1,-519.18 501.82,-512.4"/>
</g>
<!-- Node21 -->
<g id="node21" class="node">
<title>Node21</title>
<g id="a_node21"><a xlink:href="class_ogre_1_1_cylinder_emitter.html" target="_top" xlink:title="Particle emitter which emits particles randomly from points inside a cylinder.">
<polygon fill="none" stroke="black" points="576.5,-513.5 576.5,-532.5 698.5,-532.5 698.5,-513.5 576.5,-513.5"/>
<text text-anchor="middle" x="637.5" y="-520.5" font-family="Helvetica,sans-Serif" font-size="10.00">Ogre::CylinderEmitter</text>
</a>
</g>
</g>
<!-- Node19&#45;&gt;Node21 -->
<g id="edge20" class="edge">
<title>Node19&#45;&gt;Node21</title>
<path fill="none" stroke="midnightblue" d="M501.13,-509.91C525.04,-512.22 552.39,-514.87 576.22,-517.17"/>
<polygon fill="midnightblue" stroke="midnightblue" points="501.41,-506.42 491.12,-508.94 500.73,-513.39 501.41,-506.42"/>
</g>
<!-- Node22 -->
<g id="node22" class="node">
<title>Node22</title>
<g id="a_node22"><a xlink:href="class_ogre_1_1_ellipsoid_emitter.html" target="_top" xlink:title="Particle emitter which emits particles randomly from points inside an ellipsoid.">
<polygon fill="none" stroke="black" points="576,-475.5 576,-494.5 699,-494.5 699,-475.5 576,-475.5"/>
<text text-anchor="middle" x="637.5" y="-482.5" font-family="Helvetica,sans-Serif" font-size="10.00">Ogre::EllipsoidEmitter</text>
</a>
</g>
</g>
<!-- Node19&#45;&gt;Node22 -->
<g id="edge21" class="edge">
<title>Node19&#45;&gt;Node22</title>
<path fill="none" stroke="midnightblue" d="M501.09,-498.09C524.89,-495.79 552.1,-493.16 575.86,-490.86"/>
<polygon fill="midnightblue" stroke="midnightblue" points="500.73,-494.61 491.12,-499.06 501.41,-501.58 500.73,-494.61"/>
</g>
<!-- Node24 -->
<g id="node24" class="node">
<title>Node24</title>
<g id="a_node24"><a xlink:href="class_ogre_1_1_ring_emitter.html" target="_top" xlink:title="Particle emitter which emits particles randomly from points inside a ring (e.g.">
<polygon fill="none" stroke="black" points="585.5,-437.5 585.5,-456.5 689.5,-456.5 689.5,-437.5 585.5,-437.5"/>
<text text-anchor="middle" x="637.5" y="-444.5" font-family="Helvetica,sans-Serif" font-size="10.00">Ogre::RingEmitter</text>
</a>
</g>
</g>
<!-- Node19&#45;&gt;Node24 -->
<g id="edge23" class="edge">
<title>Node19&#45;&gt;Node24</title>
<path fill="none" stroke="midnightblue" d="M501.1,-492.17C508.9,-490.08 516.7,-487.7 524,-485 540.97,-478.73 543.1,-472.45 560,-466 569.59,-462.34 580.13,-459.2 590.23,-456.58"/>
<polygon fill="midnightblue" stroke="midnightblue" points="500.1,-488.82 491.27,-494.66 501.82,-495.6 500.1,-488.82"/>
</g>
<!-- Node23 -->
<g id="node23" class="node">
<title>Node23</title>
<g id="a_node23"><a xlink:href="class_ogre_1_1_hollow_ellipsoid_emitter.html" target="_top" xlink:title="Particle emitter which emits particles randomly from points inside a hollow ellipsoid.">
<polygon fill="none" stroke="black" points="762.5,-475.5 762.5,-494.5 919.5,-494.5 919.5,-475.5 762.5,-475.5"/>
<text text-anchor="middle" x="841" y="-482.5" font-family="Helvetica,sans-Serif" font-size="10.00">Ogre::HollowEllipsoidEmitter</text>
</a>
</g>
</g>
<!-- Node22&#45;&gt;Node23 -->
<g id="edge22" class="edge">
<title>Node22&#45;&gt;Node23</title>
<path fill="none" stroke="midnightblue" d="M709.65,-485C726.66,-485 744.92,-485 762.22,-485"/>
<polygon fill="midnightblue" stroke="midnightblue" points="709.23,-481.5 699.23,-485 709.23,-488.5 709.23,-481.5"/>
</g>
<!-- Node28 -->
<g id="node28" class="node">
<title>Node28</title>
<g id="a_node28"><a xlink:href="class_ogre_1_1_billboard_particle_renderer.html" target="_top" xlink:title="Specialisation of ParticleSystemRenderer to render particles using a BillboardSet.">
<polygon fill="none" stroke="black" points="354,-418.5 354,-437.5 524,-437.5 524,-418.5 354,-418.5"/>
<text text-anchor="middle" x="439" y="-425.5" font-family="Helvetica,sans-Serif" font-size="10.00">Ogre::BillboardParticleRenderer</text>
</a>
</g>
</g>
<!-- Node27&#45;&gt;Node28 -->
<g id="edge27" class="edge">
<title>Node27&#45;&gt;Node28</title>
<path fill="none" stroke="midnightblue" d="M328.18,-428C336.74,-428 345.4,-428 353.9,-428"/>
<polygon fill="midnightblue" stroke="midnightblue" points="328.18,-424.5 318.18,-428 328.17,-431.5 328.18,-424.5"/>
</g>
<!-- Node30 -->
<g id="node30" class="node">
<title>Node30</title>
<g id="a_node30"><a xlink:href="class_ogre_1_1_bsp_level.html" target="_top" xlink:title="Holds all the data associated with a Binary Space Parition (BSP) based indoor level.">
<polygon fill="none" stroke="black" points="394,-380.5 394,-399.5 484,-399.5 484,-380.5 394,-380.5"/>
<text text-anchor="middle" x="439" y="-387.5" font-family="Helvetica,sans-Serif" font-size="10.00">Ogre::BspLevel</text>
</a>
</g>
</g>
<!-- Node29&#45;&gt;Node30 -->
<g id="edge29" class="edge">
<title>Node29&#45;&gt;Node30</title>
<path fill="none" stroke="midnightblue" d="M252.79,-292.95C273.81,-314.45 313.1,-351.13 354,-371 366.37,-377.01 380.7,-381.16 393.98,-384"/>
<polygon fill="midnightblue" stroke="midnightblue" points="255.11,-290.31 245.67,-285.52 250.06,-295.16 255.11,-290.31"/>
</g>
<!-- Node31 -->
<g id="node31" class="node">
<title>Node31</title>
<g id="a_node31"><a xlink:href="class_ogre_1_1_compositor.html" target="_top" xlink:title="Class representing a Compositor object.">
<polygon fill="none" stroke="black" points="388,-342.5 388,-361.5 490,-361.5 490,-342.5 388,-342.5"/>
<text text-anchor="middle" x="439" y="-349.5" font-family="Helvetica,sans-Serif" font-size="10.00">Ogre::Compositor</text>
</a>
</g>
</g>
<!-- Node29&#45;&gt;Node31 -->
<g id="edge30" class="edge">
<title>Node29&#45;&gt;Node31</title>
<path fill="none" stroke="midnightblue" d="M262.37,-290.49C285.59,-303.23 321.21,-321.48 354,-333 364.72,-336.77 376.48,-339.97 387.71,-342.62"/>
<polygon fill="midnightblue" stroke="midnightblue" points="263.96,-287.37 253.52,-285.57 260.56,-293.49 263.96,-287.37"/>
</g>
<!-- Node32 -->
<g id="node32" class="node">
<title>Node32</title>
<g id="a_node32"><a xlink:href="class_ogre_1_1_font.html" target="_top" xlink:title="Class representing a font in the system.">
<polygon fill="none" stroke="black" points="405.5,-304.5 405.5,-323.5 472.5,-323.5 472.5,-304.5 405.5,-304.5"/>
<text text-anchor="middle" x="439" y="-311.5" font-family="Helvetica,sans-Serif" font-size="10.00">Ogre::Font</text>
</a>
</g>
</g>
<!-- Node29&#45;&gt;Node32 -->
<g id="edge31" class="edge">
<title>Node29&#45;&gt;Node32</title>
<path fill="none" stroke="midnightblue" d="M291.58,-286.32C327.99,-293.2 374.64,-302.02 405.38,-307.83"/>
<polygon fill="midnightblue" stroke="midnightblue" points="292.08,-282.85 281.61,-284.43 290.78,-289.73 292.08,-282.85"/>
</g>
<!-- Node33 -->
<g id="node33" class="node">
<title>Node33</title>
<g id="a_node33"><a xlink:href="class_ogre_1_1_gpu_program.html" target="_top" xlink:title="Defines a program which runs on the GPU such as a vertex or fragment program.">
<polygon fill="none" stroke="black" points="385.5,-266.5 385.5,-285.5 492.5,-285.5 492.5,-266.5 385.5,-266.5"/>
<text text-anchor="middle" x="439" y="-273.5" font-family="Helvetica,sans-Serif" font-size="10.00">Ogre::GpuProgram</text>
</a>
</g>
</g>
<!-- Node29&#45;&gt;Node33 -->
<g id="edge32" class="edge">
<title>Node29&#45;&gt;Node33</title>
<path fill="none" stroke="midnightblue" d="M291.62,-276C320.77,-276 356.48,-276 385.33,-276"/>
<polygon fill="midnightblue" stroke="midnightblue" points="291.61,-272.5 281.61,-276 291.61,-279.5 291.61,-272.5"/>
</g>
<!-- Node52 -->
<g id="node40" class="node">
<title>Node52</title>
<g id="a_node40"><a xlink:href="class_ogre_1_1_material.html" target="_top" xlink:title="Class encapsulates rendering properties of an object.">
<polygon fill="none" stroke="black" points="396,-228.5 396,-247.5 482,-247.5 482,-228.5 396,-228.5"/>
<text text-anchor="middle" x="439" y="-235.5" font-family="Helvetica,sans-Serif" font-size="10.00">Ogre::Material</text>
</a>
</g>
</g>
<!-- Node29&#45;&gt;Node52 -->
<g id="edge39" class="edge">
<title>Node29&#45;&gt;Node52</title>
<path fill="none" stroke="midnightblue" d="M291.52,-265.69C324.37,-259.48 365.59,-251.69 395.92,-245.96"/>
<polygon fill="midnightblue" stroke="midnightblue" points="290.78,-262.27 281.61,-267.57 292.08,-269.15 290.78,-262.27"/>
</g>
<!-- Node53 -->
<g id="node41" class="node">
<title>Node53</title>
<g id="a_node41"><a xlink:href="class_ogre_1_1_mesh.html" target="_top" xlink:title="Resource holding data about 3D mesh.">
<polygon fill="none" stroke="black" points="403,-190.5 403,-209.5 475,-209.5 475,-190.5 403,-190.5"/>
<text text-anchor="middle" x="439" y="-197.5" font-family="Helvetica,sans-Serif" font-size="10.00">Ogre::Mesh</text>
</a>
</g>
</g>
<!-- Node29&#45;&gt;Node53 -->
<g id="edge40" class="edge">
<title>Node29&#45;&gt;Node53</title>
<path fill="none" stroke="midnightblue" d="M262.37,-261.51C285.59,-248.77 321.21,-230.52 354,-219 369.66,-213.5 387.53,-209.2 402.75,-206.09"/>
<polygon fill="midnightblue" stroke="midnightblue" points="260.56,-258.51 253.52,-266.43 263.96,-264.63 260.56,-258.51"/>
</g>
<!-- Node55 -->
<g id="node43" class="node">
<title>Node55</title>
<g id="a_node43"><a xlink:href="class_ogre_1_1_skeleton.html" target="_top" xlink:title="A collection of Bone objects used to animate a skinned mesh.">
<polygon fill="none" stroke="black" points="395,-152.5 395,-171.5 483,-171.5 483,-152.5 395,-152.5"/>
<text text-anchor="middle" x="439" y="-159.5" font-family="Helvetica,sans-Serif" font-size="10.00">Ogre::Skeleton</text>
</a>
</g>
</g>
<!-- Node29&#45;&gt;Node55 -->
<g id="edge42" class="edge">
<title>Node29&#45;&gt;Node55</title>
<path fill="none" stroke="midnightblue" d="M252.79,-259.05C273.81,-237.55 313.1,-200.87 354,-181 366.64,-174.86 381.33,-170.67 394.85,-167.82"/>
<polygon fill="midnightblue" stroke="midnightblue" points="250.06,-256.84 245.67,-266.48 255.11,-261.69 250.06,-256.84"/>
</g>
<!-- Node57 -->
<g id="node45" class="node">
<title>Node57</title>
<g id="a_node45"><a xlink:href="class_ogre_1_1_texture.html" target="_top" xlink:title="Abstract class representing a Texture resource.">
<polygon fill="none" stroke="black" points="398,-76.5 398,-95.5 480,-95.5 480,-76.5 398,-76.5"/>
<text text-anchor="middle" x="439" y="-83.5" font-family="Helvetica,sans-Serif" font-size="10.00">Ogre::Texture</text>
</a>
</g>
</g>
<!-- Node29&#45;&gt;Node57 -->
<g id="edge44" class="edge">
<title>Node29&#45;&gt;Node57</title>
<path fill="none" stroke="midnightblue" d="M250.33,-258.14C270.83,-231.33 312.14,-179.92 354,-143 375.54,-124 403.71,-106.09 421.33,-95.58"/>
<polygon fill="midnightblue" stroke="midnightblue" points="247.45,-256.14 244.2,-266.23 253.03,-260.37 247.45,-256.14"/>
</g>
<!-- Node34 -->
<g id="node34" class="node">
<title>Node34</title>
<g id="a_node34"><a xlink:href="class_ogre_1_1_d3_d9_gpu_program.html" target="_top" xlink:title="Direct3D implementation of a few things common to low&#45;level vertex &amp; fragment programs.">
<polygon fill="none" stroke="black" points="570.5,-304.5 570.5,-323.5 704.5,-323.5 704.5,-304.5 570.5,-304.5"/>
<text text-anchor="middle" x="637.5" y="-311.5" font-family="Helvetica,sans-Serif" font-size="10.00">Ogre::D3D9GpuProgram</text>
</a>
</g>
</g>
<!-- Node33&#45;&gt;Node34 -->
<g id="edge33" class="edge">
<title>Node33&#45;&gt;Node34</title>
<path fill="none" stroke="midnightblue" d="M499.41,-287.49C527.45,-292.91 560.52,-299.31 587.15,-304.46"/>
<polygon fill="midnightblue" stroke="midnightblue" points="499.81,-284 489.33,-285.54 498.49,-290.88 499.81,-284"/>
</g>
<!-- Node37 -->
<g id="node37" class="node">
<title>Node37</title>
<g id="a_node37"><a xlink:href="class_ogre_1_1_g_l_gpu_program.html" target="_top" xlink:title="Generalised low&#45;level GL program, can be applied to multiple types (eg ARB and NV)">
<polygon fill="none" stroke="red" points="578,-266.5 578,-285.5 697,-285.5 697,-266.5 578,-266.5"/>
<text text-anchor="middle" x="637.5" y="-273.5" font-family="Helvetica,sans-Serif" font-size="10.00">Ogre::GLGpuProgram</text>
</a>
</g>
</g>
<!-- Node33&#45;&gt;Node37 -->
<g id="edge36" class="edge">
<title>Node33&#45;&gt;Node37</title>
<path fill="none" stroke="midnightblue" d="M502.75,-276C526.81,-276 554.14,-276 577.81,-276"/>
<polygon fill="midnightblue" stroke="midnightblue" points="502.66,-272.5 492.66,-276 502.66,-279.5 502.66,-272.5"/>
</g>
<!-- Node40 -->
<g id="node39" class="node">
<title>Node40</title>
<g id="a_node39"><a xlink:href="class_ogre_1_1_high_level_gpu_program.html" target="_top" xlink:title="Abstract base class representing a high&#45;level program (a vertex or fragment program).">
<polygon fill="none" stroke="red" points="560,-228.5 560,-247.5 715,-247.5 715,-228.5 560,-228.5"/>
<text text-anchor="middle" x="637.5" y="-235.5" font-family="Helvetica,sans-Serif" font-size="10.00">Ogre::HighLevelGpuProgram</text>
</a>
</g>
</g>
<!-- Node33&#45;&gt;Node40 -->
<g id="edge38" class="edge">
<title>Node33&#45;&gt;Node40</title>
<path fill="none" stroke="midnightblue" d="M499.41,-264.51C527.45,-259.09 560.52,-252.69 587.15,-247.54"/>
<polygon fill="midnightblue" stroke="midnightblue" points="498.49,-261.12 489.33,-266.46 499.81,-268 498.49,-261.12"/>
</g>
<!-- Node35 -->
<g id="node35" class="node">
<title>Node35</title>
<g id="a_node35"><a xlink:href="class_ogre_1_1_d3_d9_gpu_fragment_program.html" target="_top" xlink:title="Direct3D implementation of low&#45;level fragment programs.">
<polygon fill="none" stroke="black" points="751,-342.5 751,-361.5 931,-361.5 931,-342.5 751,-342.5"/>
<text text-anchor="middle" x="841" y="-349.5" font-family="Helvetica,sans-Serif" font-size="10.00">Ogre::D3D9GpuFragmentProgram</text>
</a>
</g>
</g>
<!-- Node34&#45;&gt;Node35 -->
<g id="edge34" class="edge">
<title>Node34&#45;&gt;Node35</title>
<path fill="none" stroke="midnightblue" d="M699.05,-325.42C727.88,-330.86 761.96,-337.28 789.39,-342.46"/>
<polygon fill="midnightblue" stroke="midnightblue" points="699.56,-321.95 689.09,-323.54 698.27,-328.83 699.56,-321.95"/>
</g>
<!-- Node36 -->
<g id="node36" class="node">
<title>Node36</title>
<g id="a_node36"><a xlink:href="class_ogre_1_1_d3_d9_gpu_vertex_program.html" target="_top" xlink:title="Direct3D implementation of low&#45;level vertex programs.">
<polygon fill="none" stroke="black" points="758,-304.5 758,-323.5 924,-323.5 924,-304.5 758,-304.5"/>
<text text-anchor="middle" x="841" y="-311.5" font-family="Helvetica,sans-Serif" font-size="10.00">Ogre::D3D9GpuVertexProgram</text>
</a>
</g>
</g>
<!-- Node34&#45;&gt;Node36 -->
<g id="edge35" class="edge">
<title>Node34&#45;&gt;Node36</title>
<path fill="none" stroke="midnightblue" d="M714.86,-314C728.92,-314 743.65,-314 757.87,-314"/>
<polygon fill="midnightblue" stroke="midnightblue" points="714.76,-310.5 704.76,-314 714.76,-317.5 714.76,-310.5"/>
</g>
<!-- Node38 -->
<g id="node38" class="node">
<title>Node38</title>
<g id="a_node38"><a xlink:href="class_ogre_1_1_g_l_arb_gpu_program.html" target="_top" xlink:title="Specialisation of the GL low&#45;level program for ARB programs.">
<polygon fill="none" stroke="black" points="772.5,-266.5 772.5,-285.5 909.5,-285.5 909.5,-266.5 772.5,-266.5"/>
<text text-anchor="middle" x="841" y="-273.5" font-family="Helvetica,sans-Serif" font-size="10.00">Ogre::GLArbGpuProgram</text>
</a>
</g>
</g>
<!-- Node37&#45;&gt;Node38 -->
<g id="edge37" class="edge">
<title>Node37&#45;&gt;Node38</title>
<path fill="none" stroke="midnightblue" d="M707.21,-276C728.28,-276 751.43,-276 772.42,-276"/>
<polygon fill="midnightblue" stroke="midnightblue" points="707.05,-272.5 697.05,-276 707.05,-279.5 707.05,-272.5"/>
</g>
<!-- Node54 -->
<g id="node42" class="node">
<title>Node54</title>
<g id="a_node42"><a xlink:href="class_ogre_1_1_patch_mesh.html" target="_top" xlink:title="Patch specialisation of Mesh.">
<polygon fill="none" stroke="black" points="588,-190.5 588,-209.5 687,-209.5 687,-190.5 588,-190.5"/>
<text text-anchor="middle" x="637.5" y="-197.5" font-family="Helvetica,sans-Serif" font-size="10.00">Ogre::PatchMesh</text>
</a>
</g>
</g>
<!-- Node53&#45;&gt;Node54 -->
<g id="edge41" class="edge">
<title>Node53&#45;&gt;Node54</title>
<path fill="none" stroke="midnightblue" d="M485.52,-200C516.11,-200 556.39,-200 587.65,-200"/>
<polygon fill="midnightblue" stroke="midnightblue" points="485.13,-196.5 475.13,-200 485.13,-203.5 485.13,-196.5"/>
</g>
<!-- Node56 -->
<g id="node44" class="node">
<title>Node56</title>
<g id="a_node44"><a xlink:href="class_ogre_1_1_skeleton_instance.html" target="_top" xlink:title="A SkeletonInstance is a single instance of a Skeleton used by a world object.">
<polygon fill="none" stroke="black" points="573,-152.5 573,-171.5 702,-171.5 702,-152.5 573,-152.5"/>
<text text-anchor="middle" x="637.5" y="-159.5" font-family="Helvetica,sans-Serif" font-size="10.00">Ogre::SkeletonInstance</text>
</a>
</g>
</g>
<!-- Node55&#45;&gt;Node56 -->
<g id="edge43" class="edge">
<title>Node55&#45;&gt;Node56</title>
<path fill="none" stroke="midnightblue" d="M493.34,-162C517.9,-162 547.25,-162 572.95,-162"/>
<polygon fill="midnightblue" stroke="midnightblue" points="493.12,-158.5 483.12,-162 493.12,-165.5 493.12,-158.5"/>
</g>
<!-- Node58 -->
<g id="node46" class="node">
<title>Node58</title>
<g id="a_node46"><a xlink:href="class_ogre_1_1_d3_d11_texture.html" target="_top" xlink:title="Specialisation of Texture for D3D11.">
<polygon fill="none" stroke="black" points="580,-114.5 580,-133.5 695,-133.5 695,-114.5 580,-114.5"/>
<text text-anchor="middle" x="637.5" y="-121.5" font-family="Helvetica,sans-Serif" font-size="10.00">Ogre::D3D11Texture</text>
</a>
</g>
</g>
<!-- Node57&#45;&gt;Node58 -->
<g id="edge45" class="edge">
<title>Node57&#45;&gt;Node58</title>
<path fill="none" stroke="midnightblue" d="M490.42,-95.75C520.19,-101.51 557.7,-108.76 587.26,-114.48"/>
<polygon fill="midnightblue" stroke="midnightblue" points="490.72,-92.24 480.24,-93.78 489.39,-99.12 490.72,-92.24"/>
</g>
<!-- Node59 -->
<g id="node47" class="node">
<title>Node59</title>
<g id="a_node47"><a xlink:href="class_ogre_1_1_d3_d9_texture.html" target="_top" xlink:title=" ">
<polygon fill="none" stroke="black" points="583,-76.5 583,-95.5 692,-95.5 692,-76.5 583,-76.5"/>
<text text-anchor="middle" x="637.5" y="-83.5" font-family="Helvetica,sans-Serif" font-size="10.00">Ogre::D3D9Texture</text>
</a>
</g>
</g>
<!-- Node57&#45;&gt;Node59 -->
<g id="edge46" class="edge">
<title>Node57&#45;&gt;Node59</title>
<path fill="none" stroke="midnightblue" d="M490.33,-86C518.67,-86 554.04,-86 582.89,-86"/>
<polygon fill="midnightblue" stroke="midnightblue" points="490.24,-82.5 480.24,-86 490.24,-89.5 490.24,-82.5"/>
</g>
<!-- Node60 -->
<g id="node48" class="node">
<title>Node60</title>
<g id="a_node48"><a xlink:href="class_ogre_1_1_g_l_texture_common.html" target="_top" xlink:title=" ">
<polygon fill="none" stroke="red" points="568.5,-38.5 568.5,-57.5 706.5,-57.5 706.5,-38.5 568.5,-38.5"/>
<text text-anchor="middle" x="637.5" y="-45.5" font-family="Helvetica,sans-Serif" font-size="10.00">Ogre::GLTextureCommon</text>
</a>
</g>
</g>
<!-- Node57&#45;&gt;Node60 -->
<g id="edge47" class="edge">
<title>Node57&#45;&gt;Node60</title>
<path fill="none" stroke="midnightblue" d="M490.42,-76.25C520.19,-70.49 557.7,-63.24 587.26,-57.52"/>
<polygon fill="midnightblue" stroke="midnightblue" points="489.39,-72.88 480.24,-78.22 490.72,-79.76 489.39,-72.88"/>
</g>
<!-- Node64 -->
<g id="node49" class="node">
<title>Node64</title>
<g id="a_node49"><a xlink:href="class_ogre_1_1_metal_texture.html" target="_top" xlink:title=" ">
<polygon fill="none" stroke="red" points="582.5,-0.5 582.5,-19.5 692.5,-19.5 692.5,-0.5 582.5,-0.5"/>
<text text-anchor="middle" x="637.5" y="-7.5" font-family="Helvetica,sans-Serif" font-size="10.00">Ogre::MetalTexture</text>
</a>
</g>
</g>
<!-- Node57&#45;&gt;Node64 -->
<g id="edge48" class="edge">
<title>Node57&#45;&gt;Node64</title>
<path fill="none" stroke="midnightblue" d="M466.54,-71.5C490.43,-58.91 526.79,-40.88 560,-29 570.05,-25.41 581.08,-22.24 591.56,-19.57"/>
<polygon fill="midnightblue" stroke="midnightblue" points="464.6,-68.57 457.42,-76.36 467.89,-74.75 464.6,-68.57"/>
</g>
</g>
</svg>
