<?xml version="1.0" encoding="UTF-8" standalone="no"?>
<!DOCTYPE svg PUBLIC "-//W3C//DTD SVG 1.1//EN"
 "http://www.w3.org/Graphics/SVG/1.1/DTD/svg11.dtd">
<!-- Generated by graphviz version 2.43.0 (0)
 -->
<!-- Title: Ogre::ParticleSystemRendererFactory Pages: 1 -->
<svg width="226pt" height="173pt"
 viewBox="0.00 0.00 225.50 173.00" xmlns="http://www.w3.org/2000/svg" xmlns:xlink="http://www.w3.org/1999/xlink">
<g id="graph0" class="graph" transform="scale(1 1) rotate(0) translate(4 169)">
<title>Ogre::ParticleSystemRendererFactory</title>
<!-- Node1 -->
<g id="node1" class="node">
<title>Node1</title>
<g id="a_node1"><a xlink:title="Abstract class definition of a factory object for ParticleSystemRenderer.">
<polygon fill="#bfbfbf" stroke="black" points="50,-67.5 50,-97.5 214,-97.5 214,-67.5 50,-67.5"/>
<text text-anchor="start" x="58" y="-85.5" font-family="Helvetica,sans-Serif" font-size="10.00">Ogre::ParticleSystemRenderer</text>
<text text-anchor="middle" x="132" y="-74.5" font-family="Helvetica,sans-Serif" font-size="10.00">Factory</text>
</a>
</g>
</g>
<!-- Node4 -->
<g id="node4" class="node">
<title>Node4</title>
<g id="a_node4"><a xlink:href="class_ogre_1_1_billboard_particle_renderer_factory.html" target="_top" xlink:title="Factory class for BillboardParticleRenderer.">
<polygon fill="none" stroke="black" points="47,-0.5 47,-30.5 217,-30.5 217,-0.5 47,-0.5"/>
<text text-anchor="start" x="55" y="-18.5" font-family="Helvetica,sans-Serif" font-size="10.00">Ogre::BillboardParticleRenderer</text>
<text text-anchor="middle" x="132" y="-7.5" font-family="Helvetica,sans-Serif" font-size="10.00">Factory</text>
</a>
</g>
</g>
<!-- Node1&#45;&gt;Node4 -->
<g id="edge3" class="edge">
<title>Node1&#45;&gt;Node4</title>
<path fill="none" stroke="midnightblue" d="M132,-57.11C132,-48.15 132,-38.32 132,-30.58"/>
<polygon fill="midnightblue" stroke="midnightblue" points="128.5,-57.4 132,-67.4 135.5,-57.4 128.5,-57.4"/>
</g>
<!-- Node2 -->
<g id="node2" class="node">
<title>Node2</title>
<g id="a_node2"><a xlink:href="class_ogre_1_1_factory_obj.html" target="_top" xlink:title=" ">
<polygon fill="none" stroke="black" points="0,-134.5 0,-164.5 146,-164.5 146,-134.5 0,-134.5"/>
<text text-anchor="start" x="8" y="-152.5" font-family="Helvetica,sans-Serif" font-size="10.00">Ogre::FactoryObj&lt; Particle</text>
<text text-anchor="middle" x="73" y="-141.5" font-family="Helvetica,sans-Serif" font-size="10.00">SystemRenderer &gt;</text>
</a>
</g>
</g>
<!-- Node2&#45;&gt;Node1 -->
<g id="edge1" class="edge">
<title>Node2&#45;&gt;Node1</title>
<path fill="none" stroke="midnightblue" d="M92.75,-126.74C101.48,-117.12 111.5,-106.09 119.22,-97.58"/>
<polygon fill="midnightblue" stroke="midnightblue" points="89.93,-124.64 85.8,-134.4 95.11,-129.34 89.93,-124.64"/>
</g>
<!-- Node3 -->
<g id="node3" class="node">
<title>Node3</title>
<g id="a_node3"><a xlink:title=" ">
<polygon fill="none" stroke="#bfbfbf" points="164.5,-140 164.5,-159 217.5,-159 217.5,-140 164.5,-140"/>
<text text-anchor="middle" x="191" y="-147" font-family="Helvetica,sans-Serif" font-size="10.00">FXAlloc</text>
</a>
</g>
</g>
<!-- Node3&#45;&gt;Node1 -->
<g id="edge2" class="edge">
<title>Node3&#45;&gt;Node1</title>
<path fill="none" stroke="midnightblue" d="M176.3,-132.3C166.61,-121.63 154.06,-107.8 144.79,-97.59"/>
<polygon fill="midnightblue" stroke="midnightblue" points="173.73,-134.68 183.04,-139.73 178.91,-129.98 173.73,-134.68"/>
</g>
</g>
</svg>
