<?xml version="1.0" encoding="UTF-8" standalone="no"?>
<!DOCTYPE svg PUBLIC "-//W3C//DTD SVG 1.1//EN"
 "http://www.w3.org/Graphics/SVG/1.1/DTD/svg11.dtd">
<!-- Generated by graphviz version 2.43.0 (0)
 -->
<!-- Title: Ogre::ScriptLoader Pages: 1 -->
<svg width="721pt" height="449pt"
 viewBox="0.00 0.00 721.00 449.00" xmlns="http://www.w3.org/2000/svg" xmlns:xlink="http://www.w3.org/1999/xlink">
<g id="graph0" class="graph" transform="scale(1 1) rotate(0) translate(4 445)">
<title>Ogre::ScriptLoader</title>
<!-- Node1 -->
<g id="node1" class="node">
<title>Node1</title>
<g id="a_node1"><a xlink:title="Abstract class defining the interface used by classes which wish to perform script loading to define ...">
<polygon fill="#bfbfbf" stroke="black" points="0,-326.5 0,-345.5 107,-345.5 107,-326.5 0,-326.5"/>
<text text-anchor="middle" x="53.5" y="-333.5" font-family="Helvetica,sans-Serif" font-size="10.00">Ogre::ScriptLoader</text>
</a>
</g>
</g>
<!-- Node2 -->
<g id="node2" class="node">
<title>Node2</title>
<g id="a_node2"><a xlink:href="class_ogre_1_1_cg_fx_script_loader.html" target="_top" xlink:title="Manages Overlay objects, parsing them from .overlay files and storing a lookup library of them.">
<polygon fill="none" stroke="black" points="158.5,-421.5 158.5,-440.5 289.5,-440.5 289.5,-421.5 158.5,-421.5"/>
<text text-anchor="middle" x="224" y="-428.5" font-family="Helvetica,sans-Serif" font-size="10.00">Ogre::CgFxScriptLoader</text>
</a>
</g>
</g>
<!-- Node1&#45;&gt;Node2 -->
<g id="edge1" class="edge">
<title>Node1&#45;&gt;Node2</title>
<path fill="none" stroke="midnightblue" d="M69.84,-353.33C86.24,-370.77 113.85,-397.14 143,-412 150.63,-415.89 159.08,-419 167.54,-421.48"/>
<polygon fill="midnightblue" stroke="midnightblue" points="72.07,-350.58 62.74,-345.58 66.91,-355.31 72.07,-350.58"/>
</g>
<!-- Node3 -->
<g id="node3" class="node">
<title>Node3</title>
<g id="a_node3"><a xlink:href="class_ogre_1_1_overlay_manager.html" target="_top" xlink:title="Manages Overlay objects, parsing them from .overlay files and storing a lookup library of them.">
<polygon fill="none" stroke="black" points="160.5,-383.5 160.5,-402.5 287.5,-402.5 287.5,-383.5 160.5,-383.5"/>
<text text-anchor="middle" x="224" y="-390.5" font-family="Helvetica,sans-Serif" font-size="10.00">Ogre::OverlayManager</text>
</a>
</g>
</g>
<!-- Node1&#45;&gt;Node3 -->
<g id="edge2" class="edge">
<title>Node1&#45;&gt;Node3</title>
<path fill="none" stroke="midnightblue" d="M83.55,-349.98C100.59,-357.8 122.7,-367.29 143,-374 153.84,-377.59 165.72,-380.79 176.93,-383.49"/>
<polygon fill="midnightblue" stroke="midnightblue" points="84.7,-346.65 74.15,-345.6 81.74,-353 84.7,-346.65"/>
</g>
<!-- Node4 -->
<g id="node4" class="node">
<title>Node4</title>
<g id="a_node4"><a xlink:href="class_ogre_1_1_particle_system_manager.html" target="_top" xlink:title="Manages particle systems, particle system scripts (templates) and the available emitter &amp; affector fa...">
<polygon fill="none" stroke="black" points="143,-345.5 143,-364.5 305,-364.5 305,-345.5 143,-345.5"/>
<text text-anchor="middle" x="224" y="-352.5" font-family="Helvetica,sans-Serif" font-size="10.00">Ogre::ParticleSystemManager</text>
</a>
</g>
</g>
<!-- Node1&#45;&gt;Node4 -->
<g id="edge3" class="edge">
<title>Node1&#45;&gt;Node4</title>
<path fill="none" stroke="midnightblue" d="M117.34,-343.09C125.67,-344.03 134.3,-345 142.87,-345.96"/>
<polygon fill="midnightblue" stroke="midnightblue" points="117.68,-339.6 107.35,-341.96 116.9,-346.56 117.68,-339.6"/>
</g>
<!-- Node5 -->
<g id="node5" class="node">
<title>Node5</title>
<g id="a_node5"><a xlink:href="class_ogre_1_1_quake3_shader_manager.html" target="_top" xlink:title="Class for managing Quake3 custom shaders.">
<polygon fill="none" stroke="black" points="144.5,-307.5 144.5,-326.5 303.5,-326.5 303.5,-307.5 144.5,-307.5"/>
<text text-anchor="middle" x="224" y="-314.5" font-family="Helvetica,sans-Serif" font-size="10.00">Ogre::Quake3ShaderManager</text>
</a>
</g>
</g>
<!-- Node1&#45;&gt;Node5 -->
<g id="edge4" class="edge">
<title>Node1&#45;&gt;Node5</title>
<path fill="none" stroke="midnightblue" d="M117.49,-328.9C126.27,-327.91 135.39,-326.88 144.42,-325.86"/>
<polygon fill="midnightblue" stroke="midnightblue" points="116.9,-325.44 107.35,-330.04 117.68,-332.4 116.9,-325.44"/>
</g>
<!-- Node6 -->
<g id="node6" class="node">
<title>Node6</title>
<g id="a_node6"><a xlink:href="class_ogre_1_1_resource_manager.html" target="_top" xlink:title="Defines a generic resource handler.">
<polygon fill="none" stroke="black" points="157,-269.5 157,-288.5 291,-288.5 291,-269.5 157,-269.5"/>
<text text-anchor="middle" x="224" y="-276.5" font-family="Helvetica,sans-Serif" font-size="10.00">Ogre::ResourceManager</text>
</a>
</g>
</g>
<!-- Node1&#45;&gt;Node6 -->
<g id="edge5" class="edge">
<title>Node1&#45;&gt;Node6</title>
<path fill="none" stroke="midnightblue" d="M83.55,-322.02C100.59,-314.2 122.7,-304.71 143,-298 153.84,-294.41 165.72,-291.21 176.93,-288.51"/>
<polygon fill="midnightblue" stroke="midnightblue" points="81.74,-319 74.15,-326.4 84.7,-325.35 81.74,-319"/>
</g>
<!-- Node25 -->
<g id="node25" class="node">
<title>Node25</title>
<g id="a_node25"><a xlink:href="class_ogre_1_1_script_compiler_manager.html" target="_top" xlink:title="Manages threaded compilation of scripts.">
<polygon fill="none" stroke="black" points="143.5,-231.5 143.5,-250.5 304.5,-250.5 304.5,-231.5 143.5,-231.5"/>
<text text-anchor="middle" x="224" y="-238.5" font-family="Helvetica,sans-Serif" font-size="10.00">Ogre::ScriptCompilerManager</text>
</a>
</g>
</g>
<!-- Node1&#45;&gt;Node25 -->
<g id="edge24" class="edge">
<title>Node1&#45;&gt;Node25</title>
<path fill="none" stroke="midnightblue" d="M69.84,-318.67C86.24,-301.23 113.85,-274.86 143,-260 150.63,-256.11 159.08,-253 167.54,-250.52"/>
<polygon fill="midnightblue" stroke="midnightblue" points="66.91,-316.69 62.74,-326.42 72.07,-321.42 66.91,-316.69"/>
</g>
<!-- Node7 -->
<g id="node7" class="node">
<title>Node7</title>
<g id="a_node7"><a xlink:href="class_ogre_1_1_compositor_manager.html" target="_top" xlink:title="Class for managing Compositor settings for Ogre.">
<polygon fill="none" stroke="black" points="346,-411.5 346,-430.5 491,-430.5 491,-411.5 346,-411.5"/>
<text text-anchor="middle" x="418.5" y="-418.5" font-family="Helvetica,sans-Serif" font-size="10.00">Ogre::CompositorManager</text>
</a>
</g>
</g>
<!-- Node6&#45;&gt;Node7 -->
<g id="edge6" class="edge">
<title>Node6&#45;&gt;Node7</title>
<path fill="none" stroke="midnightblue" d="M299.55,-293.69C301.46,-295.01 303.28,-296.44 305,-298 341.27,-330.81 304.9,-369 341,-402 345.24,-405.88 350.15,-408.99 355.4,-411.5"/>
<polygon fill="midnightblue" stroke="midnightblue" points="301.12,-290.55 290.71,-288.57 297.61,-296.61 301.12,-290.55"/>
</g>
<!-- Node8 -->
<g id="node8" class="node">
<title>Node8</title>
<g id="a_node8"><a xlink:href="class_ogre_1_1_font_manager.html" target="_top" xlink:title="Manages Font resources, parsing .fontdef files and generally organising them.">
<polygon fill="none" stroke="black" points="363.5,-373.5 363.5,-392.5 473.5,-392.5 473.5,-373.5 363.5,-373.5"/>
<text text-anchor="middle" x="418.5" y="-380.5" font-family="Helvetica,sans-Serif" font-size="10.00">Ogre::FontManager</text>
</a>
</g>
</g>
<!-- Node6&#45;&gt;Node8 -->
<g id="edge7" class="edge">
<title>Node6&#45;&gt;Node8</title>
<path fill="none" stroke="midnightblue" d="M297.59,-293.12C300.18,-294.59 302.66,-296.21 305,-298 331.55,-318.28 314.55,-343.58 341,-364 347.61,-369.1 355.41,-372.85 363.46,-375.6"/>
<polygon fill="midnightblue" stroke="midnightblue" points="298.98,-289.9 288.45,-288.66 295.91,-296.19 298.98,-289.9"/>
</g>
<!-- Node9 -->
<g id="node9" class="node">
<title>Node9</title>
<g id="a_node9"><a xlink:href="class_ogre_1_1_gpu_program_manager.html" target="_top" xlink:title=" ">
<polygon fill="none" stroke="black" points="344,-335.5 344,-354.5 493,-354.5 493,-335.5 344,-335.5"/>
<text text-anchor="middle" x="418.5" y="-342.5" font-family="Helvetica,sans-Serif" font-size="10.00">Ogre::GpuProgramManager</text>
</a>
</g>
</g>
<!-- Node6&#45;&gt;Node9 -->
<g id="edge8" class="edge">
<title>Node6&#45;&gt;Node9</title>
<path fill="none" stroke="midnightblue" d="M289.28,-291.66C294.7,-293.51 300.01,-295.61 305,-298 323.28,-306.76 322.77,-317.14 341,-326 348.88,-329.83 357.6,-332.93 366.25,-335.43"/>
<polygon fill="midnightblue" stroke="midnightblue" points="290.03,-288.23 279.45,-288.6 287.96,-294.91 290.03,-288.23"/>
</g>
<!-- Node12 -->
<g id="node12" class="node">
<title>Node12</title>
<g id="a_node12"><a xlink:href="class_ogre_1_1_high_level_gpu_program_manager.html" target="_top" xlink:title="This ResourceManager manages high&#45;level vertex and fragment programs.">
<polygon fill="none" stroke="black" points="341,-286 341,-316 496,-316 496,-286 341,-286"/>
<text text-anchor="start" x="349" y="-304" font-family="Helvetica,sans-Serif" font-size="10.00">Ogre::HighLevelGpuProgram</text>
<text text-anchor="middle" x="418.5" y="-293" font-family="Helvetica,sans-Serif" font-size="10.00">Manager</text>
</a>
</g>
</g>
<!-- Node6&#45;&gt;Node12 -->
<g id="edge11" class="edge">
<title>Node6&#45;&gt;Node12</title>
<path fill="none" stroke="midnightblue" d="M301.51,-287.74C314.46,-289.22 327.91,-290.76 340.87,-292.24"/>
<polygon fill="midnightblue" stroke="midnightblue" points="301.58,-284.23 291.25,-286.57 300.79,-291.18 301.58,-284.23"/>
</g>
<!-- Node13 -->
<g id="node13" class="node">
<title>Node13</title>
<g id="a_node13"><a xlink:href="class_ogre_1_1_material_manager.html" target="_top" xlink:title="Class for managing Material settings for Ogre.">
<polygon fill="none" stroke="black" points="354,-247.5 354,-266.5 483,-266.5 483,-247.5 354,-247.5"/>
<text text-anchor="middle" x="418.5" y="-254.5" font-family="Helvetica,sans-Serif" font-size="10.00">Ogre::MaterialManager</text>
</a>
</g>
</g>
<!-- Node6&#45;&gt;Node13 -->
<g id="edge12" class="edge">
<title>Node6&#45;&gt;Node13</title>
<path fill="none" stroke="midnightblue" d="M301.34,-270.27C318.7,-268.29 336.96,-266.2 353.73,-264.29"/>
<polygon fill="midnightblue" stroke="midnightblue" points="300.79,-266.82 291.25,-271.43 301.58,-273.77 300.79,-266.82"/>
</g>
<!-- Node14 -->
<g id="node14" class="node">
<title>Node14</title>
<g id="a_node14"><a xlink:href="class_ogre_1_1_mesh_manager.html" target="_top" xlink:title="Handles the management of mesh resources.">
<polygon fill="none" stroke="black" points="361,-209.5 361,-228.5 476,-228.5 476,-209.5 361,-209.5"/>
<text text-anchor="middle" x="418.5" y="-216.5" font-family="Helvetica,sans-Serif" font-size="10.00">Ogre::MeshManager</text>
</a>
</g>
</g>
<!-- Node6&#45;&gt;Node14 -->
<g id="edge13" class="edge">
<title>Node6&#45;&gt;Node14</title>
<path fill="none" stroke="midnightblue" d="M285.77,-266.72C292.36,-264.75 298.88,-262.52 305,-260 322.34,-252.86 323.7,-245.23 341,-238 349.96,-234.25 359.84,-231.12 369.43,-228.55"/>
<polygon fill="midnightblue" stroke="midnightblue" points="284.81,-263.35 276.12,-269.4 286.69,-270.09 284.81,-263.35"/>
</g>
<!-- Node15 -->
<g id="node15" class="node">
<title>Node15</title>
<g id="a_node15"><a xlink:href="class_ogre_1_1_skeleton_manager.html" target="_top" xlink:title="Handles the management of skeleton resources.">
<polygon fill="none" stroke="black" points="353,-171.5 353,-190.5 484,-190.5 484,-171.5 353,-171.5"/>
<text text-anchor="middle" x="418.5" y="-178.5" font-family="Helvetica,sans-Serif" font-size="10.00">Ogre::SkeletonManager</text>
</a>
</g>
</g>
<!-- Node6&#45;&gt;Node15 -->
<g id="edge14" class="edge">
<title>Node6&#45;&gt;Node15</title>
<path fill="none" stroke="midnightblue" d="M296.59,-265.25C299.53,-263.68 302.35,-261.94 305,-260 330.1,-241.63 316,-218.49 341,-200 346.28,-196.09 352.27,-192.98 358.52,-190.51"/>
<polygon fill="midnightblue" stroke="midnightblue" points="295.1,-262.09 287.48,-269.45 298.03,-268.44 295.1,-262.09"/>
</g>
<!-- Node16 -->
<g id="node16" class="node">
<title>Node16</title>
<g id="a_node16"><a xlink:href="class_ogre_1_1_texture_manager.html" target="_top" xlink:title="Class for loading &amp; managing textures.">
<polygon fill="none" stroke="black" points="356,-133.5 356,-152.5 481,-152.5 481,-133.5 356,-133.5"/>
<text text-anchor="middle" x="418.5" y="-140.5" font-family="Helvetica,sans-Serif" font-size="10.00">Ogre::TextureManager</text>
</a>
</g>
</g>
<!-- Node6&#45;&gt;Node16 -->
<g id="edge15" class="edge">
<title>Node6&#45;&gt;Node16</title>
<path fill="none" stroke="midnightblue" d="M299.51,-264.27C301.43,-262.96 303.27,-261.54 305,-260 339.7,-229.2 306.46,-192.98 341,-162 345.38,-158.07 350.45,-154.93 355.85,-152.41"/>
<polygon fill="midnightblue" stroke="midnightblue" points="297.58,-261.34 290.63,-269.34 301.05,-267.42 297.58,-261.34"/>
</g>
<!-- Node10 -->
<g id="node10" class="node">
<title>Node10</title>
<g id="a_node10"><a xlink:href="class_ogre_1_1_d3_d9_gpu_program_manager.html" target="_top" xlink:title=" ">
<polygon fill="none" stroke="black" points="534.5,-358.5 534.5,-377.5 710.5,-377.5 710.5,-358.5 534.5,-358.5"/>
<text text-anchor="middle" x="622.5" y="-365.5" font-family="Helvetica,sans-Serif" font-size="10.00">Ogre::D3D9GpuProgramManager</text>
</a>
</g>
</g>
<!-- Node9&#45;&gt;Node10 -->
<g id="edge9" class="edge">
<title>Node9&#45;&gt;Node10</title>
<path fill="none" stroke="midnightblue" d="M503.28,-354.54C514.75,-355.85 526.53,-357.19 538.01,-358.49"/>
<polygon fill="midnightblue" stroke="midnightblue" points="503.62,-351.06 493.28,-353.4 502.82,-358.01 503.62,-351.06"/>
</g>
<!-- Node11 -->
<g id="node11" class="node">
<title>Node11</title>
<g id="a_node11"><a xlink:href="class_ogre_1_1_g_l_gpu_program_manager.html" target="_top" xlink:title=" ">
<polygon fill="none" stroke="black" points="541.5,-320.5 541.5,-339.5 703.5,-339.5 703.5,-320.5 541.5,-320.5"/>
<text text-anchor="middle" x="622.5" y="-327.5" font-family="Helvetica,sans-Serif" font-size="10.00">Ogre::GLGpuProgramManager</text>
</a>
</g>
</g>
<!-- Node9&#45;&gt;Node11 -->
<g id="edge10" class="edge">
<title>Node9&#45;&gt;Node11</title>
<path fill="none" stroke="midnightblue" d="M503.31,-338.78C515.92,-337.84 528.91,-336.88 541.45,-335.94"/>
<polygon fill="midnightblue" stroke="midnightblue" points="503,-335.29 493.28,-339.52 503.52,-342.27 503,-335.29"/>
</g>
<!-- Node17 -->
<g id="node17" class="node">
<title>Node17</title>
<g id="a_node17"><a xlink:href="class_ogre_1_1_d3_d11_texture_manager.html" target="_top" xlink:title=" ">
<polygon fill="none" stroke="black" points="543.5,-266.5 543.5,-285.5 701.5,-285.5 701.5,-266.5 543.5,-266.5"/>
<text text-anchor="middle" x="622.5" y="-273.5" font-family="Helvetica,sans-Serif" font-size="10.00">Ogre::D3D11TextureManager</text>
</a>
</g>
</g>
<!-- Node16&#45;&gt;Node17 -->
<g id="edge16" class="edge">
<title>Node16&#45;&gt;Node17</title>
<path fill="none" stroke="midnightblue" d="M489.86,-157.31C492.02,-158.73 494.07,-160.29 496,-162 529.77,-191.98 497.73,-227.61 532,-257 536.46,-260.83 541.5,-263.94 546.86,-266.48"/>
<polygon fill="midnightblue" stroke="midnightblue" points="491.55,-154.24 481.11,-152.46 488.16,-160.37 491.55,-154.24"/>
</g>
<!-- Node18 -->
<g id="node18" class="node">
<title>Node18</title>
<g id="a_node18"><a xlink:href="class_ogre_1_1_d3_d9_texture_manager.html" target="_top" xlink:title=" ">
<polygon fill="none" stroke="black" points="546.5,-228.5 546.5,-247.5 698.5,-247.5 698.5,-228.5 546.5,-228.5"/>
<text text-anchor="middle" x="622.5" y="-235.5" font-family="Helvetica,sans-Serif" font-size="10.00">Ogre::D3D9TextureManager</text>
</a>
</g>
</g>
<!-- Node16&#45;&gt;Node18 -->
<g id="edge17" class="edge">
<title>Node16&#45;&gt;Node18</title>
<path fill="none" stroke="midnightblue" d="M487.55,-156.79C490.5,-158.35 493.34,-160.08 496,-162 520.29,-179.54 507.41,-201.88 532,-219 537.47,-222.81 543.56,-225.89 549.91,-228.36"/>
<polygon fill="midnightblue" stroke="midnightblue" points="488.95,-153.58 478.39,-152.63 486.05,-159.96 488.95,-153.58"/>
</g>
<!-- Node19 -->
<g id="node19" class="node">
<title>Node19</title>
<g id="a_node19"><a xlink:href="class_ogre_1_1_default_texture_manager.html" target="_top" xlink:title="Specialisation of TextureManager for offline processing. Cannot be used with an active RenderSystem.">
<polygon fill="none" stroke="black" points="542,-190.5 542,-209.5 703,-209.5 703,-190.5 542,-190.5"/>
<text text-anchor="middle" x="622.5" y="-197.5" font-family="Helvetica,sans-Serif" font-size="10.00">Ogre::DefaultTextureManager</text>
</a>
</g>
</g>
<!-- Node16&#45;&gt;Node19 -->
<g id="edge18" class="edge">
<title>Node16&#45;&gt;Node19</title>
<path fill="none" stroke="midnightblue" d="M475.81,-155.32C482.69,-157.31 489.56,-159.54 496,-162 512.9,-168.45 514.99,-174.84 532,-181 542.45,-184.79 553.88,-187.92 564.97,-190.48"/>
<polygon fill="midnightblue" stroke="midnightblue" points="476.34,-151.84 465.77,-152.58 474.49,-158.59 476.34,-151.84"/>
</g>
<!-- Node20 -->
<g id="node20" class="node">
<title>Node20</title>
<g id="a_node20"><a xlink:href="class_ogre_1_1_g_l3_plus_texture_manager.html" target="_top" xlink:title="GL3Plus&#45;specific implementation of a TextureManager.">
<polygon fill="none" stroke="black" points="540.5,-152.5 540.5,-171.5 704.5,-171.5 704.5,-152.5 540.5,-152.5"/>
<text text-anchor="middle" x="622.5" y="-159.5" font-family="Helvetica,sans-Serif" font-size="10.00">Ogre::GL3PlusTextureManager</text>
</a>
</g>
</g>
<!-- Node16&#45;&gt;Node20 -->
<g id="edge19" class="edge">
<title>Node16&#45;&gt;Node20</title>
<path fill="none" stroke="midnightblue" d="M491.46,-149.77C507.33,-151.26 524.24,-152.85 540.43,-154.38"/>
<polygon fill="midnightblue" stroke="midnightblue" points="491.49,-146.26 481.2,-148.8 490.83,-153.23 491.49,-146.26"/>
</g>
<!-- Node21 -->
<g id="node21" class="node">
<title>Node21</title>
<g id="a_node21"><a xlink:href="class_ogre_1_1_g_l_e_s2_texture_manager.html" target="_top" xlink:title="GL ES&#45;specific implementation of a TextureManager.">
<polygon fill="none" stroke="black" points="545,-114.5 545,-133.5 700,-133.5 700,-114.5 545,-114.5"/>
<text text-anchor="middle" x="622.5" y="-121.5" font-family="Helvetica,sans-Serif" font-size="10.00">Ogre::GLES2TextureManager</text>
</a>
</g>
</g>
<!-- Node16&#45;&gt;Node21 -->
<g id="edge20" class="edge">
<title>Node16&#45;&gt;Node21</title>
<path fill="none" stroke="midnightblue" d="M491.26,-136.25C508.63,-134.62 527.25,-132.86 544.83,-131.21"/>
<polygon fill="midnightblue" stroke="midnightblue" points="490.83,-132.77 481.2,-137.2 491.49,-139.74 490.83,-132.77"/>
</g>
<!-- Node22 -->
<g id="node22" class="node">
<title>Node22</title>
<g id="a_node22"><a xlink:href="class_ogre_1_1_g_l_texture_manager.html" target="_top" xlink:title="GL&#45;specific implementation of a TextureManager.">
<polygon fill="none" stroke="black" points="554,-76.5 554,-95.5 691,-95.5 691,-76.5 554,-76.5"/>
<text text-anchor="middle" x="622.5" y="-83.5" font-family="Helvetica,sans-Serif" font-size="10.00">Ogre::GLTextureManager</text>
</a>
</g>
</g>
<!-- Node16&#45;&gt;Node22 -->
<g id="edge21" class="edge">
<title>Node16&#45;&gt;Node22</title>
<path fill="none" stroke="midnightblue" d="M454.74,-129.92C476.75,-122.04 505.79,-112.18 532,-105 544.72,-101.52 558.59,-98.29 571.54,-95.53"/>
<polygon fill="midnightblue" stroke="midnightblue" points="453.37,-126.69 445.15,-133.38 455.75,-133.27 453.37,-126.69"/>
</g>
<!-- Node23 -->
<g id="node23" class="node">
<title>Node23</title>
<g id="a_node23"><a xlink:href="class_ogre_1_1_g_l_texture_manager_common.html" target="_top" xlink:title=" ">
<polygon fill="none" stroke="black" points="532,-38.5 532,-57.5 713,-57.5 713,-38.5 532,-38.5"/>
<text text-anchor="middle" x="622.5" y="-45.5" font-family="Helvetica,sans-Serif" font-size="10.00">Ogre::GLTextureManagerCommon</text>
</a>
</g>
</g>
<!-- Node16&#45;&gt;Node23 -->
<g id="edge22" class="edge">
<title>Node16&#45;&gt;Node23</title>
<path fill="none" stroke="midnightblue" d="M438.38,-126.86C459.71,-109.46 496.15,-82.23 532,-67 541.06,-63.15 550.99,-60.05 560.82,-57.56"/>
<polygon fill="midnightblue" stroke="midnightblue" points="435.92,-124.35 430.46,-133.43 440.39,-129.73 435.92,-124.35"/>
</g>
<!-- Node24 -->
<g id="node24" class="node">
<title>Node24</title>
<g id="a_node24"><a xlink:href="class_ogre_1_1_metal_texture_manager.html" target="_top" xlink:title=" ">
<polygon fill="none" stroke="black" points="546.5,-0.5 546.5,-19.5 698.5,-19.5 698.5,-0.5 546.5,-0.5"/>
<text text-anchor="middle" x="622.5" y="-7.5" font-family="Helvetica,sans-Serif" font-size="10.00">Ogre::MetalTextureManager</text>
</a>
</g>
</g>
<!-- Node16&#45;&gt;Node24 -->
<g id="edge23" class="edge">
<title>Node16&#45;&gt;Node24</title>
<path fill="none" stroke="midnightblue" d="M432.05,-124.75C450.72,-99.11 488.33,-52.89 532,-29 539.11,-25.11 546.93,-22.02 554.91,-19.56"/>
<polygon fill="midnightblue" stroke="midnightblue" points="429,-123.01 426.06,-133.19 434.7,-127.07 429,-123.01"/>
</g>
</g>
</svg>
