<?xml version="1.0" encoding="UTF-8" standalone="no"?>
<!DOCTYPE svg PUBLIC "-//W3C//DTD SVG 1.1//EN"
 "http://www.w3.org/Graphics/SVG/1.1/DTD/svg11.dtd">
<!-- Generated by graphviz version 2.43.0 (0)
 -->
<!-- Title: Ogre::HardwareBuffer Pages: 1 -->
<svg width="1033pt" height="1067pt"
 viewBox="0.00 0.00 1033.00 1067.00" xmlns="http://www.w3.org/2000/svg" xmlns:xlink="http://www.w3.org/1999/xlink">
<g id="graph0" class="graph" transform="scale(1 1) rotate(0) translate(4 1063)">
<title>Ogre::HardwareBuffer</title>
<!-- Node1 -->
<g id="node1" class="node">
<title>Node1</title>
<g id="a_node1"><a xlink:title="Abstract class defining common features of hardware buffers.">
<polygon fill="#bfbfbf" stroke="black" points="107,-623 107,-642 230,-642 230,-623 107,-623"/>
<text text-anchor="middle" x="168.5" y="-630" font-family="Helvetica,sans-Serif" font-size="10.00">Ogre::HardwareBuffer</text>
</a>
</g>
</g>
<!-- Node3 -->
<g id="node3" class="node">
<title>Node3</title>
<g id="a_node3"><a xlink:href="class_ogre_1_1_d3_d11_hardware_buffer.html" target="_top" xlink:title="Base implementation of a D3D11 buffer, dealing with all the common aspects.">
<polygon fill="none" stroke="black" points="269.5,-886 269.5,-905 425.5,-905 425.5,-886 269.5,-886"/>
<text text-anchor="middle" x="347.5" y="-893" font-family="Helvetica,sans-Serif" font-size="10.00">Ogre::D3D11HardwareBuffer</text>
</a>
</g>
</g>
<!-- Node1&#45;&gt;Node3 -->
<g id="edge2" class="edge">
<title>Node1&#45;&gt;Node3</title>
<path fill="none" stroke="midnightblue" d="M171.25,-652.24C176.49,-698.82 196.29,-816.22 266,-876.5 270.45,-880.35 275.55,-883.46 280.96,-885.95"/>
<polygon fill="midnightblue" stroke="midnightblue" points="174.73,-651.82 170.24,-642.23 167.77,-652.53 174.73,-651.82"/>
</g>
<!-- Node4 -->
<g id="node4" class="node">
<title>Node4</title>
<g id="a_node4"><a xlink:href="class_ogre_1_1_hardware_index_buffer.html" target="_top" xlink:title="Specialisation of HardwareBuffer for vertex index buffers, still abstract.">
<polygon fill="none" stroke="black" points="272.5,-848 272.5,-867 422.5,-867 422.5,-848 272.5,-848"/>
<text text-anchor="middle" x="347.5" y="-855" font-family="Helvetica,sans-Serif" font-size="10.00">Ogre::HardwareIndexBuffer</text>
</a>
</g>
</g>
<!-- Node1&#45;&gt;Node4 -->
<g id="edge3" class="edge">
<title>Node1&#45;&gt;Node4</title>
<path fill="none" stroke="midnightblue" d="M183.39,-650.16C218.83,-695.21 311.74,-813.31 338.92,-847.87"/>
<polygon fill="midnightblue" stroke="midnightblue" points="186.04,-647.86 177.11,-642.17 180.54,-652.19 186.04,-647.86"/>
</g>
<!-- Node12 -->
<g id="node12" class="node">
<title>Node12</title>
<g id="a_node12"><a xlink:href="class_ogre_1_1_hardware_pixel_buffer.html" target="_top" xlink:title="Specialisation of HardwareBuffer for a pixel buffer.">
<polygon fill="none" stroke="black" points="274,-623 274,-642 421,-642 421,-623 274,-623"/>
<text text-anchor="middle" x="347.5" y="-630" font-family="Helvetica,sans-Serif" font-size="10.00">Ogre::HardwarePixelBuffer</text>
</a>
</g>
</g>
<!-- Node1&#45;&gt;Node12 -->
<g id="edge11" class="edge">
<title>Node1&#45;&gt;Node12</title>
<path fill="none" stroke="midnightblue" d="M240.74,-632.5C251.66,-632.5 262.93,-632.5 273.88,-632.5"/>
<polygon fill="midnightblue" stroke="midnightblue" points="240.41,-629 230.41,-632.5 240.41,-636 240.41,-629"/>
</g>
<!-- Node28 -->
<g id="node28" class="node">
<title>Node28</title>
<g id="a_node28"><a xlink:href="class_ogre_1_1_hardware_uniform_buffer.html" target="_top" xlink:title="Specialisation of HardwareBuffer for a uniform buffer.">
<polygon fill="none" stroke="black" points="266,-437 266,-456 429,-456 429,-437 266,-437"/>
<text text-anchor="middle" x="347.5" y="-444" font-family="Helvetica,sans-Serif" font-size="10.00">Ogre::HardwareUniformBuffer</text>
</a>
</g>
</g>
<!-- Node1&#45;&gt;Node28 -->
<g id="edge27" class="edge">
<title>Node1&#45;&gt;Node28</title>
<path fill="none" stroke="midnightblue" d="M185.71,-615.47C222.01,-577.32 308.89,-486.02 337.32,-456.14"/>
<polygon fill="midnightblue" stroke="midnightblue" points="183.13,-613.1 178.77,-622.76 188.2,-617.93 183.13,-613.1"/>
</g>
<!-- Node33 -->
<g id="node33" class="node">
<title>Node33</title>
<g id="a_node33"><a xlink:href="class_ogre_1_1_hardware_vertex_buffer.html" target="_top" xlink:title="Specialisation of HardwareBuffer for a vertex buffer.">
<polygon fill="none" stroke="black" points="270,-168 270,-187 425,-187 425,-168 270,-168"/>
<text text-anchor="middle" x="347.5" y="-175" font-family="Helvetica,sans-Serif" font-size="10.00">Ogre::HardwareVertexBuffer</text>
</a>
</g>
</g>
<!-- Node1&#45;&gt;Node33 -->
<g id="edge32" class="edge">
<title>Node1&#45;&gt;Node33</title>
<path fill="none" stroke="midnightblue" d="M176.88,-613.52C207.04,-535.99 320.36,-244.68 342.67,-187.34"/>
<polygon fill="midnightblue" stroke="midnightblue" points="173.56,-612.41 173.2,-623 180.08,-614.95 173.56,-612.41"/>
</g>
<!-- Node2 -->
<g id="node2" class="node">
<title>Node2</title>
<g id="a_node2"><a xlink:title=" ">
<polygon fill="none" stroke="#bfbfbf" points="0,-623 0,-642 71,-642 71,-623 0,-623"/>
<text text-anchor="middle" x="35.5" y="-630" font-family="Helvetica,sans-Serif" font-size="10.00">BufferAlloc</text>
</a>
</g>
</g>
<!-- Node2&#45;&gt;Node1 -->
<g id="edge1" class="edge">
<title>Node2&#45;&gt;Node1</title>
<path fill="none" stroke="midnightblue" d="M81.4,-632.5C89.64,-632.5 98.37,-632.5 106.99,-632.5"/>
<polygon fill="midnightblue" stroke="midnightblue" points="81.26,-629 71.26,-632.5 81.26,-636 81.26,-629"/>
</g>
<!-- Node5 -->
<g id="node5" class="node">
<title>Node5</title>
<g id="a_node5"><a xlink:href="class_ogre_1_1_d3_d11_hardware_index_buffer.html" target="_top" xlink:title=" ">
<polygon fill="none" stroke="black" points="477,-1028.5 477,-1058.5 630,-1058.5 630,-1028.5 477,-1028.5"/>
<text text-anchor="start" x="485" y="-1046.5" font-family="Helvetica,sans-Serif" font-size="10.00">Ogre::D3D11HardwareIndex</text>
<text text-anchor="middle" x="553.5" y="-1035.5" font-family="Helvetica,sans-Serif" font-size="10.00">Buffer</text>
</a>
</g>
</g>
<!-- Node4&#45;&gt;Node5 -->
<g id="edge4" class="edge">
<title>Node4&#45;&gt;Node5</title>
<path fill="none" stroke="midnightblue" d="M424.38,-872.49C426,-873.73 427.54,-875.07 429,-876.5 475.42,-922.16 419.66,-971.78 465,-1018.5 468.74,-1022.35 473.03,-1025.63 477.66,-1028.4"/>
<polygon fill="midnightblue" stroke="midnightblue" points="426.07,-869.42 415.74,-867.04 422.33,-875.34 426.07,-869.42"/>
</g>
<!-- Node6 -->
<g id="node6" class="node">
<title>Node6</title>
<g id="a_node6"><a xlink:href="class_ogre_1_1_d3_d9_hardware_index_buffer.html" target="_top" xlink:title=" ">
<polygon fill="none" stroke="black" points="465,-990 465,-1009 642,-1009 642,-990 465,-990"/>
<text text-anchor="middle" x="553.5" y="-997" font-family="Helvetica,sans-Serif" font-size="10.00">Ogre::D3D9HardwareIndexBuffer</text>
</a>
</g>
</g>
<!-- Node4&#45;&gt;Node6 -->
<g id="edge5" class="edge">
<title>Node4&#45;&gt;Node6</title>
<path fill="none" stroke="midnightblue" d="M423.51,-872.16C425.43,-873.49 427.27,-874.94 429,-876.5 465.3,-909.29 428.41,-948.04 465,-980.5 469.3,-984.32 474.19,-987.43 479.4,-989.96"/>
<polygon fill="midnightblue" stroke="midnightblue" points="425.03,-869 414.62,-867.03 421.53,-875.06 425.03,-869"/>
</g>
<!-- Node7 -->
<g id="node7" class="node">
<title>Node7</title>
<g id="a_node7"><a xlink:href="class_ogre_1_1_default_hardware_index_buffer.html" target="_top" xlink:title="Specialisation of HardwareIndexBuffer for emulation.">
<polygon fill="none" stroke="black" points="475.5,-940.5 475.5,-970.5 631.5,-970.5 631.5,-940.5 475.5,-940.5"/>
<text text-anchor="start" x="483.5" y="-958.5" font-family="Helvetica,sans-Serif" font-size="10.00">Ogre::DefaultHardwareIndex</text>
<text text-anchor="middle" x="553.5" y="-947.5" font-family="Helvetica,sans-Serif" font-size="10.00">Buffer</text>
</a>
</g>
</g>
<!-- Node4&#45;&gt;Node7 -->
<g id="edge6" class="edge">
<title>Node4&#45;&gt;Node7</title>
<path fill="none" stroke="midnightblue" d="M419.97,-871.11C423.12,-872.71 426.15,-874.5 429,-876.5 452.92,-893.27 441.38,-914.3 465,-931.5 469.71,-934.93 474.89,-937.87 480.3,-940.39"/>
<polygon fill="midnightblue" stroke="midnightblue" points="421.37,-867.9 410.81,-867.07 418.54,-874.31 421.37,-867.9"/>
</g>
<!-- Node8 -->
<g id="node8" class="node">
<title>Node8</title>
<g id="a_node8"><a xlink:href="class_ogre_1_1_g_l3_plus_hardware_index_buffer.html" target="_top" xlink:title=" ">
<polygon fill="none" stroke="black" points="474,-891.5 474,-921.5 633,-921.5 633,-891.5 474,-891.5"/>
<text text-anchor="start" x="482" y="-909.5" font-family="Helvetica,sans-Serif" font-size="10.00">Ogre::GL3PlusHardwareIndex</text>
<text text-anchor="middle" x="553.5" y="-898.5" font-family="Helvetica,sans-Serif" font-size="10.00">Buffer</text>
</a>
</g>
</g>
<!-- Node4&#45;&gt;Node8 -->
<g id="edge7" class="edge">
<title>Node4&#45;&gt;Node8</title>
<path fill="none" stroke="midnightblue" d="M398.86,-869.33C408.85,-871.7 419.26,-874.17 429,-876.5 449.17,-881.33 471.18,-886.66 490.96,-891.47"/>
<polygon fill="midnightblue" stroke="midnightblue" points="399.59,-865.91 389.05,-867.02 397.98,-872.72 399.59,-865.91"/>
</g>
<!-- Node9 -->
<g id="node9" class="node">
<title>Node9</title>
<g id="a_node9"><a xlink:href="class_ogre_1_1_g_l_e_s2_hardware_index_buffer.html" target="_top" xlink:title=" ">
<polygon fill="none" stroke="black" points="478,-842.5 478,-872.5 629,-872.5 629,-842.5 478,-842.5"/>
<text text-anchor="start" x="486" y="-860.5" font-family="Helvetica,sans-Serif" font-size="10.00">Ogre::GLES2HardwareIndex</text>
<text text-anchor="middle" x="553.5" y="-849.5" font-family="Helvetica,sans-Serif" font-size="10.00">Buffer</text>
</a>
</g>
</g>
<!-- Node4&#45;&gt;Node9 -->
<g id="edge8" class="edge">
<title>Node4&#45;&gt;Node9</title>
<path fill="none" stroke="midnightblue" d="M432.97,-857.5C447.9,-857.5 463.35,-857.5 477.99,-857.5"/>
<polygon fill="midnightblue" stroke="midnightblue" points="432.73,-854 422.73,-857.5 432.73,-861 432.73,-854"/>
</g>
<!-- Node10 -->
<g id="node10" class="node">
<title>Node10</title>
<g id="a_node10"><a xlink:href="class_ogre_1_1_g_l_hardware_index_buffer.html" target="_top" xlink:title=" ">
<polygon fill="none" stroke="black" points="472,-804 472,-823 635,-823 635,-804 472,-804"/>
<text text-anchor="middle" x="553.5" y="-811" font-family="Helvetica,sans-Serif" font-size="10.00">Ogre::GLHardwareIndexBuffer</text>
</a>
</g>
</g>
<!-- Node4&#45;&gt;Node10 -->
<g id="edge9" class="edge">
<title>Node4&#45;&gt;Node10</title>
<path fill="none" stroke="midnightblue" d="M402.71,-845.81C435.71,-838.69 477.33,-829.71 508.32,-823.03"/>
<polygon fill="midnightblue" stroke="midnightblue" points="401.8,-842.42 392.76,-847.95 403.28,-849.27 401.8,-842.42"/>
</g>
<!-- Node11 -->
<g id="node11" class="node">
<title>Node11</title>
<g id="a_node11"><a xlink:href="class_ogre_1_1_metal_hardware_index_buffer.html" target="_top" xlink:title="Specialisation of HardwareIndexBuffer for Metal.">
<polygon fill="none" stroke="black" points="479.5,-754.5 479.5,-784.5 627.5,-784.5 627.5,-754.5 479.5,-754.5"/>
<text text-anchor="start" x="487.5" y="-772.5" font-family="Helvetica,sans-Serif" font-size="10.00">Ogre::MetalHardwareIndex</text>
<text text-anchor="middle" x="553.5" y="-761.5" font-family="Helvetica,sans-Serif" font-size="10.00">Buffer</text>
</a>
</g>
</g>
<!-- Node4&#45;&gt;Node11 -->
<g id="edge10" class="edge">
<title>Node4&#45;&gt;Node11</title>
<path fill="none" stroke="midnightblue" d="M372.54,-842.49C395.58,-828.59 431.69,-808.08 465,-794.5 473.92,-790.86 483.56,-787.54 493.07,-784.59"/>
<polygon fill="midnightblue" stroke="midnightblue" points="370.51,-839.62 363.8,-847.82 374.16,-845.6 370.51,-839.62"/>
</g>
<!-- Node13 -->
<g id="node13" class="node">
<title>Node13</title>
<g id="a_node13"><a xlink:href="class_ogre_1_1_d3_d11_hardware_pixel_buffer.html" target="_top" xlink:title=" ">
<polygon fill="none" stroke="black" points="478.5,-705.5 478.5,-735.5 628.5,-735.5 628.5,-705.5 478.5,-705.5"/>
<text text-anchor="start" x="486.5" y="-723.5" font-family="Helvetica,sans-Serif" font-size="10.00">Ogre::D3D11HardwarePixel</text>
<text text-anchor="middle" x="553.5" y="-712.5" font-family="Helvetica,sans-Serif" font-size="10.00">Buffer</text>
</a>
</g>
</g>
<!-- Node12&#45;&gt;Node13 -->
<g id="edge12" class="edge">
<title>Node12&#45;&gt;Node13</title>
<path fill="none" stroke="midnightblue" d="M372.54,-647.51C395.58,-661.41 431.69,-681.92 465,-695.5 473.92,-699.14 483.56,-702.46 493.07,-705.41"/>
<polygon fill="midnightblue" stroke="midnightblue" points="374.16,-644.4 363.8,-642.18 370.51,-650.38 374.16,-644.4"/>
</g>
<!-- Node14 -->
<g id="node14" class="node">
<title>Node14</title>
<g id="a_node14"><a xlink:href="class_ogre_1_1_d3_d9_hardware_pixel_buffer.html" target="_top" xlink:title=" ">
<polygon fill="none" stroke="black" points="466.5,-667 466.5,-686 640.5,-686 640.5,-667 466.5,-667"/>
<text text-anchor="middle" x="553.5" y="-674" font-family="Helvetica,sans-Serif" font-size="10.00">Ogre::D3D9HardwarePixelBuffer</text>
</a>
</g>
</g>
<!-- Node12&#45;&gt;Node14 -->
<g id="edge13" class="edge">
<title>Node12&#45;&gt;Node14</title>
<path fill="none" stroke="midnightblue" d="M402.71,-644.19C435.71,-651.31 477.33,-660.29 508.32,-666.97"/>
<polygon fill="midnightblue" stroke="midnightblue" points="403.28,-640.73 392.76,-642.05 401.8,-647.58 403.28,-640.73"/>
</g>
<!-- Node15 -->
<g id="node15" class="node">
<title>Node15</title>
<g id="a_node15"><a xlink:href="class_ogre_1_1_g_l_hardware_pixel_buffer_common.html" target="_top" xlink:title=" ">
<polygon fill="none" stroke="black" points="473.5,-617.5 473.5,-647.5 633.5,-647.5 633.5,-617.5 473.5,-617.5"/>
<text text-anchor="start" x="481.5" y="-635.5" font-family="Helvetica,sans-Serif" font-size="10.00">Ogre::GLHardwarePixelBuffer</text>
<text text-anchor="middle" x="553.5" y="-624.5" font-family="Helvetica,sans-Serif" font-size="10.00">Common</text>
</a>
</g>
</g>
<!-- Node12&#45;&gt;Node15 -->
<g id="edge14" class="edge">
<title>Node12&#45;&gt;Node15</title>
<path fill="none" stroke="midnightblue" d="M431.66,-632.5C445.37,-632.5 459.55,-632.5 473.17,-632.5"/>
<polygon fill="midnightblue" stroke="midnightblue" points="431.28,-629 421.28,-632.5 431.28,-636 431.28,-629"/>
</g>
<!-- Node25 -->
<g id="node25" class="node">
<title>Node25</title>
<g id="a_node25"><a xlink:href="class_ogre_1_1_metal_depth_pixel_buffer.html" target="_top" xlink:title=" ">
<polygon fill="none" stroke="black" points="475,-579 475,-598 632,-598 632,-579 475,-579"/>
<text text-anchor="middle" x="553.5" y="-586" font-family="Helvetica,sans-Serif" font-size="10.00">Ogre::MetalDepthPixelBuffer</text>
</a>
</g>
</g>
<!-- Node12&#45;&gt;Node25 -->
<g id="edge24" class="edge">
<title>Node12&#45;&gt;Node25</title>
<path fill="none" stroke="midnightblue" d="M402.71,-620.81C435.71,-613.69 477.33,-604.71 508.32,-598.03"/>
<polygon fill="midnightblue" stroke="midnightblue" points="401.8,-617.42 392.76,-622.95 403.28,-624.27 401.8,-617.42"/>
</g>
<!-- Node26 -->
<g id="node26" class="node">
<title>Node26</title>
<g id="a_node26"><a xlink:href="class_ogre_1_1_metal_hardware_pixel_buffer.html" target="_top" xlink:title=" ">
<polygon fill="none" stroke="black" points="481,-529.5 481,-559.5 626,-559.5 626,-529.5 481,-529.5"/>
<text text-anchor="start" x="489" y="-547.5" font-family="Helvetica,sans-Serif" font-size="10.00">Ogre::MetalHardwarePixel</text>
<text text-anchor="middle" x="553.5" y="-536.5" font-family="Helvetica,sans-Serif" font-size="10.00">Buffer</text>
</a>
</g>
</g>
<!-- Node12&#45;&gt;Node26 -->
<g id="edge25" class="edge">
<title>Node12&#45;&gt;Node26</title>
<path fill="none" stroke="midnightblue" d="M372.54,-617.49C395.58,-603.59 431.69,-583.08 465,-569.5 473.92,-565.86 483.56,-562.54 493.07,-559.59"/>
<polygon fill="midnightblue" stroke="midnightblue" points="370.51,-614.62 363.8,-622.82 374.16,-620.6 370.51,-614.62"/>
</g>
<!-- Node16 -->
<g id="node16" class="node">
<title>Node16</title>
<g id="a_node16"><a xlink:href="class_ogre_1_1_g_l3_plus_hardware_pixel_buffer.html" target="_top" xlink:title=" ">
<polygon fill="none" stroke="black" points="680,-684.5 680,-714.5 836,-714.5 836,-684.5 680,-684.5"/>
<text text-anchor="start" x="688" y="-702.5" font-family="Helvetica,sans-Serif" font-size="10.00">Ogre::GL3PlusHardwarePixel</text>
<text text-anchor="middle" x="758" y="-691.5" font-family="Helvetica,sans-Serif" font-size="10.00">Buffer</text>
</a>
</g>
</g>
<!-- Node15&#45;&gt;Node16 -->
<g id="edge15" class="edge">
<title>Node15&#45;&gt;Node16</title>
<path fill="none" stroke="midnightblue" d="M619.07,-650.38C626.82,-652.69 634.6,-655.1 642,-657.5 667.47,-665.78 695.73,-676.08 717.86,-684.41"/>
<polygon fill="midnightblue" stroke="midnightblue" points="619.88,-646.97 609.29,-647.5 617.9,-653.68 619.88,-646.97"/>
</g>
<!-- Node19 -->
<g id="node19" class="node">
<title>Node19</title>
<g id="a_node19"><a xlink:href="class_ogre_1_1_g_l_e_s2_hardware_pixel_buffer.html" target="_top" xlink:title=" ">
<polygon fill="none" stroke="black" points="684,-617.5 684,-647.5 832,-647.5 832,-617.5 684,-617.5"/>
<text text-anchor="start" x="692" y="-635.5" font-family="Helvetica,sans-Serif" font-size="10.00">Ogre::GLES2HardwarePixel</text>
<text text-anchor="middle" x="758" y="-624.5" font-family="Helvetica,sans-Serif" font-size="10.00">Buffer</text>
</a>
</g>
</g>
<!-- Node15&#45;&gt;Node19 -->
<g id="edge18" class="edge">
<title>Node15&#45;&gt;Node19</title>
<path fill="none" stroke="midnightblue" d="M643.82,-632.5C657.2,-632.5 670.85,-632.5 683.84,-632.5"/>
<polygon fill="midnightblue" stroke="midnightblue" points="643.66,-629 633.66,-632.5 643.66,-636 643.66,-629"/>
</g>
<!-- Node22 -->
<g id="node22" class="node">
<title>Node22</title>
<g id="a_node22"><a xlink:href="class_ogre_1_1_g_l_hardware_pixel_buffer.html" target="_top" xlink:title=" ">
<polygon fill="none" stroke="black" points="678,-576 678,-595 838,-595 838,-576 678,-576"/>
<text text-anchor="middle" x="758" y="-583" font-family="Helvetica,sans-Serif" font-size="10.00">Ogre::GLHardwarePixelBuffer</text>
</a>
</g>
</g>
<!-- Node15&#45;&gt;Node22 -->
<g id="edge21" class="edge">
<title>Node15&#45;&gt;Node22</title>
<path fill="none" stroke="midnightblue" d="M628.95,-615.22C658.31,-608.4 690.92,-600.84 715.88,-595.04"/>
<polygon fill="midnightblue" stroke="midnightblue" points="628.08,-611.83 619.13,-617.5 629.66,-618.65 628.08,-611.83"/>
</g>
<!-- Node17 -->
<g id="node17" class="node">
<title>Node17</title>
<g id="a_node17"><a xlink:href="class_ogre_1_1_g_l3_plus_render_buffer.html" target="_top" xlink:title="Renderbuffer surface.">
<polygon fill="none" stroke="black" points="875,-728 875,-747 1024,-747 1024,-728 875,-728"/>
<text text-anchor="middle" x="949.5" y="-735" font-family="Helvetica,sans-Serif" font-size="10.00">Ogre::GL3PlusRenderBuffer</text>
</a>
</g>
</g>
<!-- Node16&#45;&gt;Node17 -->
<g id="edge16" class="edge">
<title>Node16&#45;&gt;Node17</title>
<path fill="none" stroke="midnightblue" d="M843.8,-716.51C863.48,-720.45 883.73,-724.51 901.12,-728"/>
<polygon fill="midnightblue" stroke="midnightblue" points="844.39,-713.05 833.9,-714.52 843.01,-719.92 844.39,-713.05"/>
</g>
<!-- Node18 -->
<g id="node18" class="node">
<title>Node18</title>
<g id="a_node18"><a xlink:href="class_ogre_1_1_g_l3_plus_texture_buffer.html" target="_top" xlink:title="Texture surface.">
<polygon fill="none" stroke="black" points="874,-690 874,-709 1025,-709 1025,-690 874,-690"/>
<text text-anchor="middle" x="949.5" y="-697" font-family="Helvetica,sans-Serif" font-size="10.00">Ogre::GL3PlusTextureBuffer</text>
</a>
</g>
</g>
<!-- Node16&#45;&gt;Node18 -->
<g id="edge17" class="edge">
<title>Node16&#45;&gt;Node18</title>
<path fill="none" stroke="midnightblue" d="M846.11,-699.5C855.41,-699.5 864.81,-699.5 873.94,-699.5"/>
<polygon fill="midnightblue" stroke="midnightblue" points="846.08,-696 836.08,-699.5 846.08,-703 846.08,-696"/>
</g>
<!-- Node20 -->
<g id="node20" class="node">
<title>Node20</title>
<g id="a_node20"><a xlink:href="class_ogre_1_1_g_l_e_s2_render_buffer.html" target="_top" xlink:title="Renderbuffer surface.">
<polygon fill="none" stroke="black" points="879,-652 879,-671 1020,-671 1020,-652 879,-652"/>
<text text-anchor="middle" x="949.5" y="-659" font-family="Helvetica,sans-Serif" font-size="10.00">Ogre::GLES2RenderBuffer</text>
</a>
</g>
</g>
<!-- Node19&#45;&gt;Node20 -->
<g id="edge19" class="edge">
<title>Node19&#45;&gt;Node20</title>
<path fill="none" stroke="midnightblue" d="M842.38,-645.26C857.1,-647.51 872.19,-649.82 886.2,-651.97"/>
<polygon fill="midnightblue" stroke="midnightblue" points="842.68,-641.77 832.27,-643.71 841.62,-648.68 842.68,-641.77"/>
</g>
<!-- Node21 -->
<g id="node21" class="node">
<title>Node21</title>
<g id="a_node21"><a xlink:href="class_ogre_1_1_g_l_e_s2_texture_buffer.html" target="_top" xlink:title="Texture surface.">
<polygon fill="none" stroke="black" points="878,-614 878,-633 1021,-633 1021,-614 878,-614"/>
<text text-anchor="middle" x="949.5" y="-621" font-family="Helvetica,sans-Serif" font-size="10.00">Ogre::GLES2TextureBuffer</text>
</a>
</g>
</g>
<!-- Node19&#45;&gt;Node21 -->
<g id="edge20" class="edge">
<title>Node19&#45;&gt;Node21</title>
<path fill="none" stroke="midnightblue" d="M842.56,-628.53C854.36,-627.97 866.4,-627.4 877.92,-626.85"/>
<polygon fill="midnightblue" stroke="midnightblue" points="842.09,-625.05 832.27,-629.02 842.42,-632.04 842.09,-625.05"/>
</g>
<!-- Node23 -->
<g id="node23" class="node">
<title>Node23</title>
<g id="a_node23"><a xlink:href="class_ogre_1_1_g_l_render_buffer.html" target="_top" xlink:title="Renderbuffer surface.">
<polygon fill="none" stroke="black" points="888,-576 888,-595 1011,-595 1011,-576 888,-576"/>
<text text-anchor="middle" x="949.5" y="-583" font-family="Helvetica,sans-Serif" font-size="10.00">Ogre::GLRenderBuffer</text>
</a>
</g>
</g>
<!-- Node22&#45;&gt;Node23 -->
<g id="edge22" class="edge">
<title>Node22&#45;&gt;Node23</title>
<path fill="none" stroke="midnightblue" d="M848.4,-585.5C861.72,-585.5 875.17,-585.5 887.71,-585.5"/>
<polygon fill="midnightblue" stroke="midnightblue" points="848.27,-582 838.27,-585.5 848.27,-589 848.27,-582"/>
</g>
<!-- Node24 -->
<g id="node24" class="node">
<title>Node24</title>
<g id="a_node24"><a xlink:href="class_ogre_1_1_g_l_texture_buffer.html" target="_top" xlink:title="Texture surface.">
<polygon fill="none" stroke="black" points="887.5,-538 887.5,-557 1011.5,-557 1011.5,-538 887.5,-538"/>
<text text-anchor="middle" x="949.5" y="-545" font-family="Helvetica,sans-Serif" font-size="10.00">Ogre::GLTextureBuffer</text>
</a>
</g>
</g>
<!-- Node22&#45;&gt;Node24 -->
<g id="edge23" class="edge">
<title>Node22&#45;&gt;Node24</title>
<path fill="none" stroke="midnightblue" d="M816.89,-573.89C843.85,-568.49 875.51,-562.14 901.03,-557.02"/>
<polygon fill="midnightblue" stroke="midnightblue" points="815.94,-570.51 806.82,-575.91 817.31,-577.38 815.94,-570.51"/>
</g>
<!-- Node27 -->
<g id="node27" class="node">
<title>Node27</title>
<g id="a_node27"><a xlink:href="class_ogre_1_1_metal_texture_buffer.html" target="_top" xlink:title="Texture surface.">
<polygon fill="none" stroke="black" points="688,-535 688,-554 828,-554 828,-535 688,-535"/>
<text text-anchor="middle" x="758" y="-542" font-family="Helvetica,sans-Serif" font-size="10.00">Ogre::MetalTextureBuffer</text>
</a>
</g>
</g>
<!-- Node26&#45;&gt;Node27 -->
<g id="edge26" class="edge">
<title>Node26&#45;&gt;Node27</title>
<path fill="none" stroke="midnightblue" d="M636.64,-544.5C653.61,-544.5 671.34,-544.5 687.8,-544.5"/>
<polygon fill="midnightblue" stroke="midnightblue" points="636.18,-541 626.18,-544.5 636.18,-548 636.18,-541"/>
</g>
<!-- Node29 -->
<g id="node29" class="node">
<title>Node29</title>
<g id="a_node29"><a xlink:href="class_ogre_1_1_d3_d11_hardware_uniform_buffer.html" target="_top" xlink:title="Specialisation of HardwareBuffer for D3D11.">
<polygon fill="none" stroke="black" points="470.5,-480.5 470.5,-510.5 636.5,-510.5 636.5,-480.5 470.5,-480.5"/>
<text text-anchor="start" x="478.5" y="-498.5" font-family="Helvetica,sans-Serif" font-size="10.00">Ogre::D3D11HardwareUniform</text>
<text text-anchor="middle" x="553.5" y="-487.5" font-family="Helvetica,sans-Serif" font-size="10.00">Buffer</text>
</a>
</g>
</g>
<!-- Node28&#45;&gt;Node29 -->
<g id="edge28" class="edge">
<title>Node28&#45;&gt;Node29</title>
<path fill="none" stroke="midnightblue" d="M398.15,-458.43C425.78,-465.06 460.43,-473.39 489.9,-480.46"/>
<polygon fill="midnightblue" stroke="midnightblue" points="398.86,-455 388.32,-456.06 397.22,-461.8 398.86,-455"/>
</g>
<!-- Node30 -->
<g id="node30" class="node">
<title>Node30</title>
<g id="a_node30"><a xlink:href="class_ogre_1_1_default_hardware_uniform_buffer.html" target="_top" xlink:title="Specialisation of HardwareUniformBuffer for emulation.">
<polygon fill="none" stroke="black" points="469,-431.5 469,-461.5 638,-461.5 638,-431.5 469,-431.5"/>
<text text-anchor="start" x="477" y="-449.5" font-family="Helvetica,sans-Serif" font-size="10.00">Ogre::DefaultHardwareUniform</text>
<text text-anchor="middle" x="553.5" y="-438.5" font-family="Helvetica,sans-Serif" font-size="10.00">Buffer</text>
</a>
</g>
</g>
<!-- Node28&#45;&gt;Node30 -->
<g id="edge29" class="edge">
<title>Node28&#45;&gt;Node30</title>
<path fill="none" stroke="midnightblue" d="M439.29,-446.5C449.1,-446.5 459.05,-446.5 468.78,-446.5"/>
<polygon fill="midnightblue" stroke="midnightblue" points="439.13,-443 429.13,-446.5 439.13,-450 439.13,-443"/>
</g>
<!-- Node31 -->
<g id="node31" class="node">
<title>Node31</title>
<g id="a_node31"><a xlink:href="class_ogre_1_1_g_l3_plus_hardware_uniform_buffer.html" target="_top" xlink:title="Specialisation of HardwareUniformBuffer for OpenGL.">
<polygon fill="none" stroke="black" points="467.5,-382.5 467.5,-412.5 639.5,-412.5 639.5,-382.5 467.5,-382.5"/>
<text text-anchor="start" x="475.5" y="-400.5" font-family="Helvetica,sans-Serif" font-size="10.00">Ogre::GL3PlusHardwareUniform</text>
<text text-anchor="middle" x="553.5" y="-389.5" font-family="Helvetica,sans-Serif" font-size="10.00">Buffer</text>
</a>
</g>
</g>
<!-- Node28&#45;&gt;Node31 -->
<g id="edge30" class="edge">
<title>Node28&#45;&gt;Node31</title>
<path fill="none" stroke="midnightblue" d="M398.15,-434.57C425.78,-427.94 460.43,-419.61 489.9,-412.54"/>
<polygon fill="midnightblue" stroke="midnightblue" points="397.22,-431.2 388.32,-436.94 398.86,-438 397.22,-431.2"/>
</g>
<!-- Node32 -->
<g id="node32" class="node">
<title>Node32</title>
<g id="a_node32"><a xlink:href="class_ogre_1_1_g_l_e_s2_hardware_uniform_buffer.html" target="_top" xlink:title="Specialisation of HardwareUniformBuffer for OpenGL.">
<polygon fill="none" stroke="black" points="471.5,-333.5 471.5,-363.5 635.5,-363.5 635.5,-333.5 471.5,-333.5"/>
<text text-anchor="start" x="479.5" y="-351.5" font-family="Helvetica,sans-Serif" font-size="10.00">Ogre::GLES2HardwareUniform</text>
<text text-anchor="middle" x="553.5" y="-340.5" font-family="Helvetica,sans-Serif" font-size="10.00">Buffer</text>
</a>
</g>
</g>
<!-- Node28&#45;&gt;Node32 -->
<g id="edge31" class="edge">
<title>Node28&#45;&gt;Node32</title>
<path fill="none" stroke="midnightblue" d="M368.82,-430.92C391.27,-414.37 429.02,-388.43 465,-372.5 472.49,-369.18 480.55,-366.22 488.63,-363.61"/>
<polygon fill="midnightblue" stroke="midnightblue" points="366.64,-428.18 360.73,-436.97 370.83,-433.79 366.64,-428.18"/>
</g>
<!-- Node34 -->
<g id="node34" class="node">
<title>Node34</title>
<g id="a_node34"><a xlink:href="class_ogre_1_1_d3_d11_hardware_vertex_buffer.html" target="_top" xlink:title="Specialisation of HardwareVertexBuffer for D3D11.">
<polygon fill="none" stroke="black" points="474.5,-284.5 474.5,-314.5 632.5,-314.5 632.5,-284.5 474.5,-284.5"/>
<text text-anchor="start" x="482.5" y="-302.5" font-family="Helvetica,sans-Serif" font-size="10.00">Ogre::D3D11HardwareVertex</text>
<text text-anchor="middle" x="553.5" y="-291.5" font-family="Helvetica,sans-Serif" font-size="10.00">Buffer</text>
</a>
</g>
</g>
<!-- Node33&#45;&gt;Node34 -->
<g id="edge33" class="edge">
<title>Node33&#45;&gt;Node34</title>
<path fill="none" stroke="midnightblue" d="M364.31,-194.47C385.34,-216.06 424.56,-253.12 465,-274.5 472.26,-278.34 480.19,-281.65 488.2,-284.49"/>
<polygon fill="midnightblue" stroke="midnightblue" points="366.62,-191.82 357.18,-187.01 361.57,-196.66 366.62,-191.82"/>
</g>
<!-- Node35 -->
<g id="node35" class="node">
<title>Node35</title>
<g id="a_node35"><a xlink:href="class_ogre_1_1_d3_d9_hardware_vertex_buffer.html" target="_top" xlink:title="Specialisation of HardwareVertexBuffer for D3D9.">
<polygon fill="none" stroke="black" points="477.5,-235.5 477.5,-265.5 629.5,-265.5 629.5,-235.5 477.5,-235.5"/>
<text text-anchor="start" x="485.5" y="-253.5" font-family="Helvetica,sans-Serif" font-size="10.00">Ogre::D3D9HardwareVertex</text>
<text text-anchor="middle" x="553.5" y="-242.5" font-family="Helvetica,sans-Serif" font-size="10.00">Buffer</text>
</a>
</g>
</g>
<!-- Node33&#45;&gt;Node35 -->
<g id="edge34" class="edge">
<title>Node33&#45;&gt;Node35</title>
<path fill="none" stroke="midnightblue" d="M379.04,-191.19C402.33,-201.36 435.35,-215.19 465,-225.5 475,-228.98 485.76,-232.34 496.19,-235.42"/>
<polygon fill="midnightblue" stroke="midnightblue" points="380.26,-187.9 369.69,-187.08 377.44,-194.31 380.26,-187.9"/>
</g>
<!-- Node36 -->
<g id="node36" class="node">
<title>Node36</title>
<g id="a_node36"><a xlink:href="class_ogre_1_1_default_hardware_vertex_buffer.html" target="_top" xlink:title="Specialisation of HardwareVertexBuffer for emulation.">
<polygon fill="none" stroke="black" points="473,-186.5 473,-216.5 634,-216.5 634,-186.5 473,-186.5"/>
<text text-anchor="start" x="481" y="-204.5" font-family="Helvetica,sans-Serif" font-size="10.00">Ogre::DefaultHardwareVertex</text>
<text text-anchor="middle" x="553.5" y="-193.5" font-family="Helvetica,sans-Serif" font-size="10.00">Buffer</text>
</a>
</g>
</g>
<!-- Node33&#45;&gt;Node36 -->
<g id="edge35" class="edge">
<title>Node33&#45;&gt;Node36</title>
<path fill="none" stroke="midnightblue" d="M435.01,-187.68C447.55,-189.15 460.41,-190.67 472.8,-192.12"/>
<polygon fill="midnightblue" stroke="midnightblue" points="435.38,-184.2 425.04,-186.5 434.57,-191.15 435.38,-184.2"/>
</g>
<!-- Node37 -->
<g id="node37" class="node">
<title>Node37</title>
<g id="a_node37"><a xlink:href="class_ogre_1_1_g_l3_plus_hardware_vertex_buffer.html" target="_top" xlink:title="Specialisation of HardwareVertexBuffer for OpenGL.">
<polygon fill="none" stroke="black" points="471.5,-137.5 471.5,-167.5 635.5,-167.5 635.5,-137.5 471.5,-137.5"/>
<text text-anchor="start" x="479.5" y="-155.5" font-family="Helvetica,sans-Serif" font-size="10.00">Ogre::GL3PlusHardwareVertex</text>
<text text-anchor="middle" x="553.5" y="-144.5" font-family="Helvetica,sans-Serif" font-size="10.00">Buffer</text>
</a>
</g>
</g>
<!-- Node33&#45;&gt;Node37 -->
<g id="edge36" class="edge">
<title>Node33&#45;&gt;Node37</title>
<path fill="none" stroke="midnightblue" d="M435.08,-166.89C447.14,-165.41 459.49,-163.9 471.44,-162.43"/>
<polygon fill="midnightblue" stroke="midnightblue" points="434.54,-163.43 425.04,-168.12 435.39,-170.38 434.54,-163.43"/>
</g>
<!-- Node38 -->
<g id="node38" class="node">
<title>Node38</title>
<g id="a_node38"><a xlink:href="class_ogre_1_1_g_l_e_s2_hardware_vertex_buffer.html" target="_top" xlink:title="Specialisation of HardwareVertexBuffer for OpenGL ES.">
<polygon fill="none" stroke="black" points="475.5,-88.5 475.5,-118.5 631.5,-118.5 631.5,-88.5 475.5,-88.5"/>
<text text-anchor="start" x="483.5" y="-106.5" font-family="Helvetica,sans-Serif" font-size="10.00">Ogre::GLES2HardwareVertex</text>
<text text-anchor="middle" x="553.5" y="-95.5" font-family="Helvetica,sans-Serif" font-size="10.00">Buffer</text>
</a>
</g>
</g>
<!-- Node33&#45;&gt;Node38 -->
<g id="edge37" class="edge">
<title>Node33&#45;&gt;Node38</title>
<path fill="none" stroke="midnightblue" d="M377.68,-163.64C400.98,-152.91 434.64,-138.12 465,-127.5 474.07,-124.33 483.79,-121.3 493.32,-118.54"/>
<polygon fill="midnightblue" stroke="midnightblue" points="375.96,-160.58 368.37,-167.97 378.92,-166.93 375.96,-160.58"/>
</g>
<!-- Node39 -->
<g id="node39" class="node">
<title>Node39</title>
<g id="a_node39"><a xlink:href="class_ogre_1_1_g_l_hardware_vertex_buffer.html" target="_top" xlink:title="Specialisation of HardwareVertexBuffer for OpenGL.">
<polygon fill="none" stroke="black" points="469.5,-50 469.5,-69 637.5,-69 637.5,-50 469.5,-50"/>
<text text-anchor="middle" x="553.5" y="-57" font-family="Helvetica,sans-Serif" font-size="10.00">Ogre::GLHardwareVertexBuffer</text>
</a>
</g>
</g>
<!-- Node33&#45;&gt;Node39 -->
<g id="edge38" class="edge">
<title>Node33&#45;&gt;Node39</title>
<path fill="none" stroke="midnightblue" d="M363.44,-160.39C384.01,-137.99 423.25,-99.14 465,-78.5 472.8,-74.64 481.38,-71.56 490.02,-69.11"/>
<polygon fill="midnightblue" stroke="midnightblue" points="360.83,-158.07 356.74,-167.84 366.03,-162.75 360.83,-158.07"/>
</g>
<!-- Node40 -->
<g id="node40" class="node">
<title>Node40</title>
<g id="a_node40"><a xlink:href="class_ogre_1_1_metal_hardware_vertex_buffer.html" target="_top" xlink:title="Specialisation of HardwareVertexBuffer for Metal.">
<polygon fill="none" stroke="black" points="477,-0.5 477,-30.5 630,-30.5 630,-0.5 477,-0.5"/>
<text text-anchor="start" x="485" y="-18.5" font-family="Helvetica,sans-Serif" font-size="10.00">Ogre::MetalHardwareVertex</text>
<text text-anchor="middle" x="553.5" y="-7.5" font-family="Helvetica,sans-Serif" font-size="10.00">Buffer</text>
</a>
</g>
</g>
<!-- Node33&#45;&gt;Node40 -->
<g id="edge39" class="edge">
<title>Node33&#45;&gt;Node40</title>
<path fill="none" stroke="midnightblue" d="M359.18,-158.99C377.19,-129.44 416.42,-71.79 465,-40.5 470.98,-36.65 477.56,-33.38 484.34,-30.61"/>
<polygon fill="midnightblue" stroke="midnightblue" points="356.02,-157.47 353.91,-167.85 362.03,-161.05 356.02,-157.47"/>
</g>
</g>
</svg>
