<?xml version="1.0" encoding="UTF-8" standalone="no"?>
<!DOCTYPE svg PUBLIC "-//W3C//DTD SVG 1.1//EN"
 "http://www.w3.org/Graphics/SVG/1.1/DTD/svg11.dtd">
<!-- Generated by graphviz version 2.43.0 (0)
 -->
<!-- Title: Ogre::HardwareVertexBuffer Pages: 1 -->
<svg width="633pt" height="323pt"
 viewBox="0.00 0.00 633.00 323.00" xmlns="http://www.w3.org/2000/svg" xmlns:xlink="http://www.w3.org/1999/xlink">
<g id="graph0" class="graph" transform="scale(1 1) rotate(0) translate(4 319)">
<title>Ogre::HardwareVertexBuffer</title>
<!-- Node1 -->
<g id="node1" class="node">
<title>Node1</title>
<g id="a_node1"><a xlink:title="Specialisation of HardwareBuffer for a vertex buffer.">
<polygon fill="#bfbfbf" stroke="black" points="266,-143 266,-162 421,-162 421,-143 266,-143"/>
<text text-anchor="middle" x="343.5" y="-150" font-family="Helvetica,sans-Serif" font-size="10.00">Ogre::HardwareVertexBuffer</text>
</a>
</g>
</g>
<!-- Node4 -->
<g id="node4" class="node">
<title>Node4</title>
<g id="a_node4"><a xlink:href="class_ogre_1_1_d3_d11_hardware_vertex_buffer.html" target="_top" xlink:title="Specialisation of HardwareVertexBuffer for D3D11.">
<polygon fill="none" stroke="black" points="462,-284.5 462,-314.5 620,-314.5 620,-284.5 462,-284.5"/>
<text text-anchor="start" x="470" y="-302.5" font-family="Helvetica,sans-Serif" font-size="10.00">Ogre::D3D11HardwareVertex</text>
<text text-anchor="middle" x="541" y="-291.5" font-family="Helvetica,sans-Serif" font-size="10.00">Buffer</text>
</a>
</g>
</g>
<!-- Node1&#45;&gt;Node4 -->
<g id="edge3" class="edge">
<title>Node1&#45;&gt;Node4</title>
<path fill="none" stroke="midnightblue" d="M356.17,-170.61C374.44,-197.5 412.36,-247.78 457,-275.5 462.48,-278.9 468.46,-281.84 474.62,-284.37"/>
<polygon fill="midnightblue" stroke="midnightblue" points="359,-168.54 350.55,-162.15 353.17,-172.41 359,-168.54"/>
</g>
<!-- Node5 -->
<g id="node5" class="node">
<title>Node5</title>
<g id="a_node5"><a xlink:href="class_ogre_1_1_d3_d9_hardware_vertex_buffer.html" target="_top" xlink:title="Specialisation of HardwareVertexBuffer for D3D9.">
<polygon fill="none" stroke="black" points="465,-235.5 465,-265.5 617,-265.5 617,-235.5 465,-235.5"/>
<text text-anchor="start" x="473" y="-253.5" font-family="Helvetica,sans-Serif" font-size="10.00">Ogre::D3D9HardwareVertex</text>
<text text-anchor="middle" x="541" y="-242.5" font-family="Helvetica,sans-Serif" font-size="10.00">Buffer</text>
</a>
</g>
</g>
<!-- Node1&#45;&gt;Node5 -->
<g id="edge4" class="edge">
<title>Node1&#45;&gt;Node5</title>
<path fill="none" stroke="midnightblue" d="M364.71,-168.51C386.42,-185.04 422.47,-210.6 457,-226.5 464.22,-229.83 472.01,-232.8 479.82,-235.43"/>
<polygon fill="midnightblue" stroke="midnightblue" points="366.65,-165.59 356.6,-162.24 362.37,-171.13 366.65,-165.59"/>
</g>
<!-- Node6 -->
<g id="node6" class="node">
<title>Node6</title>
<g id="a_node6"><a xlink:href="class_ogre_1_1_default_hardware_vertex_buffer.html" target="_top" xlink:title="Specialisation of HardwareVertexBuffer for emulation.">
<polygon fill="none" stroke="black" points="460.5,-186.5 460.5,-216.5 621.5,-216.5 621.5,-186.5 460.5,-186.5"/>
<text text-anchor="start" x="468.5" y="-204.5" font-family="Helvetica,sans-Serif" font-size="10.00">Ogre::DefaultHardwareVertex</text>
<text text-anchor="middle" x="541" y="-193.5" font-family="Helvetica,sans-Serif" font-size="10.00">Buffer</text>
</a>
</g>
</g>
<!-- Node1&#45;&gt;Node6 -->
<g id="edge5" class="edge">
<title>Node1&#45;&gt;Node6</title>
<path fill="none" stroke="midnightblue" d="M392.43,-164.51C418.85,-171.14 451.89,-179.42 480.01,-186.46"/>
<polygon fill="midnightblue" stroke="midnightblue" points="393.21,-161.1 382.66,-162.06 391.51,-167.89 393.21,-161.1"/>
</g>
<!-- Node7 -->
<g id="node7" class="node">
<title>Node7</title>
<g id="a_node7"><a xlink:href="class_ogre_1_1_g_l3_plus_hardware_vertex_buffer.html" target="_top" xlink:title="Specialisation of HardwareVertexBuffer for OpenGL.">
<polygon fill="none" stroke="black" points="459,-137.5 459,-167.5 623,-167.5 623,-137.5 459,-137.5"/>
<text text-anchor="start" x="467" y="-155.5" font-family="Helvetica,sans-Serif" font-size="10.00">Ogre::GL3PlusHardwareVertex</text>
<text text-anchor="middle" x="541" y="-144.5" font-family="Helvetica,sans-Serif" font-size="10.00">Buffer</text>
</a>
</g>
</g>
<!-- Node1&#45;&gt;Node7 -->
<g id="edge6" class="edge">
<title>Node1&#45;&gt;Node7</title>
<path fill="none" stroke="midnightblue" d="M431.38,-152.5C440.46,-152.5 449.67,-152.5 458.68,-152.5"/>
<polygon fill="midnightblue" stroke="midnightblue" points="431.21,-149 421.21,-152.5 431.21,-156 431.21,-149"/>
</g>
<!-- Node8 -->
<g id="node8" class="node">
<title>Node8</title>
<g id="a_node8"><a xlink:href="class_ogre_1_1_g_l_e_s2_hardware_vertex_buffer.html" target="_top" xlink:title="Specialisation of HardwareVertexBuffer for OpenGL ES.">
<polygon fill="none" stroke="black" points="463,-88.5 463,-118.5 619,-118.5 619,-88.5 463,-88.5"/>
<text text-anchor="start" x="471" y="-106.5" font-family="Helvetica,sans-Serif" font-size="10.00">Ogre::GLES2HardwareVertex</text>
<text text-anchor="middle" x="541" y="-95.5" font-family="Helvetica,sans-Serif" font-size="10.00">Buffer</text>
</a>
</g>
</g>
<!-- Node1&#45;&gt;Node8 -->
<g id="edge7" class="edge">
<title>Node1&#45;&gt;Node8</title>
<path fill="none" stroke="midnightblue" d="M392.43,-140.49C418.85,-133.86 451.89,-125.58 480.01,-118.54"/>
<polygon fill="midnightblue" stroke="midnightblue" points="391.51,-137.11 382.66,-142.94 393.21,-143.9 391.51,-137.11"/>
</g>
<!-- Node9 -->
<g id="node9" class="node">
<title>Node9</title>
<g id="a_node9"><a xlink:href="class_ogre_1_1_g_l_hardware_vertex_buffer.html" target="_top" xlink:title="Specialisation of HardwareVertexBuffer for OpenGL.">
<polygon fill="none" stroke="black" points="457,-50 457,-69 625,-69 625,-50 457,-50"/>
<text text-anchor="middle" x="541" y="-57" font-family="Helvetica,sans-Serif" font-size="10.00">Ogre::GLHardwareVertexBuffer</text>
</a>
</g>
</g>
<!-- Node1&#45;&gt;Node9 -->
<g id="edge8" class="edge">
<title>Node1&#45;&gt;Node9</title>
<path fill="none" stroke="midnightblue" d="M364.19,-136.37C385.72,-119.52 421.85,-93.5 457,-78.5 465.97,-74.67 475.84,-71.55 485.53,-69.03"/>
<polygon fill="midnightblue" stroke="midnightblue" points="361.81,-133.79 356.16,-142.76 366.17,-139.27 361.81,-133.79"/>
</g>
<!-- Node10 -->
<g id="node10" class="node">
<title>Node10</title>
<g id="a_node10"><a xlink:href="class_ogre_1_1_metal_hardware_vertex_buffer.html" target="_top" xlink:title="Specialisation of HardwareVertexBuffer for Metal.">
<polygon fill="none" stroke="black" points="464.5,-0.5 464.5,-30.5 617.5,-30.5 617.5,-0.5 464.5,-0.5"/>
<text text-anchor="start" x="472.5" y="-18.5" font-family="Helvetica,sans-Serif" font-size="10.00">Ogre::MetalHardwareVertex</text>
<text text-anchor="middle" x="541" y="-7.5" font-family="Helvetica,sans-Serif" font-size="10.00">Buffer</text>
</a>
</g>
</g>
<!-- Node1&#45;&gt;Node10 -->
<g id="edge9" class="edge">
<title>Node1&#45;&gt;Node10</title>
<path fill="none" stroke="midnightblue" d="M357.69,-134.69C376.88,-110.02 414.84,-65.65 457,-40.5 463.46,-36.65 470.57,-33.34 477.81,-30.52"/>
<polygon fill="midnightblue" stroke="midnightblue" points="354.78,-132.75 351.5,-142.82 360.35,-136.99 354.78,-132.75"/>
</g>
<!-- Node2 -->
<g id="node2" class="node">
<title>Node2</title>
<g id="a_node2"><a xlink:href="class_ogre_1_1_hardware_buffer.html" target="_top" xlink:title="Abstract class defining common features of hardware buffers.">
<polygon fill="none" stroke="black" points="107,-143 107,-162 230,-162 230,-143 107,-143"/>
<text text-anchor="middle" x="168.5" y="-150" font-family="Helvetica,sans-Serif" font-size="10.00">Ogre::HardwareBuffer</text>
</a>
</g>
</g>
<!-- Node2&#45;&gt;Node1 -->
<g id="edge1" class="edge">
<title>Node2&#45;&gt;Node1</title>
<path fill="none" stroke="midnightblue" d="M240.21,-152.5C248.68,-152.5 257.36,-152.5 265.91,-152.5"/>
<polygon fill="midnightblue" stroke="midnightblue" points="240.01,-149 230.01,-152.5 240.01,-156 240.01,-149"/>
</g>
<!-- Node3 -->
<g id="node3" class="node">
<title>Node3</title>
<g id="a_node3"><a xlink:title=" ">
<polygon fill="none" stroke="#bfbfbf" points="0,-143 0,-162 71,-162 71,-143 0,-143"/>
<text text-anchor="middle" x="35.5" y="-150" font-family="Helvetica,sans-Serif" font-size="10.00">BufferAlloc</text>
</a>
</g>
</g>
<!-- Node3&#45;&gt;Node2 -->
<g id="edge2" class="edge">
<title>Node3&#45;&gt;Node2</title>
<path fill="none" stroke="midnightblue" d="M81.4,-152.5C89.64,-152.5 98.37,-152.5 106.99,-152.5"/>
<polygon fill="midnightblue" stroke="midnightblue" points="81.26,-149 71.26,-152.5 81.26,-156 81.26,-149"/>
</g>
</g>
</svg>
