<?xml version="1.0" encoding="UTF-8" standalone="no"?>
<!DOCTYPE svg PUBLIC "-//W3C//DTD SVG 1.1//EN"
 "http://www.w3.org/Graphics/SVG/1.1/DTD/svg11.dtd">
<!-- Generated by graphviz version 2.43.0 (0)
 -->
<!-- Title: Ogre::HardwarePixelBuffer Pages: 1 -->
<svg width="1014pt" height="227pt"
 viewBox="0.00 0.00 1014.00 226.50" xmlns="http://www.w3.org/2000/svg" xmlns:xlink="http://www.w3.org/1999/xlink">
<g id="graph0" class="graph" transform="scale(1 1) rotate(0) translate(4 222.5)">
<title>Ogre::HardwarePixelBuffer</title>
<!-- Node1 -->
<g id="node1" class="node">
<title>Node1</title>
<g id="a_node1"><a xlink:title="Specialisation of HardwareBuffer for a pixel buffer.">
<polygon fill="#bfbfbf" stroke="black" points="266,-94 266,-113 413,-113 413,-94 266,-94"/>
<text text-anchor="middle" x="339.5" y="-101" font-family="Helvetica,sans-Serif" font-size="10.00">Ogre::HardwarePixelBuffer</text>
</a>
</g>
</g>
<!-- Node4 -->
<g id="node4" class="node">
<title>Node4</title>
<g id="a_node4"><a xlink:href="class_ogre_1_1_d3_d11_hardware_pixel_buffer.html" target="_top" xlink:title=" ">
<polygon fill="none" stroke="black" points="461,-176.5 461,-206.5 611,-206.5 611,-176.5 461,-176.5"/>
<text text-anchor="start" x="469" y="-194.5" font-family="Helvetica,sans-Serif" font-size="10.00">Ogre::D3D11HardwarePixel</text>
<text text-anchor="middle" x="536" y="-183.5" font-family="Helvetica,sans-Serif" font-size="10.00">Buffer</text>
</a>
</g>
</g>
<!-- Node1&#45;&gt;Node4 -->
<g id="edge3" class="edge">
<title>Node1&#45;&gt;Node4</title>
<path fill="none" stroke="midnightblue" d="M362.68,-118.54C384.04,-132.49 417.64,-153.07 449,-166.5 457.58,-170.17 466.86,-173.5 476.04,-176.43"/>
<polygon fill="midnightblue" stroke="midnightblue" points="364.59,-115.61 354.31,-113.01 360.72,-121.44 364.59,-115.61"/>
</g>
<!-- Node5 -->
<g id="node5" class="node">
<title>Node5</title>
<g id="a_node5"><a xlink:href="class_ogre_1_1_d3_d9_hardware_pixel_buffer.html" target="_top" xlink:title=" ">
<polygon fill="none" stroke="black" points="449,-138 449,-157 623,-157 623,-138 449,-138"/>
<text text-anchor="middle" x="536" y="-145" font-family="Helvetica,sans-Serif" font-size="10.00">Ogre::D3D9HardwarePixelBuffer</text>
</a>
</g>
</g>
<!-- Node1&#45;&gt;Node5 -->
<g id="edge4" class="edge">
<title>Node1&#45;&gt;Node5</title>
<path fill="none" stroke="midnightblue" d="M391.27,-115.3C409.47,-119.5 430.15,-124.25 449,-128.5 462.72,-131.6 477.69,-134.92 491.23,-137.91"/>
<polygon fill="midnightblue" stroke="midnightblue" points="391.97,-111.87 381.44,-113.03 390.39,-118.69 391.97,-111.87"/>
</g>
<!-- Node6 -->
<g id="node6" class="node">
<title>Node6</title>
<g id="a_node6"><a xlink:href="class_ogre_1_1_g_l_hardware_pixel_buffer_common.html" target="_top" xlink:title=" ">
<polygon fill="none" stroke="black" points="456,-88.5 456,-118.5 616,-118.5 616,-88.5 456,-88.5"/>
<text text-anchor="start" x="464" y="-106.5" font-family="Helvetica,sans-Serif" font-size="10.00">Ogre::GLHardwarePixelBuffer</text>
<text text-anchor="middle" x="536" y="-95.5" font-family="Helvetica,sans-Serif" font-size="10.00">Common</text>
</a>
</g>
</g>
<!-- Node1&#45;&gt;Node6 -->
<g id="edge5" class="edge">
<title>Node1&#45;&gt;Node6</title>
<path fill="none" stroke="midnightblue" d="M423.42,-103.5C434.18,-103.5 445.17,-103.5 455.87,-103.5"/>
<polygon fill="midnightblue" stroke="midnightblue" points="423.2,-100 413.2,-103.5 423.2,-107 423.2,-100"/>
</g>
<!-- Node16 -->
<g id="node16" class="node">
<title>Node16</title>
<g id="a_node16"><a xlink:href="class_ogre_1_1_metal_depth_pixel_buffer.html" target="_top" xlink:title=" ">
<polygon fill="none" stroke="black" points="457.5,-50 457.5,-69 614.5,-69 614.5,-50 457.5,-50"/>
<text text-anchor="middle" x="536" y="-57" font-family="Helvetica,sans-Serif" font-size="10.00">Ogre::MetalDepthPixelBuffer</text>
</a>
</g>
</g>
<!-- Node1&#45;&gt;Node16 -->
<g id="edge15" class="edge">
<title>Node1&#45;&gt;Node16</title>
<path fill="none" stroke="midnightblue" d="M391.27,-91.7C409.47,-87.5 430.15,-82.75 449,-78.5 462.72,-75.4 477.69,-72.08 491.23,-69.09"/>
<polygon fill="midnightblue" stroke="midnightblue" points="390.39,-88.31 381.44,-93.97 391.97,-95.13 390.39,-88.31"/>
</g>
<!-- Node17 -->
<g id="node17" class="node">
<title>Node17</title>
<g id="a_node17"><a xlink:href="class_ogre_1_1_metal_hardware_pixel_buffer.html" target="_top" xlink:title=" ">
<polygon fill="none" stroke="black" points="463.5,-0.5 463.5,-30.5 608.5,-30.5 608.5,-0.5 463.5,-0.5"/>
<text text-anchor="start" x="471.5" y="-18.5" font-family="Helvetica,sans-Serif" font-size="10.00">Ogre::MetalHardwarePixel</text>
<text text-anchor="middle" x="536" y="-7.5" font-family="Helvetica,sans-Serif" font-size="10.00">Buffer</text>
</a>
</g>
</g>
<!-- Node1&#45;&gt;Node17 -->
<g id="edge16" class="edge">
<title>Node1&#45;&gt;Node17</title>
<path fill="none" stroke="midnightblue" d="M362.68,-88.46C384.04,-74.51 417.64,-53.93 449,-40.5 457.58,-36.83 466.86,-33.5 476.04,-30.57"/>
<polygon fill="midnightblue" stroke="midnightblue" points="360.72,-85.56 354.31,-93.99 364.59,-91.39 360.72,-85.56"/>
</g>
<!-- Node2 -->
<g id="node2" class="node">
<title>Node2</title>
<g id="a_node2"><a xlink:href="class_ogre_1_1_hardware_buffer.html" target="_top" xlink:title="Abstract class defining common features of hardware buffers.">
<polygon fill="none" stroke="black" points="107,-94 107,-113 230,-113 230,-94 107,-94"/>
<text text-anchor="middle" x="168.5" y="-101" font-family="Helvetica,sans-Serif" font-size="10.00">Ogre::HardwareBuffer</text>
</a>
</g>
</g>
<!-- Node2&#45;&gt;Node1 -->
<g id="edge1" class="edge">
<title>Node2&#45;&gt;Node1</title>
<path fill="none" stroke="midnightblue" d="M240.28,-103.5C248.78,-103.5 257.46,-103.5 265.98,-103.5"/>
<polygon fill="midnightblue" stroke="midnightblue" points="240.04,-100 230.04,-103.5 240.04,-107 240.04,-100"/>
</g>
<!-- Node3 -->
<g id="node3" class="node">
<title>Node3</title>
<g id="a_node3"><a xlink:title=" ">
<polygon fill="none" stroke="#bfbfbf" points="0,-94 0,-113 71,-113 71,-94 0,-94"/>
<text text-anchor="middle" x="35.5" y="-101" font-family="Helvetica,sans-Serif" font-size="10.00">BufferAlloc</text>
</a>
</g>
</g>
<!-- Node3&#45;&gt;Node2 -->
<g id="edge2" class="edge">
<title>Node3&#45;&gt;Node2</title>
<path fill="none" stroke="midnightblue" d="M81.4,-103.5C89.64,-103.5 98.37,-103.5 106.99,-103.5"/>
<polygon fill="midnightblue" stroke="midnightblue" points="81.26,-100 71.26,-103.5 81.26,-107 81.26,-100"/>
</g>
<!-- Node7 -->
<g id="node7" class="node">
<title>Node7</title>
<g id="a_node7"><a xlink:href="class_ogre_1_1_g_l3_plus_hardware_pixel_buffer.html" target="_top" xlink:title=" ">
<polygon fill="none" stroke="black" points="661,-155.5 661,-185.5 817,-185.5 817,-155.5 661,-155.5"/>
<text text-anchor="start" x="669" y="-173.5" font-family="Helvetica,sans-Serif" font-size="10.00">Ogre::GL3PlusHardwarePixel</text>
<text text-anchor="middle" x="739" y="-162.5" font-family="Helvetica,sans-Serif" font-size="10.00">Buffer</text>
</a>
</g>
</g>
<!-- Node6&#45;&gt;Node7 -->
<g id="edge6" class="edge">
<title>Node6&#45;&gt;Node7</title>
<path fill="none" stroke="midnightblue" d="M600.45,-121.42C608.07,-123.73 615.73,-126.12 623,-128.5 648.45,-136.84 676.71,-147.14 698.84,-155.46"/>
<polygon fill="midnightblue" stroke="midnightblue" points="601.43,-118.06 590.85,-118.55 599.42,-124.77 601.43,-118.06"/>
</g>
<!-- Node10 -->
<g id="node10" class="node">
<title>Node10</title>
<g id="a_node10"><a xlink:href="class_ogre_1_1_g_l_e_s2_hardware_pixel_buffer.html" target="_top" xlink:title=" ">
<polygon fill="none" stroke="black" points="665,-88.5 665,-118.5 813,-118.5 813,-88.5 665,-88.5"/>
<text text-anchor="start" x="673" y="-106.5" font-family="Helvetica,sans-Serif" font-size="10.00">Ogre::GLES2HardwarePixel</text>
<text text-anchor="middle" x="739" y="-95.5" font-family="Helvetica,sans-Serif" font-size="10.00">Buffer</text>
</a>
</g>
</g>
<!-- Node6&#45;&gt;Node10 -->
<g id="edge9" class="edge">
<title>Node6&#45;&gt;Node10</title>
<path fill="none" stroke="midnightblue" d="M626.39,-103.5C639.24,-103.5 652.33,-103.5 664.81,-103.5"/>
<polygon fill="midnightblue" stroke="midnightblue" points="626.15,-100 616.15,-103.5 626.15,-107 626.15,-100"/>
</g>
<!-- Node13 -->
<g id="node13" class="node">
<title>Node13</title>
<g id="a_node13"><a xlink:href="class_ogre_1_1_g_l_hardware_pixel_buffer.html" target="_top" xlink:title=" ">
<polygon fill="none" stroke="black" points="659,-47 659,-66 819,-66 819,-47 659,-47"/>
<text text-anchor="middle" x="739" y="-54" font-family="Helvetica,sans-Serif" font-size="10.00">Ogre::GLHardwarePixelBuffer</text>
</a>
</g>
</g>
<!-- Node6&#45;&gt;Node13 -->
<g id="edge12" class="edge">
<title>Node6&#45;&gt;Node13</title>
<path fill="none" stroke="midnightblue" d="M610.9,-86.22C640.04,-79.4 672.41,-71.84 697.19,-66.04"/>
<polygon fill="midnightblue" stroke="midnightblue" points="610.09,-82.81 601.15,-88.5 611.68,-89.63 610.09,-82.81"/>
</g>
<!-- Node8 -->
<g id="node8" class="node">
<title>Node8</title>
<g id="a_node8"><a xlink:href="class_ogre_1_1_g_l3_plus_render_buffer.html" target="_top" xlink:title="Renderbuffer surface.">
<polygon fill="none" stroke="black" points="856,-199 856,-218 1005,-218 1005,-199 856,-199"/>
<text text-anchor="middle" x="930.5" y="-206" font-family="Helvetica,sans-Serif" font-size="10.00">Ogre::GL3PlusRenderBuffer</text>
</a>
</g>
</g>
<!-- Node7&#45;&gt;Node8 -->
<g id="edge7" class="edge">
<title>Node7&#45;&gt;Node8</title>
<path fill="none" stroke="midnightblue" d="M824.8,-187.51C844.48,-191.45 864.73,-195.51 882.12,-199"/>
<polygon fill="midnightblue" stroke="midnightblue" points="825.39,-184.05 814.9,-185.52 824.01,-190.92 825.39,-184.05"/>
</g>
<!-- Node9 -->
<g id="node9" class="node">
<title>Node9</title>
<g id="a_node9"><a xlink:href="class_ogre_1_1_g_l3_plus_texture_buffer.html" target="_top" xlink:title="Texture surface.">
<polygon fill="none" stroke="black" points="855,-161 855,-180 1006,-180 1006,-161 855,-161"/>
<text text-anchor="middle" x="930.5" y="-168" font-family="Helvetica,sans-Serif" font-size="10.00">Ogre::GL3PlusTextureBuffer</text>
</a>
</g>
</g>
<!-- Node7&#45;&gt;Node9 -->
<g id="edge8" class="edge">
<title>Node7&#45;&gt;Node9</title>
<path fill="none" stroke="midnightblue" d="M827.11,-170.5C836.41,-170.5 845.81,-170.5 854.94,-170.5"/>
<polygon fill="midnightblue" stroke="midnightblue" points="827.08,-167 817.08,-170.5 827.08,-174 827.08,-167"/>
</g>
<!-- Node11 -->
<g id="node11" class="node">
<title>Node11</title>
<g id="a_node11"><a xlink:href="class_ogre_1_1_g_l_e_s2_render_buffer.html" target="_top" xlink:title="Renderbuffer surface.">
<polygon fill="none" stroke="black" points="860,-123 860,-142 1001,-142 1001,-123 860,-123"/>
<text text-anchor="middle" x="930.5" y="-130" font-family="Helvetica,sans-Serif" font-size="10.00">Ogre::GLES2RenderBuffer</text>
</a>
</g>
</g>
<!-- Node10&#45;&gt;Node11 -->
<g id="edge10" class="edge">
<title>Node10&#45;&gt;Node11</title>
<path fill="none" stroke="midnightblue" d="M823.38,-116.26C838.1,-118.51 853.19,-120.82 867.2,-122.97"/>
<polygon fill="midnightblue" stroke="midnightblue" points="823.68,-112.77 813.27,-114.71 822.62,-119.68 823.68,-112.77"/>
</g>
<!-- Node12 -->
<g id="node12" class="node">
<title>Node12</title>
<g id="a_node12"><a xlink:href="class_ogre_1_1_g_l_e_s2_texture_buffer.html" target="_top" xlink:title="Texture surface.">
<polygon fill="none" stroke="black" points="859,-85 859,-104 1002,-104 1002,-85 859,-85"/>
<text text-anchor="middle" x="930.5" y="-92" font-family="Helvetica,sans-Serif" font-size="10.00">Ogre::GLES2TextureBuffer</text>
</a>
</g>
</g>
<!-- Node10&#45;&gt;Node12 -->
<g id="edge11" class="edge">
<title>Node10&#45;&gt;Node12</title>
<path fill="none" stroke="midnightblue" d="M823.56,-99.53C835.36,-98.97 847.4,-98.4 858.92,-97.85"/>
<polygon fill="midnightblue" stroke="midnightblue" points="823.09,-96.05 813.27,-100.02 823.42,-103.04 823.09,-96.05"/>
</g>
<!-- Node14 -->
<g id="node14" class="node">
<title>Node14</title>
<g id="a_node14"><a xlink:href="class_ogre_1_1_g_l_render_buffer.html" target="_top" xlink:title="Renderbuffer surface.">
<polygon fill="none" stroke="black" points="869,-47 869,-66 992,-66 992,-47 869,-47"/>
<text text-anchor="middle" x="930.5" y="-54" font-family="Helvetica,sans-Serif" font-size="10.00">Ogre::GLRenderBuffer</text>
</a>
</g>
</g>
<!-- Node13&#45;&gt;Node14 -->
<g id="edge13" class="edge">
<title>Node13&#45;&gt;Node14</title>
<path fill="none" stroke="midnightblue" d="M829.4,-56.5C842.72,-56.5 856.17,-56.5 868.71,-56.5"/>
<polygon fill="midnightblue" stroke="midnightblue" points="829.27,-53 819.27,-56.5 829.27,-60 829.27,-53"/>
</g>
<!-- Node15 -->
<g id="node15" class="node">
<title>Node15</title>
<g id="a_node15"><a xlink:href="class_ogre_1_1_g_l_texture_buffer.html" target="_top" xlink:title="Texture surface.">
<polygon fill="none" stroke="black" points="868.5,-9 868.5,-28 992.5,-28 992.5,-9 868.5,-9"/>
<text text-anchor="middle" x="930.5" y="-16" font-family="Helvetica,sans-Serif" font-size="10.00">Ogre::GLTextureBuffer</text>
</a>
</g>
</g>
<!-- Node13&#45;&gt;Node15 -->
<g id="edge14" class="edge">
<title>Node13&#45;&gt;Node15</title>
<path fill="none" stroke="midnightblue" d="M797.89,-44.89C824.85,-39.49 856.51,-33.14 882.03,-28.02"/>
<polygon fill="midnightblue" stroke="midnightblue" points="796.94,-41.51 787.82,-46.91 798.31,-48.38 796.94,-41.51"/>
</g>
<!-- Node18 -->
<g id="node18" class="node">
<title>Node18</title>
<g id="a_node18"><a xlink:href="class_ogre_1_1_metal_texture_buffer.html" target="_top" xlink:title="Texture surface.">
<polygon fill="none" stroke="black" points="669,-6 669,-25 809,-25 809,-6 669,-6"/>
<text text-anchor="middle" x="739" y="-13" font-family="Helvetica,sans-Serif" font-size="10.00">Ogre::MetalTextureBuffer</text>
</a>
</g>
</g>
<!-- Node17&#45;&gt;Node18 -->
<g id="edge17" class="edge">
<title>Node17&#45;&gt;Node18</title>
<path fill="none" stroke="midnightblue" d="M618.89,-15.5C635.42,-15.5 652.63,-15.5 668.67,-15.5"/>
<polygon fill="midnightblue" stroke="midnightblue" points="618.71,-12 608.71,-15.5 618.71,-19 618.71,-12"/>
</g>
</g>
</svg>
