<?xml version="1.0" encoding="UTF-8" standalone="no"?>
<!DOCTYPE svg PUBLIC "-//W3C//DTD SVG 1.1//EN"
 "http://www.w3.org/Graphics/SVG/1.1/DTD/svg11.dtd">
<!-- Generated by graphviz version 2.43.0 (0)
 -->
<!-- Title: Ogre::ParticleAffectorFactory Pages: 1 -->
<svg width="451pt" height="410pt"
 viewBox="0.00 0.00 451.00 409.50" xmlns="http://www.w3.org/2000/svg" xmlns:xlink="http://www.w3.org/1999/xlink">
<g id="graph0" class="graph" transform="scale(1 1) rotate(0) translate(4 405.5)">
<title>Ogre::ParticleAffectorFactory</title>
<!-- Node1 -->
<g id="node1" class="node">
<title>Node1</title>
<g id="a_node1"><a xlink:title="Abstract class defining the interface to be implemented by creators of ParticleAffector subclasses.">
<polygon fill="#bfbfbf" stroke="black" points="89,-180.5 89,-199.5 246,-199.5 246,-180.5 89,-180.5"/>
<text text-anchor="middle" x="167.5" y="-187.5" font-family="Helvetica,sans-Serif" font-size="10.00">Ogre::ParticleAffectorFactory</text>
</a>
</g>
</g>
<!-- Node3 -->
<g id="node3" class="node">
<title>Node3</title>
<g id="a_node3"><a xlink:href="class_ogre_1_1_colour_fader_affector_factory.html" target="_top" xlink:title="Factory class for ColourFaderAffector.">
<polygon fill="none" stroke="black" points="291,-371 291,-401 434,-401 434,-371 291,-371"/>
<text text-anchor="start" x="299" y="-389" font-family="Helvetica,sans-Serif" font-size="10.00">Ogre::ColourFaderAffector</text>
<text text-anchor="middle" x="362.5" y="-378" font-family="Helvetica,sans-Serif" font-size="10.00">Factory</text>
</a>
</g>
</g>
<!-- Node1&#45;&gt;Node3 -->
<g id="edge2" class="edge">
<title>Node1&#45;&gt;Node3</title>
<path fill="none" stroke="midnightblue" d="M176.09,-209.62C190.91,-245.35 227.14,-321.13 282,-362 286.62,-365.45 291.74,-368.4 297.09,-370.93"/>
<polygon fill="midnightblue" stroke="midnightblue" points="179.16,-207.87 172.18,-199.89 172.66,-210.48 179.16,-207.87"/>
</g>
<!-- Node4 -->
<g id="node4" class="node">
<title>Node4</title>
<g id="a_node4"><a xlink:href="class_ogre_1_1_colour_fader_affector_factory2.html" target="_top" xlink:title="Factory class for ColourFaderAffector.">
<polygon fill="none" stroke="black" points="291,-322 291,-352 434,-352 434,-322 291,-322"/>
<text text-anchor="start" x="299" y="-340" font-family="Helvetica,sans-Serif" font-size="10.00">Ogre::ColourFaderAffector</text>
<text text-anchor="middle" x="362.5" y="-329" font-family="Helvetica,sans-Serif" font-size="10.00">Factory2</text>
</a>
</g>
</g>
<!-- Node1&#45;&gt;Node4 -->
<g id="edge3" class="edge">
<title>Node1&#45;&gt;Node4</title>
<path fill="none" stroke="midnightblue" d="M180.36,-208.04C198.89,-234.84 237.28,-285 282,-313 287.5,-316.44 293.52,-319.42 299.71,-321.98"/>
<polygon fill="midnightblue" stroke="midnightblue" points="183.16,-205.93 174.65,-199.61 177.36,-209.85 183.16,-205.93"/>
</g>
<!-- Node5 -->
<g id="node5" class="node">
<title>Node5</title>
<g id="a_node5"><a xlink:href="class_ogre_1_1_colour_image_affector_factory.html" target="_top" xlink:title="Factory class for ColourImageAffector.">
<polygon fill="none" stroke="black" points="289.5,-273 289.5,-303 435.5,-303 435.5,-273 289.5,-273"/>
<text text-anchor="start" x="297.5" y="-291" font-family="Helvetica,sans-Serif" font-size="10.00">Ogre::ColourImageAffector</text>
<text text-anchor="middle" x="362.5" y="-280" font-family="Helvetica,sans-Serif" font-size="10.00">Factory</text>
</a>
</g>
</g>
<!-- Node1&#45;&gt;Node5 -->
<g id="edge4" class="edge">
<title>Node1&#45;&gt;Node5</title>
<path fill="none" stroke="midnightblue" d="M188.95,-205.92C210.91,-222.37 247.32,-247.87 282,-264 289.06,-267.28 296.68,-270.25 304.3,-272.89"/>
<polygon fill="midnightblue" stroke="midnightblue" points="190.82,-202.95 180.74,-199.68 186.59,-208.52 190.82,-202.95"/>
</g>
<!-- Node6 -->
<g id="node6" class="node">
<title>Node6</title>
<g id="a_node6"><a xlink:href="class_ogre_1_1_colour_interpolator_affector_factory.html" target="_top" xlink:title="Factory class for ColourInterpolatorAffector.">
<polygon fill="none" stroke="black" points="295.5,-224 295.5,-254 429.5,-254 429.5,-224 295.5,-224"/>
<text text-anchor="start" x="303.5" y="-242" font-family="Helvetica,sans-Serif" font-size="10.00">Ogre::ColourInterpolator</text>
<text text-anchor="middle" x="362.5" y="-231" font-family="Helvetica,sans-Serif" font-size="10.00">AffectorFactory</text>
</a>
</g>
</g>
<!-- Node1&#45;&gt;Node6 -->
<g id="edge5" class="edge">
<title>Node1&#45;&gt;Node6</title>
<path fill="none" stroke="midnightblue" d="M216.17,-202.1C242.19,-208.71 274.64,-216.95 302.27,-223.96"/>
<polygon fill="midnightblue" stroke="midnightblue" points="216.72,-198.63 206.17,-199.56 215,-205.42 216.72,-198.63"/>
</g>
<!-- Node7 -->
<g id="node7" class="node">
<title>Node7</title>
<g id="a_node7"><a xlink:href="class_ogre_1_1_deflector_plane_affector_factory.html" target="_top" xlink:title="Factory class for DeflectorPlaneAffector.">
<polygon fill="none" stroke="black" points="284.5,-175 284.5,-205 440.5,-205 440.5,-175 284.5,-175"/>
<text text-anchor="start" x="292.5" y="-193" font-family="Helvetica,sans-Serif" font-size="10.00">Ogre::DeflectorPlaneAffector</text>
<text text-anchor="middle" x="362.5" y="-182" font-family="Helvetica,sans-Serif" font-size="10.00">Factory</text>
</a>
</g>
</g>
<!-- Node1&#45;&gt;Node7 -->
<g id="edge6" class="edge">
<title>Node1&#45;&gt;Node7</title>
<path fill="none" stroke="midnightblue" d="M256.26,-190C265.62,-190 275.08,-190 284.31,-190"/>
<polygon fill="midnightblue" stroke="midnightblue" points="256.17,-186.5 246.17,-190 256.17,-193.5 256.17,-186.5"/>
</g>
<!-- Node8 -->
<g id="node8" class="node">
<title>Node8</title>
<g id="a_node8"><a xlink:href="class_ogre_1_1_direction_randomiser_affector_factory.html" target="_top" xlink:title="Factory class for DirectionRandomiserAffector.">
<polygon fill="none" stroke="black" points="288,-126 288,-156 437,-156 437,-126 288,-126"/>
<text text-anchor="start" x="296" y="-144" font-family="Helvetica,sans-Serif" font-size="10.00">Ogre::DirectionRandomiser</text>
<text text-anchor="middle" x="362.5" y="-133" font-family="Helvetica,sans-Serif" font-size="10.00">AffectorFactory</text>
</a>
</g>
</g>
<!-- Node1&#45;&gt;Node8 -->
<g id="edge7" class="edge">
<title>Node1&#45;&gt;Node8</title>
<path fill="none" stroke="midnightblue" d="M216.17,-177.9C242.19,-171.29 274.64,-163.05 302.27,-156.04"/>
<polygon fill="midnightblue" stroke="midnightblue" points="215,-174.58 206.17,-180.44 216.72,-181.37 215,-174.58"/>
</g>
<!-- Node9 -->
<g id="node9" class="node">
<title>Node9</title>
<g id="a_node9"><a xlink:href="class_ogre_1_1_linear_force_affector_factory.html" target="_top" xlink:title="Factory class for LinearForceAffector.">
<polygon fill="none" stroke="black" points="292.5,-77 292.5,-107 432.5,-107 432.5,-77 292.5,-77"/>
<text text-anchor="start" x="300.5" y="-95" font-family="Helvetica,sans-Serif" font-size="10.00">Ogre::LinearForceAffector</text>
<text text-anchor="middle" x="362.5" y="-84" font-family="Helvetica,sans-Serif" font-size="10.00">Factory</text>
</a>
</g>
</g>
<!-- Node1&#45;&gt;Node9 -->
<g id="edge8" class="edge">
<title>Node1&#45;&gt;Node9</title>
<path fill="none" stroke="midnightblue" d="M188.95,-174.08C210.91,-157.63 247.32,-132.13 282,-116 289.06,-112.72 296.68,-109.75 304.3,-107.11"/>
<polygon fill="midnightblue" stroke="midnightblue" points="186.59,-171.48 180.74,-180.32 190.82,-177.05 186.59,-171.48"/>
</g>
<!-- Node10 -->
<g id="node10" class="node">
<title>Node10</title>
<g id="a_node10"><a xlink:href="class_ogre_1_1_rotation_affector_factory.html" target="_top" xlink:title="Factory class for RotationAffector.">
<polygon fill="none" stroke="black" points="282,-38.5 282,-57.5 443,-57.5 443,-38.5 282,-38.5"/>
<text text-anchor="middle" x="362.5" y="-45.5" font-family="Helvetica,sans-Serif" font-size="10.00">Ogre::RotationAffectorFactory</text>
</a>
</g>
</g>
<!-- Node1&#45;&gt;Node10 -->
<g id="edge9" class="edge">
<title>Node1&#45;&gt;Node10</title>
<path fill="none" stroke="midnightblue" d="M180.15,-171.63C198.43,-144.4 236.48,-93.68 282,-67 288.61,-63.13 295.97,-60.04 303.47,-57.58"/>
<polygon fill="midnightblue" stroke="midnightblue" points="177.09,-169.92 174.54,-180.2 182.94,-173.76 177.09,-169.92"/>
</g>
<!-- Node11 -->
<g id="node11" class="node">
<title>Node11</title>
<g id="a_node11"><a xlink:href="class_ogre_1_1_scale_affector_factory.html" target="_top" xlink:title="Factory class for ScaleAffector.">
<polygon fill="none" stroke="black" points="289.5,-0.5 289.5,-19.5 435.5,-19.5 435.5,-0.5 289.5,-0.5"/>
<text text-anchor="middle" x="362.5" y="-7.5" font-family="Helvetica,sans-Serif" font-size="10.00">Ogre::ScaleAffectorFactory</text>
</a>
</g>
</g>
<!-- Node1&#45;&gt;Node11 -->
<g id="edge10" class="edge">
<title>Node1&#45;&gt;Node11</title>
<path fill="none" stroke="midnightblue" d="M176.44,-170.85C191.63,-136.72 228.12,-65.52 282,-29 287.76,-25.1 294.22,-21.99 300.91,-19.53"/>
<polygon fill="midnightblue" stroke="midnightblue" points="173.17,-169.61 172.42,-180.18 179.59,-172.38 173.17,-169.61"/>
</g>
<!-- Node2 -->
<g id="node2" class="node">
<title>Node2</title>
<g id="a_node2"><a xlink:title=" ">
<polygon fill="none" stroke="#bfbfbf" points="0,-180.5 0,-199.5 53,-199.5 53,-180.5 0,-180.5"/>
<text text-anchor="middle" x="26.5" y="-187.5" font-family="Helvetica,sans-Serif" font-size="10.00">FXAlloc</text>
</a>
</g>
</g>
<!-- Node2&#45;&gt;Node1 -->
<g id="edge1" class="edge">
<title>Node2&#45;&gt;Node1</title>
<path fill="none" stroke="midnightblue" d="M63.54,-190C71.41,-190 80.04,-190 88.84,-190"/>
<polygon fill="midnightblue" stroke="midnightblue" points="63.32,-186.5 53.32,-190 63.32,-193.5 63.32,-186.5"/>
</g>
</g>
</svg>
