<?xml version="1.0" encoding="UTF-8" standalone="no"?>
<!DOCTYPE svg PUBLIC "-//W3C//DTD SVG 1.1//EN"
 "http://www.w3.org/Graphics/SVG/1.1/DTD/svg11.dtd">
<!-- Generated by graphviz version 2.43.0 (0)
 -->
<!-- Title: Ogre::ParticleAffector Pages: 1 -->
<svg width="475pt" height="356pt"
 viewBox="0.00 0.00 475.00 356.00" xmlns="http://www.w3.org/2000/svg" xmlns:xlink="http://www.w3.org/1999/xlink">
<g id="graph0" class="graph" transform="scale(1 1) rotate(0) translate(4 352)">
<title>Ogre::ParticleAffector</title>
<!-- Node1 -->
<g id="node1" class="node">
<title>Node1</title>
<g id="a_node1"><a xlink:title="Abstract class defining the interface to be implemented by particle affectors.">
<polygon fill="#bfbfbf" stroke="black" points="154,-164.5 154,-183.5 275,-183.5 275,-164.5 154,-164.5"/>
<text text-anchor="middle" x="214.5" y="-171.5" font-family="Helvetica,sans-Serif" font-size="10.00">Ogre::ParticleAffector</text>
</a>
</g>
</g>
<!-- Node4 -->
<g id="node4" class="node">
<title>Node4</title>
<g id="a_node4"><a xlink:href="class_ogre_1_1_colour_fader_affector.html" target="_top" xlink:title="This plugin subclass of ParticleAffector allows you to alter the colour of particles.">
<polygon fill="none" stroke="black" points="317.5,-328.5 317.5,-347.5 460.5,-347.5 460.5,-328.5 317.5,-328.5"/>
<text text-anchor="middle" x="389" y="-335.5" font-family="Helvetica,sans-Serif" font-size="10.00">Ogre::ColourFaderAffector</text>
</a>
</g>
</g>
<!-- Node1&#45;&gt;Node4 -->
<g id="edge3" class="edge">
<title>Node1&#45;&gt;Node4</title>
<path fill="none" stroke="midnightblue" d="M222.57,-192.9C235.27,-224.18 265,-286.49 311,-319 316.51,-322.89 322.73,-325.99 329.19,-328.46"/>
<polygon fill="midnightblue" stroke="midnightblue" points="225.82,-191.6 218.91,-183.57 219.3,-194.15 225.82,-191.6"/>
</g>
<!-- Node5 -->
<g id="node5" class="node">
<title>Node5</title>
<g id="a_node5"><a xlink:href="class_ogre_1_1_colour_fader_affector2.html" target="_top" xlink:title="This plugin subclass of ParticleAffector allows you to alter the colour of particles.">
<polygon fill="none" stroke="black" points="314.5,-290.5 314.5,-309.5 463.5,-309.5 463.5,-290.5 314.5,-290.5"/>
<text text-anchor="middle" x="389" y="-297.5" font-family="Helvetica,sans-Serif" font-size="10.00">Ogre::ColourFaderAffector2</text>
</a>
</g>
</g>
<!-- Node1&#45;&gt;Node5 -->
<g id="edge4" class="edge">
<title>Node1&#45;&gt;Node5</title>
<path fill="none" stroke="midnightblue" d="M226.74,-192.33C242.51,-216.45 273.53,-258.43 311,-281 317.49,-284.91 324.74,-288.01 332.13,-290.48"/>
<polygon fill="midnightblue" stroke="midnightblue" points="229.6,-190.31 221.28,-183.75 223.7,-194.07 229.6,-190.31"/>
</g>
<!-- Node6 -->
<g id="node6" class="node">
<title>Node6</title>
<g id="a_node6"><a xlink:href="class_ogre_1_1_colour_image_affector.html" target="_top" xlink:title=" ">
<polygon fill="none" stroke="black" points="316,-252.5 316,-271.5 462,-271.5 462,-252.5 316,-252.5"/>
<text text-anchor="middle" x="389" y="-259.5" font-family="Helvetica,sans-Serif" font-size="10.00">Ogre::ColourImageAffector</text>
</a>
</g>
</g>
<!-- Node1&#45;&gt;Node6 -->
<g id="edge5" class="edge">
<title>Node1&#45;&gt;Node6</title>
<path fill="none" stroke="midnightblue" d="M233.34,-190.16C251.59,-205.86 281.39,-229.28 311,-243 319.25,-246.82 328.36,-249.93 337.34,-252.45"/>
<polygon fill="midnightblue" stroke="midnightblue" points="235.63,-187.52 225.81,-183.55 231.02,-192.78 235.63,-187.52"/>
</g>
<!-- Node7 -->
<g id="node7" class="node">
<title>Node7</title>
<g id="a_node7"><a xlink:href="class_ogre_1_1_colour_interpolator_affector.html" target="_top" xlink:title=" ">
<polygon fill="none" stroke="black" points="322,-203 322,-233 456,-233 456,-203 322,-203"/>
<text text-anchor="start" x="330" y="-221" font-family="Helvetica,sans-Serif" font-size="10.00">Ogre::ColourInterpolator</text>
<text text-anchor="middle" x="389" y="-210" font-family="Helvetica,sans-Serif" font-size="10.00">Affector</text>
</a>
</g>
</g>
<!-- Node1&#45;&gt;Node7 -->
<g id="edge6" class="edge">
<title>Node1&#45;&gt;Node7</title>
<path fill="none" stroke="midnightblue" d="M262.65,-186.03C283.11,-191.25 307.3,-197.41 328.94,-202.93"/>
<polygon fill="midnightblue" stroke="midnightblue" points="263.48,-182.63 252.93,-183.55 261.75,-189.41 263.48,-182.63"/>
</g>
<!-- Node8 -->
<g id="node8" class="node">
<title>Node8</title>
<g id="a_node8"><a xlink:href="class_ogre_1_1_deflector_plane_affector.html" target="_top" xlink:title="This class defines a ParticleAffector which deflects particles.">
<polygon fill="none" stroke="black" points="311,-164.5 311,-183.5 467,-183.5 467,-164.5 311,-164.5"/>
<text text-anchor="middle" x="389" y="-171.5" font-family="Helvetica,sans-Serif" font-size="10.00">Ogre::DeflectorPlaneAffector</text>
</a>
</g>
</g>
<!-- Node1&#45;&gt;Node8 -->
<g id="edge7" class="edge">
<title>Node1&#45;&gt;Node8</title>
<path fill="none" stroke="midnightblue" d="M285.46,-174C293.85,-174 302.45,-174 310.94,-174"/>
<polygon fill="midnightblue" stroke="midnightblue" points="285.35,-170.5 275.35,-174 285.35,-177.5 285.35,-170.5"/>
</g>
<!-- Node9 -->
<g id="node9" class="node">
<title>Node9</title>
<g id="a_node9"><a xlink:href="class_ogre_1_1_direction_randomiser_affector.html" target="_top" xlink:title="This class defines a ParticleAffector which applies randomness to the movement of the particles.">
<polygon fill="none" stroke="black" points="314.5,-115 314.5,-145 463.5,-145 463.5,-115 314.5,-115"/>
<text text-anchor="start" x="322.5" y="-133" font-family="Helvetica,sans-Serif" font-size="10.00">Ogre::DirectionRandomiser</text>
<text text-anchor="middle" x="389" y="-122" font-family="Helvetica,sans-Serif" font-size="10.00">Affector</text>
</a>
</g>
</g>
<!-- Node1&#45;&gt;Node9 -->
<g id="edge8" class="edge">
<title>Node1&#45;&gt;Node9</title>
<path fill="none" stroke="midnightblue" d="M262.65,-161.97C283.11,-156.75 307.3,-150.59 328.94,-145.07"/>
<polygon fill="midnightblue" stroke="midnightblue" points="261.75,-158.59 252.93,-164.45 263.48,-165.37 261.75,-158.59"/>
</g>
<!-- Node10 -->
<g id="node10" class="node">
<title>Node10</title>
<g id="a_node10"><a xlink:href="class_ogre_1_1_linear_force_affector.html" target="_top" xlink:title="This class defines a ParticleAffector which applies a linear force to particles in a system.">
<polygon fill="none" stroke="black" points="319,-76.5 319,-95.5 459,-95.5 459,-76.5 319,-76.5"/>
<text text-anchor="middle" x="389" y="-83.5" font-family="Helvetica,sans-Serif" font-size="10.00">Ogre::LinearForceAffector</text>
</a>
</g>
</g>
<!-- Node1&#45;&gt;Node10 -->
<g id="edge9" class="edge">
<title>Node1&#45;&gt;Node10</title>
<path fill="none" stroke="midnightblue" d="M233.34,-157.84C251.59,-142.14 281.39,-118.72 311,-105 319.25,-101.18 328.36,-98.07 337.34,-95.55"/>
<polygon fill="midnightblue" stroke="midnightblue" points="231.02,-155.22 225.81,-164.45 235.63,-160.48 231.02,-155.22"/>
</g>
<!-- Node11 -->
<g id="node11" class="node">
<title>Node11</title>
<g id="a_node11"><a xlink:href="class_ogre_1_1_rotation_affector.html" target="_top" xlink:title="This plugin subclass of ParticleAffector allows you to alter the rotation of particles.">
<polygon fill="none" stroke="black" points="326.5,-38.5 326.5,-57.5 451.5,-57.5 451.5,-38.5 326.5,-38.5"/>
<text text-anchor="middle" x="389" y="-45.5" font-family="Helvetica,sans-Serif" font-size="10.00">Ogre::RotationAffector</text>
</a>
</g>
</g>
<!-- Node1&#45;&gt;Node11 -->
<g id="edge10" class="edge">
<title>Node1&#45;&gt;Node11</title>
<path fill="none" stroke="midnightblue" d="M226.74,-155.67C242.51,-131.55 273.53,-89.57 311,-67 317.49,-63.09 324.74,-59.99 332.13,-57.52"/>
<polygon fill="midnightblue" stroke="midnightblue" points="223.7,-153.93 221.28,-164.25 229.6,-157.69 223.7,-153.93"/>
</g>
<!-- Node12 -->
<g id="node12" class="node">
<title>Node12</title>
<g id="a_node12"><a xlink:href="class_ogre_1_1_scale_affector.html" target="_top" xlink:title="This plugin subclass of ParticleAffector allows you to alter the scale of particles.">
<polygon fill="none" stroke="black" points="334,-0.5 334,-19.5 444,-19.5 444,-0.5 334,-0.5"/>
<text text-anchor="middle" x="389" y="-7.5" font-family="Helvetica,sans-Serif" font-size="10.00">Ogre::ScaleAffector</text>
</a>
</g>
</g>
<!-- Node1&#45;&gt;Node12 -->
<g id="edge11" class="edge">
<title>Node1&#45;&gt;Node12</title>
<path fill="none" stroke="midnightblue" d="M222.57,-155.1C235.27,-123.82 265,-61.51 311,-29 317.86,-24.15 325.82,-20.54 333.97,-17.84"/>
<polygon fill="midnightblue" stroke="midnightblue" points="219.3,-153.85 218.91,-164.43 225.82,-156.4 219.3,-153.85"/>
</g>
<!-- Node2 -->
<g id="node2" class="node">
<title>Node2</title>
<g id="a_node2"><a xlink:href="class_ogre_1_1_string_interface.html" target="_top" xlink:title="Class defining the common interface which classes can use to present a reflection&#45;style,...">
<polygon fill="none" stroke="black" points="0,-183.5 0,-202.5 118,-202.5 118,-183.5 0,-183.5"/>
<text text-anchor="middle" x="59" y="-190.5" font-family="Helvetica,sans-Serif" font-size="10.00">Ogre::StringInterface</text>
</a>
</g>
</g>
<!-- Node2&#45;&gt;Node1 -->
<g id="edge1" class="edge">
<title>Node2&#45;&gt;Node1</title>
<path fill="none" stroke="midnightblue" d="M128.04,-184.58C136.64,-183.51 145.39,-182.43 153.85,-181.38"/>
<polygon fill="midnightblue" stroke="midnightblue" points="127.53,-181.11 118.03,-185.82 128.39,-188.06 127.53,-181.11"/>
</g>
<!-- Node3 -->
<g id="node3" class="node">
<title>Node3</title>
<g id="a_node3"><a xlink:title=" ">
<polygon fill="none" stroke="#bfbfbf" points="32.5,-145.5 32.5,-164.5 85.5,-164.5 85.5,-145.5 32.5,-145.5"/>
<text text-anchor="middle" x="59" y="-152.5" font-family="Helvetica,sans-Serif" font-size="10.00">FXAlloc</text>
</a>
</g>
</g>
<!-- Node3&#45;&gt;Node1 -->
<g id="edge2" class="edge">
<title>Node3&#45;&gt;Node1</title>
<path fill="none" stroke="midnightblue" d="M95.89,-159.44C113.14,-161.58 134.29,-164.2 153.88,-166.62"/>
<polygon fill="midnightblue" stroke="midnightblue" points="96.05,-155.94 85.69,-158.18 95.19,-162.88 96.05,-155.94"/>
</g>
</g>
</svg>
