<?xml version="1.0" encoding="UTF-8" standalone="no"?>
<!DOCTYPE svg PUBLIC "-//W3C//DTD SVG 1.1//EN"
 "http://www.w3.org/Graphics/SVG/1.1/DTD/svg11.dtd">
<!-- Generated by graphviz version 2.43.0 (0)
 -->
<!-- Title: Ogre::Plugin Pages: 1 -->
<svg width="393pt" height="598pt"
 viewBox="0.00 0.00 393.00 598.00" xmlns="http://www.w3.org/2000/svg" xmlns:xlink="http://www.w3.org/1999/xlink">
<g id="graph0" class="graph" transform="scale(1 1) rotate(0) translate(4 594)">
<title>Ogre::Plugin</title>
<!-- Node1 -->
<g id="node1" class="node">
<title>Node1</title>
<g id="a_node1"><a xlink:title="Class defining a generic OGRE plugin.">
<polygon fill="#bfbfbf" stroke="black" points="107,-285.5 107,-304.5 183,-304.5 183,-285.5 107,-285.5"/>
<text text-anchor="middle" x="145" y="-292.5" font-family="Helvetica,sans-Serif" font-size="10.00">Ogre::Plugin</text>
</a>
</g>
</g>
<!-- Node3 -->
<g id="node3" class="node">
<title>Node3</title>
<g id="a_node3"><a xlink:href="class_ogre_1_1_assimp_plugin.html" target="_top" xlink:title=" ">
<polygon fill="none" stroke="black" points="246,-570.5 246,-589.5 358,-589.5 358,-570.5 246,-570.5"/>
<text text-anchor="middle" x="302" y="-577.5" font-family="Helvetica,sans-Serif" font-size="10.00">Ogre::AssimpPlugin</text>
</a>
</g>
</g>
<!-- Node1&#45;&gt;Node3 -->
<g id="edge2" class="edge">
<title>Node1&#45;&gt;Node3</title>
<path fill="none" stroke="midnightblue" d="M148.76,-314.65C156.95,-370.14 182.81,-526.24 219,-561 226.38,-568.09 235.85,-572.72 245.72,-575.71"/>
<polygon fill="midnightblue" stroke="midnightblue" points="152.22,-314.08 147.32,-304.69 145.29,-315.09 152.22,-314.08"/>
</g>
<!-- Node4 -->
<g id="node4" class="node">
<title>Node4</title>
<g id="a_node4"><a xlink:href="class_ogre_1_1_bsp_scene_manager_plugin.html" target="_top" xlink:title="Plugin instance for BSPSceneManager.">
<polygon fill="none" stroke="black" points="219,-532.5 219,-551.5 385,-551.5 385,-532.5 219,-532.5"/>
<text text-anchor="middle" x="302" y="-539.5" font-family="Helvetica,sans-Serif" font-size="10.00">Ogre::BspSceneManagerPlugin</text>
</a>
</g>
</g>
<!-- Node1&#45;&gt;Node4 -->
<g id="edge3" class="edge">
<title>Node1&#45;&gt;Node4</title>
<path fill="none" stroke="midnightblue" d="M146.17,-314.8C147.68,-359.08 157.82,-466.65 219,-523 223.08,-526.76 227.76,-529.83 232.77,-532.32"/>
<polygon fill="midnightblue" stroke="midnightblue" points="149.66,-314.44 145.94,-304.52 142.67,-314.6 149.66,-314.44"/>
</g>
<!-- Node5 -->
<g id="node5" class="node">
<title>Node5</title>
<g id="a_node5"><a xlink:href="class_ogre_1_1_cg_plugin.html" target="_top" xlink:title="Plugin instance for Cg Program Manager.">
<polygon fill="none" stroke="black" points="257.5,-494.5 257.5,-513.5 346.5,-513.5 346.5,-494.5 257.5,-494.5"/>
<text text-anchor="middle" x="302" y="-501.5" font-family="Helvetica,sans-Serif" font-size="10.00">Ogre::CgPlugin</text>
</a>
</g>
</g>
<!-- Node1&#45;&gt;Node5 -->
<g id="edge4" class="edge">
<title>Node1&#45;&gt;Node5</title>
<path fill="none" stroke="midnightblue" d="M147.62,-314.65C151.9,-353.41 167.07,-439.83 219,-485 229.59,-494.21 243.76,-499.18 257.35,-501.8"/>
<polygon fill="midnightblue" stroke="midnightblue" points="151.1,-314.27 146.64,-304.66 144.13,-314.95 151.1,-314.27"/>
</g>
<!-- Node6 -->
<g id="node6" class="node">
<title>Node6</title>
<g id="a_node6"><a xlink:href="class_ogre_1_1_d3_d11_plugin.html" target="_top" xlink:title="Plugin instance for D3D11 Manager.">
<polygon fill="none" stroke="black" points="247.5,-456.5 247.5,-475.5 356.5,-475.5 356.5,-456.5 247.5,-456.5"/>
<text text-anchor="middle" x="302" y="-463.5" font-family="Helvetica,sans-Serif" font-size="10.00">Ogre::D3D11Plugin</text>
</a>
</g>
</g>
<!-- Node1&#45;&gt;Node6 -->
<g id="edge5" class="edge">
<title>Node1&#45;&gt;Node6</title>
<path fill="none" stroke="midnightblue" d="M149.74,-314.74C157.03,-347.48 176.28,-412.78 219,-447 227.1,-453.49 237.01,-457.84 247.11,-460.74"/>
<polygon fill="midnightblue" stroke="midnightblue" points="153.1,-313.7 147.65,-304.62 146.25,-315.12 153.1,-313.7"/>
</g>
<!-- Node7 -->
<g id="node7" class="node">
<title>Node7</title>
<g id="a_node7"><a xlink:href="class_ogre_1_1_d3_d9_plugin.html" target="_top" xlink:title="Plugin instance for D3D9 Manager.">
<polygon fill="none" stroke="black" points="250.5,-418.5 250.5,-437.5 353.5,-437.5 353.5,-418.5 250.5,-418.5"/>
<text text-anchor="middle" x="302" y="-425.5" font-family="Helvetica,sans-Serif" font-size="10.00">Ogre::D3D9Plugin</text>
</a>
</g>
</g>
<!-- Node1&#45;&gt;Node7 -->
<g id="edge6" class="edge">
<title>Node1&#45;&gt;Node7</title>
<path fill="none" stroke="midnightblue" d="M152.91,-314.17C163.21,-339.88 185.08,-385.06 219,-409 228.19,-415.49 239.28,-419.79 250.28,-422.64"/>
<polygon fill="midnightblue" stroke="midnightblue" points="156.16,-312.84 149.32,-304.75 149.62,-315.34 156.16,-312.84"/>
</g>
<!-- Node8 -->
<g id="node8" class="node">
<title>Node8</title>
<g id="a_node8"><a xlink:href="class_ogre_1_1_dot_scene_plugin.html" target="_top" xlink:title=" ">
<polygon fill="none" stroke="black" points="241,-380.5 241,-399.5 363,-399.5 363,-380.5 241,-380.5"/>
<text text-anchor="middle" x="302" y="-387.5" font-family="Helvetica,sans-Serif" font-size="10.00">Ogre::DotScenePlugin</text>
</a>
</g>
</g>
<!-- Node1&#45;&gt;Node8 -->
<g id="edge7" class="edge">
<title>Node1&#45;&gt;Node8</title>
<path fill="none" stroke="midnightblue" d="M158.34,-312.92C171.37,-330.44 193.53,-356.53 219,-371 225.86,-374.9 233.48,-378 241.22,-380.46"/>
<polygon fill="midnightblue" stroke="midnightblue" points="161.07,-310.72 152.39,-304.64 155.38,-314.8 161.07,-310.72"/>
</g>
<!-- Node9 -->
<g id="node9" class="node">
<title>Node9</title>
<g id="a_node9"><a xlink:href="class_ogre_1_1_free_image_plugin.html" target="_top" xlink:title=" ">
<polygon fill="none" stroke="black" points="238,-342.5 238,-361.5 366,-361.5 366,-342.5 238,-342.5"/>
<text text-anchor="middle" x="302" y="-349.5" font-family="Helvetica,sans-Serif" font-size="10.00">Ogre::FreeImagePlugin</text>
</a>
</g>
</g>
<!-- Node1&#45;&gt;Node9 -->
<g id="edge8" class="edge">
<title>Node1&#45;&gt;Node9</title>
<path fill="none" stroke="midnightblue" d="M170.58,-309.78C184.41,-317.59 202.23,-326.81 219,-333 229.01,-336.7 239.97,-339.83 250.54,-342.42"/>
<polygon fill="midnightblue" stroke="midnightblue" points="172.11,-306.63 161.7,-304.66 168.61,-312.69 172.11,-306.63"/>
</g>
<!-- Node10 -->
<g id="node10" class="node">
<title>Node10</title>
<g id="a_node10"><a xlink:href="class_ogre_1_1_g_l3_plus_plugin.html" target="_top" xlink:title="Plugin instance for GL3Plus Manager.">
<polygon fill="none" stroke="black" points="244.5,-304.5 244.5,-323.5 359.5,-323.5 359.5,-304.5 244.5,-304.5"/>
<text text-anchor="middle" x="302" y="-311.5" font-family="Helvetica,sans-Serif" font-size="10.00">Ogre::GL3PlusPlugin</text>
</a>
</g>
</g>
<!-- Node1&#45;&gt;Node10 -->
<g id="edge9" class="edge">
<title>Node1&#45;&gt;Node10</title>
<path fill="none" stroke="midnightblue" d="M193.39,-300.81C209.52,-302.79 227.71,-305.02 244.49,-307.07"/>
<polygon fill="midnightblue" stroke="midnightblue" points="193.48,-297.29 183.13,-299.55 192.63,-304.24 193.48,-297.29"/>
</g>
<!-- Node11 -->
<g id="node11" class="node">
<title>Node11</title>
<g id="a_node11"><a xlink:href="class_ogre_1_1_g_l_e_s2_plugin.html" target="_top" xlink:title="Plugin instance for GL ES 2 Manager.">
<polygon fill="none" stroke="black" points="248.5,-266.5 248.5,-285.5 355.5,-285.5 355.5,-266.5 248.5,-266.5"/>
<text text-anchor="middle" x="302" y="-273.5" font-family="Helvetica,sans-Serif" font-size="10.00">Ogre::GLES2Plugin</text>
</a>
</g>
</g>
<!-- Node1&#45;&gt;Node11 -->
<g id="edge10" class="edge">
<title>Node1&#45;&gt;Node11</title>
<path fill="none" stroke="midnightblue" d="M193.09,-289.23C210.54,-287.09 230.43,-284.65 248.35,-282.45"/>
<polygon fill="midnightblue" stroke="midnightblue" points="192.63,-285.76 183.13,-290.45 193.48,-292.71 192.63,-285.76"/>
</g>
<!-- Node12 -->
<g id="node12" class="node">
<title>Node12</title>
<g id="a_node12"><a xlink:href="class_ogre_1_1_g_l_plugin.html" target="_top" xlink:title="Plugin instance for GL Manager.">
<polygon fill="none" stroke="black" points="257.5,-228.5 257.5,-247.5 346.5,-247.5 346.5,-228.5 257.5,-228.5"/>
<text text-anchor="middle" x="302" y="-235.5" font-family="Helvetica,sans-Serif" font-size="10.00">Ogre::GLPlugin</text>
</a>
</g>
</g>
<!-- Node1&#45;&gt;Node12 -->
<g id="edge11" class="edge">
<title>Node1&#45;&gt;Node12</title>
<path fill="none" stroke="midnightblue" d="M170.58,-280.22C184.41,-272.41 202.23,-263.19 219,-257 231.2,-252.49 244.83,-248.82 257.42,-245.95"/>
<polygon fill="midnightblue" stroke="midnightblue" points="168.61,-277.31 161.7,-285.34 172.11,-283.37 168.61,-277.31"/>
</g>
<!-- Node13 -->
<g id="node13" class="node">
<title>Node13</title>
<g id="a_node13"><a xlink:href="class_ogre_1_1_metal_plugin.html" target="_top" xlink:title="Plugin instance for Metal Manager.">
<polygon fill="none" stroke="black" points="250,-190.5 250,-209.5 354,-209.5 354,-190.5 250,-190.5"/>
<text text-anchor="middle" x="302" y="-197.5" font-family="Helvetica,sans-Serif" font-size="10.00">Ogre::MetalPlugin</text>
</a>
</g>
</g>
<!-- Node1&#45;&gt;Node13 -->
<g id="edge12" class="edge">
<title>Node1&#45;&gt;Node13</title>
<path fill="none" stroke="midnightblue" d="M158.34,-277.08C171.37,-259.56 193.53,-233.47 219,-219 228.4,-213.66 239.22,-209.82 249.85,-207.06"/>
<polygon fill="midnightblue" stroke="midnightblue" points="155.38,-275.2 152.39,-285.36 161.07,-279.28 155.38,-275.2"/>
</g>
<!-- Node14 -->
<g id="node14" class="node">
<title>Node14</title>
<g id="a_node14"><a xlink:href="class_ogre_1_1_octree_plugin.html" target="_top" xlink:title="Plugin instance for Octree Manager.">
<polygon fill="none" stroke="black" points="248,-152.5 248,-171.5 356,-171.5 356,-152.5 248,-152.5"/>
<text text-anchor="middle" x="302" y="-159.5" font-family="Helvetica,sans-Serif" font-size="10.00">Ogre::OctreePlugin</text>
</a>
</g>
</g>
<!-- Node1&#45;&gt;Node14 -->
<g id="edge13" class="edge">
<title>Node1&#45;&gt;Node14</title>
<path fill="none" stroke="midnightblue" d="M152.91,-275.83C163.21,-250.12 185.08,-204.94 219,-181 227.48,-175.02 237.56,-170.89 247.71,-168.05"/>
<polygon fill="midnightblue" stroke="midnightblue" points="149.62,-274.66 149.32,-285.25 156.16,-277.16 149.62,-274.66"/>
</g>
<!-- Node15 -->
<g id="node15" class="node">
<title>Node15</title>
<g id="a_node15"><a xlink:href="class_ogre_1_1_octree_zone_plugin.html" target="_top" xlink:title="Plugin instance for OctreeZone.">
<polygon fill="none" stroke="black" points="235.5,-114.5 235.5,-133.5 368.5,-133.5 368.5,-114.5 235.5,-114.5"/>
<text text-anchor="middle" x="302" y="-121.5" font-family="Helvetica,sans-Serif" font-size="10.00">Ogre::OctreeZonePlugin</text>
</a>
</g>
</g>
<!-- Node1&#45;&gt;Node15 -->
<g id="edge14" class="edge">
<title>Node1&#45;&gt;Node15</title>
<path fill="none" stroke="midnightblue" d="M149.74,-275.26C157.03,-242.52 176.28,-177.22 219,-143 223.9,-139.07 229.47,-135.93 235.35,-133.41"/>
<polygon fill="midnightblue" stroke="midnightblue" points="146.25,-274.88 147.65,-285.38 153.1,-276.3 146.25,-274.88"/>
</g>
<!-- Node16 -->
<g id="node16" class="node">
<title>Node16</title>
<g id="a_node16"><a xlink:href="class_ogre_1_1_particle_f_x_plugin.html" target="_top" xlink:title="Plugin instance for ParticleFX Manager.">
<polygon fill="none" stroke="black" points="239.5,-76.5 239.5,-95.5 364.5,-95.5 364.5,-76.5 239.5,-76.5"/>
<text text-anchor="middle" x="302" y="-83.5" font-family="Helvetica,sans-Serif" font-size="10.00">Ogre::ParticleFXPlugin</text>
</a>
</g>
</g>
<!-- Node1&#45;&gt;Node16 -->
<g id="edge15" class="edge">
<title>Node1&#45;&gt;Node16</title>
<path fill="none" stroke="midnightblue" d="M147.62,-275.35C151.9,-236.59 167.07,-150.17 219,-105 224.84,-99.92 231.78,-96.12 239.11,-93.31"/>
<polygon fill="midnightblue" stroke="midnightblue" points="144.13,-275.05 146.64,-285.34 151.1,-275.73 144.13,-275.05"/>
</g>
<!-- Node17 -->
<g id="node17" class="node">
<title>Node17</title>
<g id="a_node17"><a xlink:href="class_ogre_1_1_p_c_z_plugin.html" target="_top" xlink:title="Plugin instance for PCZ Manager.">
<polygon fill="none" stroke="black" points="254.5,-38.5 254.5,-57.5 349.5,-57.5 349.5,-38.5 254.5,-38.5"/>
<text text-anchor="middle" x="302" y="-45.5" font-family="Helvetica,sans-Serif" font-size="10.00">Ogre::PCZPlugin</text>
</a>
</g>
</g>
<!-- Node1&#45;&gt;Node17 -->
<g id="edge16" class="edge">
<title>Node1&#45;&gt;Node17</title>
<path fill="none" stroke="midnightblue" d="M146.17,-275.2C147.68,-230.92 157.82,-123.35 219,-67 228.67,-58.09 241.68,-53.1 254.48,-50.37"/>
<polygon fill="midnightblue" stroke="midnightblue" points="142.67,-275.4 145.94,-285.48 149.66,-275.56 142.67,-275.4"/>
</g>
<!-- Node18 -->
<g id="node18" class="node">
<title>Node18</title>
<g id="a_node18"><a xlink:href="class_ogre_1_1_s_t_b_i_plugin.html" target="_top" xlink:title=" ">
<polygon fill="none" stroke="black" points="253,-0.5 253,-19.5 351,-19.5 351,-0.5 253,-0.5"/>
<text text-anchor="middle" x="302" y="-7.5" font-family="Helvetica,sans-Serif" font-size="10.00">Ogre::STBIPlugin</text>
</a>
</g>
</g>
<!-- Node1&#45;&gt;Node18 -->
<g id="edge17" class="edge">
<title>Node1&#45;&gt;Node18</title>
<path fill="none" stroke="midnightblue" d="M148.76,-275.35C156.95,-219.86 182.81,-63.76 219,-29 228.17,-20.19 240.58,-15.18 252.96,-12.39"/>
<polygon fill="midnightblue" stroke="midnightblue" points="145.29,-274.91 147.32,-285.31 152.22,-275.92 145.29,-274.91"/>
</g>
<!-- Node2 -->
<g id="node2" class="node">
<title>Node2</title>
<g id="a_node2"><a xlink:title=" ">
<polygon fill="none" stroke="#bfbfbf" points="0,-285.5 0,-304.5 71,-304.5 71,-285.5 0,-285.5"/>
<text text-anchor="middle" x="35.5" y="-292.5" font-family="Helvetica,sans-Serif" font-size="10.00">PluginAlloc</text>
</a>
</g>
</g>
<!-- Node2&#45;&gt;Node1 -->
<g id="edge1" class="edge">
<title>Node2&#45;&gt;Node1</title>
<path fill="none" stroke="midnightblue" d="M81.28,-295C89.79,-295 98.62,-295 106.86,-295"/>
<polygon fill="midnightblue" stroke="midnightblue" points="81.11,-291.5 71.11,-295 81.11,-298.5 81.11,-291.5"/>
</g>
</g>
</svg>
