<?xml version="1.0" encoding="UTF-8" standalone="no"?>
<!DOCTYPE svg PUBLIC "-//W3C//DTD SVG 1.1//EN"
 "http://www.w3.org/Graphics/SVG/1.1/DTD/svg11.dtd">
<!-- Generated by graphviz version 2.43.0 (0)
 -->
<!-- Title: Ogre::DepthBuffer Pages: 1 -->
<svg width="619pt" height="142pt"
 viewBox="0.00 0.00 619.00 142.00" xmlns="http://www.w3.org/2000/svg" xmlns:xlink="http://www.w3.org/1999/xlink">
<g id="graph0" class="graph" transform="scale(1 1) rotate(0) translate(4 138)">
<title>Ogre::DepthBuffer</title>
<!-- Node1 -->
<g id="node1" class="node">
<title>Node1</title>
<g id="a_node1"><a xlink:title="An abstract class that contains a depth/stencil buffer.">
<polygon fill="#bfbfbf" stroke="black" points="128,-57.5 128,-76.5 233,-76.5 233,-57.5 128,-57.5"/>
<text text-anchor="middle" x="180.5" y="-64.5" font-family="Helvetica,sans-Serif" font-size="10.00">Ogre::DepthBuffer</text>
</a>
</g>
</g>
<!-- Node3 -->
<g id="node3" class="node">
<title>Node3</title>
<g id="a_node3"><a xlink:href="class_ogre_1_1_d3_d11_depth_buffer.html" target="_top" xlink:title=" ">
<polygon fill="none" stroke="black" points="281,-114.5 281,-133.5 419,-133.5 419,-114.5 281,-114.5"/>
<text text-anchor="middle" x="350" y="-121.5" font-family="Helvetica,sans-Serif" font-size="10.00">Ogre::D3D11DepthBuffer</text>
</a>
</g>
</g>
<!-- Node1&#45;&gt;Node3 -->
<g id="edge2" class="edge">
<title>Node1&#45;&gt;Node3</title>
<path fill="none" stroke="midnightblue" d="M210.21,-81C227.05,-88.82 248.9,-98.31 269,-105 279.7,-108.56 291.41,-111.74 302.5,-114.42"/>
<polygon fill="midnightblue" stroke="midnightblue" points="211.46,-77.72 200.92,-76.62 208.47,-84.05 211.46,-77.72"/>
</g>
<!-- Node4 -->
<g id="node4" class="node">
<title>Node4</title>
<g id="a_node4"><a xlink:href="class_ogre_1_1_d3_d9_depth_buffer.html" target="_top" xlink:title=" ">
<polygon fill="none" stroke="black" points="284,-76.5 284,-95.5 416,-95.5 416,-76.5 284,-76.5"/>
<text text-anchor="middle" x="350" y="-83.5" font-family="Helvetica,sans-Serif" font-size="10.00">Ogre::D3D9DepthBuffer</text>
</a>
</g>
</g>
<!-- Node1&#45;&gt;Node4 -->
<g id="edge3" class="edge">
<title>Node1&#45;&gt;Node4</title>
<path fill="none" stroke="midnightblue" d="M243.11,-73.99C256.41,-75.5 270.51,-77.1 283.93,-78.62"/>
<polygon fill="midnightblue" stroke="midnightblue" points="243.45,-70.51 233.12,-72.86 242.66,-77.46 243.45,-70.51"/>
</g>
<!-- Node5 -->
<g id="node5" class="node">
<title>Node5</title>
<g id="a_node5"><a xlink:href="class_ogre_1_1_g_l_depth_buffer_common.html" target="_top" xlink:title="OpenGL supports 3 different methods: FBO, pbuffer &amp; Copy.">
<polygon fill="none" stroke="black" points="269,-38.5 269,-57.5 431,-57.5 431,-38.5 269,-38.5"/>
<text text-anchor="middle" x="350" y="-45.5" font-family="Helvetica,sans-Serif" font-size="10.00">Ogre::GLDepthBufferCommon</text>
</a>
</g>
</g>
<!-- Node1&#45;&gt;Node5 -->
<g id="edge4" class="edge">
<title>Node1&#45;&gt;Node5</title>
<path fill="none" stroke="midnightblue" d="M243.17,-60.01C251.55,-59.05 260.25,-58.07 268.9,-57.09"/>
<polygon fill="midnightblue" stroke="midnightblue" points="242.66,-56.54 233.12,-61.14 243.45,-63.49 242.66,-56.54"/>
</g>
<!-- Node9 -->
<g id="node9" class="node">
<title>Node9</title>
<g id="a_node9"><a xlink:href="class_ogre_1_1_metal_depth_buffer.html" target="_top" xlink:title=" ">
<polygon fill="none" stroke="black" points="283.5,-0.5 283.5,-19.5 416.5,-19.5 416.5,-0.5 283.5,-0.5"/>
<text text-anchor="middle" x="350" y="-7.5" font-family="Helvetica,sans-Serif" font-size="10.00">Ogre::MetalDepthBuffer</text>
</a>
</g>
</g>
<!-- Node1&#45;&gt;Node9 -->
<g id="edge8" class="edge">
<title>Node1&#45;&gt;Node9</title>
<path fill="none" stroke="midnightblue" d="M210.21,-53C227.05,-45.18 248.9,-35.69 269,-29 279.7,-25.44 291.41,-22.26 302.5,-19.58"/>
<polygon fill="midnightblue" stroke="midnightblue" points="208.47,-49.95 200.92,-57.38 211.46,-56.28 208.47,-49.95"/>
</g>
<!-- Node2 -->
<g id="node2" class="node">
<title>Node2</title>
<g id="a_node2"><a xlink:title=" ">
<polygon fill="none" stroke="#bfbfbf" points="0,-57.5 0,-76.5 92,-76.5 92,-57.5 0,-57.5"/>
<text text-anchor="middle" x="46" y="-64.5" font-family="Helvetica,sans-Serif" font-size="10.00">RenderSysAlloc</text>
</a>
</g>
</g>
<!-- Node2&#45;&gt;Node1 -->
<g id="edge1" class="edge">
<title>Node2&#45;&gt;Node1</title>
<path fill="none" stroke="midnightblue" d="M102.3,-67C110.69,-67 119.32,-67 127.64,-67"/>
<polygon fill="midnightblue" stroke="midnightblue" points="102.23,-63.5 92.23,-67 102.23,-70.5 102.23,-63.5"/>
</g>
<!-- Node6 -->
<g id="node6" class="node">
<title>Node6</title>
<g id="a_node6"><a xlink:href="class_ogre_1_1_g_l3_plus_depth_buffer.html" target="_top" xlink:title=" ">
<polygon fill="none" stroke="black" points="467,-76.5 467,-95.5 611,-95.5 611,-76.5 467,-76.5"/>
<text text-anchor="middle" x="539" y="-83.5" font-family="Helvetica,sans-Serif" font-size="10.00">Ogre::GL3PlusDepthBuffer</text>
</a>
</g>
</g>
<!-- Node5&#45;&gt;Node6 -->
<g id="edge5" class="edge">
<title>Node5&#45;&gt;Node6</title>
<path fill="none" stroke="midnightblue" d="M408.13,-59.61C434.73,-65.01 465.97,-71.36 491.15,-76.48"/>
<polygon fill="midnightblue" stroke="midnightblue" points="408.68,-56.15 398.19,-57.59 407.29,-63.01 408.68,-56.15"/>
</g>
<!-- Node7 -->
<g id="node7" class="node">
<title>Node7</title>
<g id="a_node7"><a xlink:href="class_ogre_1_1_g_l_depth_buffer.html" target="_top" xlink:title=" ">
<polygon fill="none" stroke="black" points="480,-38.5 480,-57.5 598,-57.5 598,-38.5 480,-38.5"/>
<text text-anchor="middle" x="539" y="-45.5" font-family="Helvetica,sans-Serif" font-size="10.00">Ogre::GLDepthBuffer</text>
</a>
</g>
</g>
<!-- Node5&#45;&gt;Node7 -->
<g id="edge6" class="edge">
<title>Node5&#45;&gt;Node7</title>
<path fill="none" stroke="midnightblue" d="M441.14,-48C454.28,-48 467.52,-48 479.8,-48"/>
<polygon fill="midnightblue" stroke="midnightblue" points="441.12,-44.5 431.12,-48 441.12,-51.5 441.12,-44.5"/>
</g>
<!-- Node8 -->
<g id="node8" class="node">
<title>Node8</title>
<g id="a_node8"><a xlink:href="class_ogre_1_1_g_l_e_s2_depth_buffer.html" target="_top" xlink:title=" ">
<polygon fill="none" stroke="black" points="471,-0.5 471,-19.5 607,-19.5 607,-0.5 471,-0.5"/>
<text text-anchor="middle" x="539" y="-7.5" font-family="Helvetica,sans-Serif" font-size="10.00">Ogre::GLES2DepthBuffer</text>
</a>
</g>
</g>
<!-- Node5&#45;&gt;Node8 -->
<g id="edge7" class="edge">
<title>Node5&#45;&gt;Node8</title>
<path fill="none" stroke="midnightblue" d="M408.13,-36.39C434.73,-30.99 465.97,-24.64 491.15,-19.52"/>
<polygon fill="midnightblue" stroke="midnightblue" points="407.29,-32.99 398.19,-38.41 408.68,-39.85 407.29,-32.99"/>
</g>
</g>
</svg>
