<?xml version="1.0" encoding="UTF-8" standalone="no"?>
<!DOCTYPE svg PUBLIC "-//W3C//DTD SVG 1.1//EN"
 "http://www.w3.org/Graphics/SVG/1.1/DTD/svg11.dtd">
<!-- Generated by graphviz version 2.43.0 (0)
 -->
<!-- Title: Ogre::HardwareUniformBuffer Pages: 1 -->
<svg width="645pt" height="186pt"
 viewBox="0.00 0.00 645.00 186.00" xmlns="http://www.w3.org/2000/svg" xmlns:xlink="http://www.w3.org/1999/xlink">
<g id="graph0" class="graph" transform="scale(1 1) rotate(0) translate(4 182)">
<title>Ogre::HardwareUniformBuffer</title>
<!-- Node1 -->
<g id="node1" class="node">
<title>Node1</title>
<g id="a_node1"><a xlink:title="Specialisation of HardwareBuffer for a uniform buffer.">
<polygon fill="#bfbfbf" stroke="black" points="266,-79 266,-98 429,-98 429,-79 266,-79"/>
<text text-anchor="middle" x="347.5" y="-86" font-family="Helvetica,sans-Serif" font-size="10.00">Ogre::HardwareUniformBuffer</text>
</a>
</g>
</g>
<!-- Node4 -->
<g id="node4" class="node">
<title>Node4</title>
<g id="a_node4"><a xlink:href="class_ogre_1_1_d3_d11_hardware_uniform_buffer.html" target="_top" xlink:title="Specialisation of HardwareBuffer for D3D11.">
<polygon fill="none" stroke="black" points="468,-147.5 468,-177.5 634,-177.5 634,-147.5 468,-147.5"/>
<text text-anchor="start" x="476" y="-165.5" font-family="Helvetica,sans-Serif" font-size="10.00">Ogre::D3D11HardwareUniform</text>
<text text-anchor="middle" x="551" y="-154.5" font-family="Helvetica,sans-Serif" font-size="10.00">Buffer</text>
</a>
</g>
</g>
<!-- Node1&#45;&gt;Node4 -->
<g id="edge3" class="edge">
<title>Node1&#45;&gt;Node4</title>
<path fill="none" stroke="midnightblue" d="M378.13,-102.49C401.42,-113.17 434.86,-127.83 465,-138.5 473.82,-141.62 483.26,-144.62 492.53,-147.37"/>
<polygon fill="midnightblue" stroke="midnightblue" points="379.35,-99.19 368.8,-98.17 376.41,-105.55 379.35,-99.19"/>
</g>
<!-- Node5 -->
<g id="node5" class="node">
<title>Node5</title>
<g id="a_node5"><a xlink:href="class_ogre_1_1_default_hardware_uniform_buffer.html" target="_top" xlink:title="Specialisation of HardwareUniformBuffer for emulation.">
<polygon fill="none" stroke="black" points="466.5,-98.5 466.5,-128.5 635.5,-128.5 635.5,-98.5 466.5,-98.5"/>
<text text-anchor="start" x="474.5" y="-116.5" font-family="Helvetica,sans-Serif" font-size="10.00">Ogre::DefaultHardwareUniform</text>
<text text-anchor="middle" x="551" y="-105.5" font-family="Helvetica,sans-Serif" font-size="10.00">Buffer</text>
</a>
</g>
</g>
<!-- Node1&#45;&gt;Node5 -->
<g id="edge4" class="edge">
<title>Node1&#45;&gt;Node5</title>
<path fill="none" stroke="midnightblue" d="M435.44,-99.29C445.72,-100.56 456.18,-101.86 466.41,-103.13"/>
<polygon fill="midnightblue" stroke="midnightblue" points="435.61,-95.78 425.25,-98.02 434.75,-102.73 435.61,-95.78"/>
</g>
<!-- Node6 -->
<g id="node6" class="node">
<title>Node6</title>
<g id="a_node6"><a xlink:href="class_ogre_1_1_g_l3_plus_hardware_uniform_buffer.html" target="_top" xlink:title="Specialisation of HardwareUniformBuffer for OpenGL.">
<polygon fill="none" stroke="black" points="465,-49.5 465,-79.5 637,-79.5 637,-49.5 465,-49.5"/>
<text text-anchor="start" x="473" y="-67.5" font-family="Helvetica,sans-Serif" font-size="10.00">Ogre::GL3PlusHardwareUniform</text>
<text text-anchor="middle" x="551" y="-56.5" font-family="Helvetica,sans-Serif" font-size="10.00">Buffer</text>
</a>
</g>
</g>
<!-- Node1&#45;&gt;Node6 -->
<g id="edge5" class="edge">
<title>Node1&#45;&gt;Node6</title>
<path fill="none" stroke="midnightblue" d="M438.61,-77.77C447.35,-76.73 456.19,-75.67 464.87,-74.64"/>
<polygon fill="midnightblue" stroke="midnightblue" points="437.94,-74.32 428.43,-78.98 438.77,-81.27 437.94,-74.32"/>
</g>
<!-- Node7 -->
<g id="node7" class="node">
<title>Node7</title>
<g id="a_node7"><a xlink:href="class_ogre_1_1_g_l_e_s2_hardware_uniform_buffer.html" target="_top" xlink:title="Specialisation of HardwareUniformBuffer for OpenGL.">
<polygon fill="none" stroke="black" points="469,-0.5 469,-30.5 633,-30.5 633,-0.5 469,-0.5"/>
<text text-anchor="start" x="477" y="-18.5" font-family="Helvetica,sans-Serif" font-size="10.00">Ogre::GLES2HardwareUniform</text>
<text text-anchor="middle" x="551" y="-7.5" font-family="Helvetica,sans-Serif" font-size="10.00">Buffer</text>
</a>
</g>
</g>
<!-- Node1&#45;&gt;Node7 -->
<g id="edge6" class="edge">
<title>Node1&#45;&gt;Node7</title>
<path fill="none" stroke="midnightblue" d="M378.58,-74.64C401.87,-64.21 435.1,-49.96 465,-39.5 473.97,-36.36 483.59,-33.33 493,-30.55"/>
<polygon fill="midnightblue" stroke="midnightblue" points="376.92,-71.56 369.24,-78.86 379.8,-77.93 376.92,-71.56"/>
</g>
<!-- Node2 -->
<g id="node2" class="node">
<title>Node2</title>
<g id="a_node2"><a xlink:href="class_ogre_1_1_hardware_buffer.html" target="_top" xlink:title="Abstract class defining common features of hardware buffers.">
<polygon fill="none" stroke="black" points="107,-79 107,-98 230,-98 230,-79 107,-79"/>
<text text-anchor="middle" x="168.5" y="-86" font-family="Helvetica,sans-Serif" font-size="10.00">Ogre::HardwareBuffer</text>
</a>
</g>
</g>
<!-- Node2&#45;&gt;Node1 -->
<g id="edge1" class="edge">
<title>Node2&#45;&gt;Node1</title>
<path fill="none" stroke="midnightblue" d="M240.45,-88.5C248.78,-88.5 257.33,-88.5 265.78,-88.5"/>
<polygon fill="midnightblue" stroke="midnightblue" points="240.41,-85 230.41,-88.5 240.41,-92 240.41,-85"/>
</g>
<!-- Node3 -->
<g id="node3" class="node">
<title>Node3</title>
<g id="a_node3"><a xlink:title=" ">
<polygon fill="none" stroke="#bfbfbf" points="0,-79 0,-98 71,-98 71,-79 0,-79"/>
<text text-anchor="middle" x="35.5" y="-86" font-family="Helvetica,sans-Serif" font-size="10.00">BufferAlloc</text>
</a>
</g>
</g>
<!-- Node3&#45;&gt;Node2 -->
<g id="edge2" class="edge">
<title>Node3&#45;&gt;Node2</title>
<path fill="none" stroke="midnightblue" d="M81.4,-88.5C89.64,-88.5 98.37,-88.5 106.99,-88.5"/>
<polygon fill="midnightblue" stroke="midnightblue" points="81.26,-85 71.26,-88.5 81.26,-92 81.26,-85"/>
</g>
</g>
</svg>
