<?xml version="1.0" encoding="UTF-8" standalone="no"?>
<!DOCTYPE svg PUBLIC "-//W3C//DTD SVG 1.1//EN"
 "http://www.w3.org/Graphics/SVG/1.1/DTD/svg11.dtd">
<!-- Generated by graphviz version 2.43.0 (0)
 -->
<!-- Title: Ogre::D3D9HardwareVertexBuffer Pages: 1 -->
<svg width="300pt" height="207pt"
 viewBox="0.00 0.00 299.50 207.00" xmlns="http://www.w3.org/2000/svg" xmlns:xlink="http://www.w3.org/1999/xlink">
<g id="graph0" class="graph" transform="scale(1 1) rotate(0) translate(4 203)">
<title>Ogre::D3D9HardwareVertexBuffer</title>
<!-- Node1 -->
<g id="node1" class="node">
<title>Node1</title>
<g id="a_node1"><a xlink:title="Specialisation of HardwareVertexBuffer for D3D9.">
<polygon fill="#bfbfbf" stroke="black" points="78.5,-0.5 78.5,-30.5 230.5,-30.5 230.5,-0.5 78.5,-0.5"/>
<text text-anchor="start" x="86.5" y="-18.5" font-family="Helvetica,sans-Serif" font-size="10.00">Ogre::D3D9HardwareVertex</text>
<text text-anchor="middle" x="154.5" y="-7.5" font-family="Helvetica,sans-Serif" font-size="10.00">Buffer</text>
</a>
</g>
</g>
<!-- Node2 -->
<g id="node2" class="node">
<title>Node2</title>
<g id="a_node2"><a xlink:href="class_ogre_1_1_hardware_vertex_buffer.html" target="_top" xlink:title="Specialisation of HardwareBuffer for a vertex buffer.">
<polygon fill="none" stroke="black" points="0,-67.5 0,-86.5 155,-86.5 155,-67.5 0,-67.5"/>
<text text-anchor="middle" x="77.5" y="-74.5" font-family="Helvetica,sans-Serif" font-size="10.00">Ogre::HardwareVertexBuffer</text>
</a>
</g>
</g>
<!-- Node2&#45;&gt;Node1 -->
<g id="edge1" class="edge">
<title>Node2&#45;&gt;Node1</title>
<path fill="none" stroke="midnightblue" d="M96.66,-61.2C108.8,-51.81 124.41,-39.75 136.35,-30.52"/>
<polygon fill="midnightblue" stroke="midnightblue" points="94.31,-58.59 88.53,-67.48 98.59,-64.13 94.31,-58.59"/>
</g>
<!-- Node3 -->
<g id="node3" class="node">
<title>Node3</title>
<g id="a_node3"><a xlink:href="class_ogre_1_1_hardware_buffer.html" target="_top" xlink:title="Abstract class defining common features of hardware buffers.">
<polygon fill="none" stroke="black" points="16,-123.5 16,-142.5 139,-142.5 139,-123.5 16,-123.5"/>
<text text-anchor="middle" x="77.5" y="-130.5" font-family="Helvetica,sans-Serif" font-size="10.00">Ogre::HardwareBuffer</text>
</a>
</g>
</g>
<!-- Node3&#45;&gt;Node2 -->
<g id="edge2" class="edge">
<title>Node3&#45;&gt;Node2</title>
<path fill="none" stroke="midnightblue" d="M77.5,-112.8C77.5,-103.91 77.5,-93.78 77.5,-86.75"/>
<polygon fill="midnightblue" stroke="midnightblue" points="74,-113.08 77.5,-123.08 81,-113.08 74,-113.08"/>
</g>
<!-- Node4 -->
<g id="node4" class="node">
<title>Node4</title>
<g id="a_node4"><a xlink:title=" ">
<polygon fill="none" stroke="#bfbfbf" points="42,-179.5 42,-198.5 113,-198.5 113,-179.5 42,-179.5"/>
<text text-anchor="middle" x="77.5" y="-186.5" font-family="Helvetica,sans-Serif" font-size="10.00">BufferAlloc</text>
</a>
</g>
</g>
<!-- Node4&#45;&gt;Node3 -->
<g id="edge3" class="edge">
<title>Node4&#45;&gt;Node3</title>
<path fill="none" stroke="midnightblue" d="M77.5,-168.8C77.5,-159.91 77.5,-149.78 77.5,-142.75"/>
<polygon fill="midnightblue" stroke="midnightblue" points="74,-169.08 77.5,-179.08 81,-169.08 74,-169.08"/>
</g>
<!-- Node5 -->
<g id="node5" class="node">
<title>Node5</title>
<g id="a_node5"><a xlink:href="class_ogre_1_1_d3_d9_resource.html" target="_top" xlink:title="Represents a Direct3D rendering resource.">
<polygon fill="none" stroke="black" points="173.5,-67.5 173.5,-86.5 291.5,-86.5 291.5,-67.5 173.5,-67.5"/>
<text text-anchor="middle" x="232.5" y="-74.5" font-family="Helvetica,sans-Serif" font-size="10.00">Ogre::D3D9Resource</text>
</a>
</g>
</g>
<!-- Node5&#45;&gt;Node1 -->
<g id="edge4" class="edge">
<title>Node5&#45;&gt;Node1</title>
<path fill="none" stroke="midnightblue" d="M213.09,-61.2C200.79,-51.81 184.98,-39.75 172.88,-30.52"/>
<polygon fill="midnightblue" stroke="midnightblue" points="211.25,-64.19 221.32,-67.48 215.5,-58.63 211.25,-64.19"/>
</g>
</g>
</svg>
