<?xml version="1.0" encoding="UTF-8" standalone="no"?>
<!DOCTYPE svg PUBLIC "-//W3C//DTD SVG 1.1//EN"
 "http://www.w3.org/Graphics/SVG/1.1/DTD/svg11.dtd">
<!-- Generated by graphviz version 2.43.0 (0)
 -->
<!-- Title: Ogre::D3D9Resource Pages: 1 -->
<svg width="555pt" height="260pt"
 viewBox="0.00 0.00 555.00 260.00" xmlns="http://www.w3.org/2000/svg" xmlns:xlink="http://www.w3.org/1999/xlink">
<g id="graph0" class="graph" transform="scale(1 1) rotate(0) translate(4 256)">
<title>Ogre::D3D9Resource</title>
<!-- Node1 -->
<g id="node1" class="node">
<title>Node1</title>
<g id="a_node1"><a xlink:title="Represents a Direct3D rendering resource.">
<polygon fill="#bfbfbf" stroke="black" points="0,-106.5 0,-125.5 118,-125.5 118,-106.5 0,-106.5"/>
<text text-anchor="middle" x="59" y="-113.5" font-family="Helvetica,sans-Serif" font-size="10.00">Ogre::D3D9Resource</text>
</a>
</g>
</g>
<!-- Node2 -->
<g id="node2" class="node">
<title>Node2</title>
<g id="a_node2"><a xlink:href="class_ogre_1_1_d3_d9_gpu_program.html" target="_top" xlink:title="Direct3D implementation of a few things common to low&#45;level vertex &amp; fragment programs.">
<polygon fill="none" stroke="black" points="175.5,-213.5 175.5,-232.5 309.5,-232.5 309.5,-213.5 175.5,-213.5"/>
<text text-anchor="middle" x="242.5" y="-220.5" font-family="Helvetica,sans-Serif" font-size="10.00">Ogre::D3D9GpuProgram</text>
</a>
</g>
</g>
<!-- Node1&#45;&gt;Node2 -->
<g id="edge1" class="edge">
<title>Node1&#45;&gt;Node2</title>
<path fill="none" stroke="midnightblue" d="M73.64,-133.55C90.34,-153.77 120.57,-186.46 154,-204 161.43,-207.9 169.62,-211 177.92,-213.46"/>
<polygon fill="midnightblue" stroke="midnightblue" points="76.33,-131.32 67.33,-125.72 70.88,-135.71 76.33,-131.32"/>
</g>
<!-- Node5 -->
<g id="node5" class="node">
<title>Node5</title>
<g id="a_node5"><a xlink:href="class_ogre_1_1_d3_d9_hardware_index_buffer.html" target="_top" xlink:title=" ">
<polygon fill="none" stroke="black" points="154,-175.5 154,-194.5 331,-194.5 331,-175.5 154,-175.5"/>
<text text-anchor="middle" x="242.5" y="-182.5" font-family="Helvetica,sans-Serif" font-size="10.00">Ogre::D3D9HardwareIndexBuffer</text>
</a>
</g>
</g>
<!-- Node1&#45;&gt;Node5 -->
<g id="edge4" class="edge">
<title>Node1&#45;&gt;Node5</title>
<path fill="none" stroke="midnightblue" d="M84.06,-130.74C102.6,-141.54 129.18,-155.87 154,-165 165.26,-169.14 177.66,-172.6 189.5,-175.42"/>
<polygon fill="midnightblue" stroke="midnightblue" points="85.79,-127.69 75.4,-125.6 82.22,-133.71 85.79,-127.69"/>
</g>
<!-- Node6 -->
<g id="node6" class="node">
<title>Node6</title>
<g id="a_node6"><a xlink:href="class_ogre_1_1_d3_d9_hardware_occlusion_query.html" target="_top" xlink:title="This is a class that is the DirectX9 implementation of hardware occlusion testing.">
<polygon fill="none" stroke="black" points="159,-126 159,-156 326,-156 326,-126 159,-126"/>
<text text-anchor="start" x="167" y="-144" font-family="Helvetica,sans-Serif" font-size="10.00">Ogre::D3D9HardwareOcclusion</text>
<text text-anchor="middle" x="242.5" y="-133" font-family="Helvetica,sans-Serif" font-size="10.00">Query</text>
</a>
</g>
</g>
<!-- Node1&#45;&gt;Node6 -->
<g id="edge5" class="edge">
<title>Node1&#45;&gt;Node6</title>
<path fill="none" stroke="midnightblue" d="M128.38,-125.42C138.33,-126.79 148.66,-128.21 158.85,-129.62"/>
<polygon fill="midnightblue" stroke="midnightblue" points="128.56,-121.91 118.18,-124.01 127.61,-128.85 128.56,-121.91"/>
</g>
<!-- Node7 -->
<g id="node7" class="node">
<title>Node7</title>
<g id="a_node7"><a xlink:href="class_ogre_1_1_d3_d9_hardware_vertex_buffer.html" target="_top" xlink:title="Specialisation of HardwareVertexBuffer for D3D9.">
<polygon fill="none" stroke="black" points="166.5,-77 166.5,-107 318.5,-107 318.5,-77 166.5,-77"/>
<text text-anchor="start" x="174.5" y="-95" font-family="Helvetica,sans-Serif" font-size="10.00">Ogre::D3D9HardwareVertex</text>
<text text-anchor="middle" x="242.5" y="-84" font-family="Helvetica,sans-Serif" font-size="10.00">Buffer</text>
</a>
</g>
</g>
<!-- Node1&#45;&gt;Node7 -->
<g id="edge6" class="edge">
<title>Node1&#45;&gt;Node7</title>
<path fill="none" stroke="midnightblue" d="M128.43,-106.95C140.83,-105.31 153.82,-103.59 166.4,-101.93"/>
<polygon fill="midnightblue" stroke="midnightblue" points="127.63,-103.53 118.18,-108.31 128.55,-110.47 127.63,-103.53"/>
</g>
<!-- Node8 -->
<g id="node8" class="node">
<title>Node8</title>
<g id="a_node8"><a xlink:href="class_ogre_1_1_d3_d9_texture.html" target="_top" xlink:title=" ">
<polygon fill="none" stroke="black" points="188,-38.5 188,-57.5 297,-57.5 297,-38.5 188,-38.5"/>
<text text-anchor="middle" x="242.5" y="-45.5" font-family="Helvetica,sans-Serif" font-size="10.00">Ogre::D3D9Texture</text>
</a>
</g>
</g>
<!-- Node1&#45;&gt;Node8 -->
<g id="edge7" class="edge">
<title>Node1&#45;&gt;Node8</title>
<path fill="none" stroke="midnightblue" d="M84.03,-101.18C102.56,-90.34 129.13,-76 154,-67 164.67,-63.14 176.37,-59.94 187.65,-57.33"/>
<polygon fill="midnightblue" stroke="midnightblue" points="82.18,-98.21 75.38,-106.34 85.76,-104.23 82.18,-98.21"/>
</g>
<!-- Node9 -->
<g id="node9" class="node">
<title>Node9</title>
<g id="a_node9"><a xlink:href="class_ogre_1_1_d3_d9_vertex_declaration.html" target="_top" xlink:title="Specialisation of VertexDeclaration for D3D9.">
<polygon fill="none" stroke="black" points="162,-0.5 162,-19.5 323,-19.5 323,-0.5 162,-0.5"/>
<text text-anchor="middle" x="242.5" y="-7.5" font-family="Helvetica,sans-Serif" font-size="10.00">Ogre::D3D9VertexDeclaration</text>
</a>
</g>
</g>
<!-- Node1&#45;&gt;Node9 -->
<g id="edge8" class="edge">
<title>Node1&#45;&gt;Node9</title>
<path fill="none" stroke="midnightblue" d="M73.9,-98.39C90.7,-78.38 120.85,-46.27 154,-29 161.44,-25.12 169.64,-22.03 177.94,-19.58"/>
<polygon fill="midnightblue" stroke="midnightblue" points="70.98,-96.43 67.36,-106.39 76.4,-100.86 70.98,-96.43"/>
</g>
<!-- Node3 -->
<g id="node3" class="node">
<title>Node3</title>
<g id="a_node3"><a xlink:href="class_ogre_1_1_d3_d9_gpu_fragment_program.html" target="_top" xlink:title="Direct3D implementation of low&#45;level fragment programs.">
<polygon fill="none" stroke="black" points="367,-232.5 367,-251.5 547,-251.5 547,-232.5 367,-232.5"/>
<text text-anchor="middle" x="457" y="-239.5" font-family="Helvetica,sans-Serif" font-size="10.00">Ogre::D3D9GpuFragmentProgram</text>
</a>
</g>
</g>
<!-- Node2&#45;&gt;Node3 -->
<g id="edge2" class="edge">
<title>Node2&#45;&gt;Node3</title>
<path fill="none" stroke="midnightblue" d="M319.96,-229.84C335.19,-231.2 351.32,-232.64 366.93,-234.04"/>
<polygon fill="midnightblue" stroke="midnightblue" points="319.84,-226.31 309.57,-228.91 319.22,-233.28 319.84,-226.31"/>
</g>
<!-- Node4 -->
<g id="node4" class="node">
<title>Node4</title>
<g id="a_node4"><a xlink:href="class_ogre_1_1_d3_d9_gpu_vertex_program.html" target="_top" xlink:title="Direct3D implementation of low&#45;level vertex programs.">
<polygon fill="none" stroke="black" points="374,-194.5 374,-213.5 540,-213.5 540,-194.5 374,-194.5"/>
<text text-anchor="middle" x="457" y="-201.5" font-family="Helvetica,sans-Serif" font-size="10.00">Ogre::D3D9GpuVertexProgram</text>
</a>
</g>
</g>
<!-- Node2&#45;&gt;Node4 -->
<g id="edge3" class="edge">
<title>Node2&#45;&gt;Node4</title>
<path fill="none" stroke="midnightblue" d="M319.76,-216.18C337.31,-214.61 356.06,-212.94 373.86,-211.34"/>
<polygon fill="midnightblue" stroke="midnightblue" points="319.22,-212.72 309.57,-217.09 319.84,-219.69 319.22,-212.72"/>
</g>
</g>
</svg>
