<?xml version="1.0" encoding="UTF-8" standalone="no"?>
<!DOCTYPE svg PUBLIC "-//W3C//DTD SVG 1.1//EN"
 "http://www.w3.org/Graphics/SVG/1.1/DTD/svg11.dtd">
<!-- Generated by graphviz version 2.43.0 (0)
 -->
<!-- Title: Ogre::HardwareIndexBuffer Pages: 1 -->
<svg width="637pt" height="313pt"
 viewBox="0.00 0.00 637.00 313.00" xmlns="http://www.w3.org/2000/svg" xmlns:xlink="http://www.w3.org/1999/xlink">
<g id="graph0" class="graph" transform="scale(1 1) rotate(0) translate(4 309)">
<title>Ogre::HardwareIndexBuffer</title>
<!-- Node1 -->
<g id="node1" class="node">
<title>Node1</title>
<g id="a_node1"><a xlink:title="Specialisation of HardwareBuffer for vertex index buffers, still abstract.">
<polygon fill="#bfbfbf" stroke="black" points="266,-143 266,-162 416,-162 416,-143 266,-143"/>
<text text-anchor="middle" x="341" y="-150" font-family="Helvetica,sans-Serif" font-size="10.00">Ogre::HardwareIndexBuffer</text>
</a>
</g>
</g>
<!-- Node4 -->
<g id="node4" class="node">
<title>Node4</title>
<g id="a_node4"><a xlink:href="class_ogre_1_1_d3_d11_hardware_index_buffer.html" target="_top" xlink:title=" ">
<polygon fill="none" stroke="black" points="464,-274.5 464,-304.5 617,-304.5 617,-274.5 464,-274.5"/>
<text text-anchor="start" x="472" y="-292.5" font-family="Helvetica,sans-Serif" font-size="10.00">Ogre::D3D11HardwareIndex</text>
<text text-anchor="middle" x="540.5" y="-281.5" font-family="Helvetica,sans-Serif" font-size="10.00">Buffer</text>
</a>
</g>
</g>
<!-- Node1&#45;&gt;Node4 -->
<g id="edge3" class="edge">
<title>Node1&#45;&gt;Node4</title>
<path fill="none" stroke="midnightblue" d="M354.76,-170.4C373.36,-195.18 410.27,-239.69 452,-264.5 458.52,-268.38 465.67,-271.68 472.98,-274.48"/>
<polygon fill="midnightblue" stroke="midnightblue" points="357.5,-168.22 348.76,-162.23 351.86,-172.37 357.5,-168.22"/>
</g>
<!-- Node5 -->
<g id="node5" class="node">
<title>Node5</title>
<g id="a_node5"><a xlink:href="class_ogre_1_1_d3_d9_hardware_index_buffer.html" target="_top" xlink:title=" ">
<polygon fill="none" stroke="black" points="452,-236 452,-255 629,-255 629,-236 452,-236"/>
<text text-anchor="middle" x="540.5" y="-243" font-family="Helvetica,sans-Serif" font-size="10.00">Ogre::D3D9HardwareIndexBuffer</text>
</a>
</g>
</g>
<!-- Node1&#45;&gt;Node5 -->
<g id="edge4" class="edge">
<title>Node1&#45;&gt;Node5</title>
<path fill="none" stroke="midnightblue" d="M360.82,-168.46C381.75,-185.38 417.2,-211.66 452,-226.5 461.01,-230.34 470.88,-233.44 480.65,-235.93"/>
<polygon fill="midnightblue" stroke="midnightblue" points="362.98,-165.7 353.04,-162.05 358.53,-171.11 362.98,-165.7"/>
</g>
<!-- Node6 -->
<g id="node6" class="node">
<title>Node6</title>
<g id="a_node6"><a xlink:href="class_ogre_1_1_default_hardware_index_buffer.html" target="_top" xlink:title="Specialisation of HardwareIndexBuffer for emulation.">
<polygon fill="none" stroke="black" points="462.5,-186.5 462.5,-216.5 618.5,-216.5 618.5,-186.5 462.5,-186.5"/>
<text text-anchor="start" x="470.5" y="-204.5" font-family="Helvetica,sans-Serif" font-size="10.00">Ogre::DefaultHardwareIndex</text>
<text text-anchor="middle" x="540.5" y="-193.5" font-family="Helvetica,sans-Serif" font-size="10.00">Buffer</text>
</a>
</g>
</g>
<!-- Node1&#45;&gt;Node6 -->
<g id="edge5" class="edge">
<title>Node1&#45;&gt;Node6</title>
<path fill="none" stroke="midnightblue" d="M390.42,-164.51C417.11,-171.14 450.49,-179.42 478.89,-186.46"/>
<polygon fill="midnightblue" stroke="midnightblue" points="391.1,-161.08 380.55,-162.06 389.41,-167.87 391.1,-161.08"/>
</g>
<!-- Node7 -->
<g id="node7" class="node">
<title>Node7</title>
<g id="a_node7"><a xlink:href="class_ogre_1_1_g_l3_plus_hardware_index_buffer.html" target="_top" xlink:title=" ">
<polygon fill="none" stroke="black" points="461,-137.5 461,-167.5 620,-167.5 620,-137.5 461,-137.5"/>
<text text-anchor="start" x="469" y="-155.5" font-family="Helvetica,sans-Serif" font-size="10.00">Ogre::GL3PlusHardwareIndex</text>
<text text-anchor="middle" x="540.5" y="-144.5" font-family="Helvetica,sans-Serif" font-size="10.00">Buffer</text>
</a>
</g>
</g>
<!-- Node1&#45;&gt;Node7 -->
<g id="edge6" class="edge">
<title>Node1&#45;&gt;Node7</title>
<path fill="none" stroke="midnightblue" d="M426.45,-152.5C437.81,-152.5 449.43,-152.5 460.69,-152.5"/>
<polygon fill="midnightblue" stroke="midnightblue" points="426.1,-149 416.1,-152.5 426.1,-156 426.1,-149"/>
</g>
<!-- Node8 -->
<g id="node8" class="node">
<title>Node8</title>
<g id="a_node8"><a xlink:href="class_ogre_1_1_g_l_e_s2_hardware_index_buffer.html" target="_top" xlink:title=" ">
<polygon fill="none" stroke="black" points="465,-88.5 465,-118.5 616,-118.5 616,-88.5 465,-88.5"/>
<text text-anchor="start" x="473" y="-106.5" font-family="Helvetica,sans-Serif" font-size="10.00">Ogre::GLES2HardwareIndex</text>
<text text-anchor="middle" x="540.5" y="-95.5" font-family="Helvetica,sans-Serif" font-size="10.00">Buffer</text>
</a>
</g>
</g>
<!-- Node1&#45;&gt;Node8 -->
<g id="edge7" class="edge">
<title>Node1&#45;&gt;Node8</title>
<path fill="none" stroke="midnightblue" d="M390.42,-140.49C417.11,-133.86 450.49,-125.58 478.89,-118.54"/>
<polygon fill="midnightblue" stroke="midnightblue" points="389.41,-137.13 380.55,-142.94 391.1,-143.92 389.41,-137.13"/>
</g>
<!-- Node9 -->
<g id="node9" class="node">
<title>Node9</title>
<g id="a_node9"><a xlink:href="class_ogre_1_1_g_l_hardware_index_buffer.html" target="_top" xlink:title=" ">
<polygon fill="none" stroke="black" points="459,-50 459,-69 622,-69 622,-50 459,-50"/>
<text text-anchor="middle" x="540.5" y="-57" font-family="Helvetica,sans-Serif" font-size="10.00">Ogre::GLHardwareIndexBuffer</text>
</a>
</g>
</g>
<!-- Node1&#45;&gt;Node9 -->
<g id="edge8" class="edge">
<title>Node1&#45;&gt;Node9</title>
<path fill="none" stroke="midnightblue" d="M360.82,-136.54C381.75,-119.62 417.2,-93.34 452,-78.5 461.01,-74.66 470.88,-71.56 480.65,-69.07"/>
<polygon fill="midnightblue" stroke="midnightblue" points="358.53,-133.89 353.04,-142.95 362.98,-139.3 358.53,-133.89"/>
</g>
<!-- Node10 -->
<g id="node10" class="node">
<title>Node10</title>
<g id="a_node10"><a xlink:href="class_ogre_1_1_metal_hardware_index_buffer.html" target="_top" xlink:title="Specialisation of HardwareIndexBuffer for Metal.">
<polygon fill="none" stroke="black" points="466.5,-0.5 466.5,-30.5 614.5,-30.5 614.5,-0.5 466.5,-0.5"/>
<text text-anchor="start" x="474.5" y="-18.5" font-family="Helvetica,sans-Serif" font-size="10.00">Ogre::MetalHardwareIndex</text>
<text text-anchor="middle" x="540.5" y="-7.5" font-family="Helvetica,sans-Serif" font-size="10.00">Buffer</text>
</a>
</g>
</g>
<!-- Node1&#45;&gt;Node10 -->
<g id="edge9" class="edge">
<title>Node1&#45;&gt;Node10</title>
<path fill="none" stroke="midnightblue" d="M354.76,-134.6C373.36,-109.82 410.27,-65.31 452,-40.5 458.52,-36.62 465.67,-33.32 472.98,-30.52"/>
<polygon fill="midnightblue" stroke="midnightblue" points="351.86,-132.63 348.76,-142.77 357.5,-136.78 351.86,-132.63"/>
</g>
<!-- Node2 -->
<g id="node2" class="node">
<title>Node2</title>
<g id="a_node2"><a xlink:href="class_ogre_1_1_hardware_buffer.html" target="_top" xlink:title="Abstract class defining common features of hardware buffers.">
<polygon fill="none" stroke="black" points="107,-143 107,-162 230,-162 230,-143 107,-143"/>
<text text-anchor="middle" x="168.5" y="-150" font-family="Helvetica,sans-Serif" font-size="10.00">Ogre::HardwareBuffer</text>
</a>
</g>
</g>
<!-- Node2&#45;&gt;Node1 -->
<g id="edge1" class="edge">
<title>Node2&#45;&gt;Node1</title>
<path fill="none" stroke="midnightblue" d="M240.28,-152.5C248.73,-152.5 257.37,-152.5 265.87,-152.5"/>
<polygon fill="midnightblue" stroke="midnightblue" points="240.09,-149 230.09,-152.5 240.09,-156 240.09,-149"/>
</g>
<!-- Node3 -->
<g id="node3" class="node">
<title>Node3</title>
<g id="a_node3"><a xlink:title=" ">
<polygon fill="none" stroke="#bfbfbf" points="0,-143 0,-162 71,-162 71,-143 0,-143"/>
<text text-anchor="middle" x="35.5" y="-150" font-family="Helvetica,sans-Serif" font-size="10.00">BufferAlloc</text>
</a>
</g>
</g>
<!-- Node3&#45;&gt;Node2 -->
<g id="edge2" class="edge">
<title>Node3&#45;&gt;Node2</title>
<path fill="none" stroke="midnightblue" d="M81.4,-152.5C89.64,-152.5 98.37,-152.5 106.99,-152.5"/>
<polygon fill="midnightblue" stroke="midnightblue" points="81.26,-149 71.26,-152.5 81.26,-156 81.26,-149"/>
</g>
</g>
</svg>
